<svg width="1026px" height="661px" viewBox="0 0 1026 661" version="1.1" xmlns:xlink="http://www.w3.org/1999/xlink" xmlns="http://www.w3.org/2000/svg">
  <g id="undraw_designer_mindset_7fhu">
    <path d="M0 0L1025.5 0L1025.5 660.657L0 660.657L0 0Z" id="Background" fill="none" stroke="none" />
    <path d="M0 12C0 5.37258 5.37258 0 12 0C18.6274 0 24 5.37258 24 12C24 18.6274 18.6274 24 12 24C5.37258 24 0 18.6274 0 12Z" transform="translate(78.5 503.6568)" id="Circle" fill="#D0CDE1" stroke="none" />
    <path d="M0 20C0 8.9543 8.9543 0 20 0C31.0457 0 40 8.9543 40 20C40 31.0457 31.0457 40 20 40C8.9543 40 0 31.0457 0 20Z" transform="translate(40.5 534.6568)" id="Circle" fill="#6C63FF" stroke="none" />
    <path d="M0 40.2099C0 18.0026 18.0026 0 40.2099 0C62.4172 0 80.4197 18.0026 80.4197 40.2099C80.4197 62.4172 62.4172 80.4197 40.2099 80.4197C18.0026 80.4197 0 62.4172 0 40.2099Z" transform="translate(254.7976 62.83533)" id="Circle" fill="#2F2E41" stroke="none" />
    <path d="M7.92514 0L14.0214 12.1925C14.0214 12.1925 33.5294 43.893 20.1176 47.5508C6.7059 51.2086 2.43851 23.7754 2.43851 23.7754L0 9.14438L7.92514 0Z" transform="translate(344.238 346.618)" id="Shape" fill="#A0616A" stroke="none" />
    <path d="M21.946 0L37.187 40.235L52.427 68.278L33.529 80.471L18.288 53.647L0 11.583L21.946 0L21.946 0Z" transform="translate(305.832 284.436)" id="Polygon" fill="#D0CDE1" stroke="none" />
    <path d="M107.294 38.4064L76.8128 70.7166L23.1658 161.551L0 154.235L27.4332 99.9786C27.4332 99.9786 43.2834 58.524 51.2086 53.0374C59.1337 47.5508 72.5455 11.5829 72.5455 11.5829L87.1765 0L107.294 38.4064Z" transform="translate(177.2004 434.4041)" id="Shape" fill="#A0616A" stroke="none" />
    <path d="M0 1.82886L2.43851 12.1925C2.43851 12.1925 10.3636 44.5027 22.5562 59.1337L51.8181 109.733L73.7647 102.417L30.4813 0L0 1.82886Z" transform="translate(347.2861 488.6608)" id="Shape" fill="#A0616A" stroke="none" />
    <path d="M0 32.9198C0 14.7387 14.7387 0 32.9198 0C51.1009 0 65.8396 14.7387 65.8396 32.9198C65.8396 51.1009 51.1009 65.8396 32.9198 65.8396C14.7387 65.8396 0 51.1009 0 32.9198Z" transform="translate(268.9492 84.17419)" id="Circle" fill="#A0616A" stroke="none" />
    <path d="M4.2674 0L0 35.3583L27.4332 48.7701C27.4332 48.7701 27.4332 18.2888 34.7487 10.3637L4.2674 0Z" transform="translate(271.6924 133.249)" id="Shape" fill="#A0616A" stroke="none" />
    <path d="M12.9658 0L9.91763 10.3636C9.91763 10.3636 -10.2 49.9893 6.86954 49.9893C23.9391 49.9893 26.9872 13.4118 26.9872 13.4118L28.8161 4.26739L12.9658 0Z" transform="translate(177.0369 361.2491)" id="Shape" fill="#A0616A" stroke="none" />
    <path d="M101.807 0L97.5401 29.8716L149.358 138.995L152.406 170.695L55.4759 182.888L34.139 123.754L0 167.647L19.508 122.535C19.508 122.535 25.6042 92.0535 23.7754 84.1283C21.9465 76.2032 24.9946 36.5775 30.4813 26.8235C35.9679 17.0695 101.807 0 101.807 0L101.807 0Z" transform="translate(228.4092 319.7945)" id="Shape" fill="#2F2E41" stroke="none" />
    <path d="M58.524 9.75403L29.2621 0L20.1177 14.631C20.1177 14.631 2.43852 19.508 3.04816 32.3101C3.65779 45.1122 0 67.0588 0 67.0588L12.8021 68.2781L17.6791 43.2834L42.6738 73.1551C42.6738 73.1551 87.1765 75.5936 89.0053 68.2781C90.8342 60.9625 57.3048 53.0375 57.3048 53.0375L51.8182 26.8235L58.524 9.75403Z" transform="translate(145.5 586.2009)" id="Shape" fill="#2F2E41" stroke="none" />
    <path d="M33.6569 0L6.83341 8.53479L6.83341 14.631C6.83341 14.631 -1.09174 26.8235 0.127533 37.1872C1.3468 47.5508 6.83341 72.5455 6.83341 72.5455L20.8548 72.5455L20.2452 49.3797L48.288 72.5455C48.288 72.5455 98.2773 68.8877 98.2773 60.9626C98.2773 53.0375 59.8709 47.5508 59.8709 47.5508L33.6569 0Z" transform="translate(389.2227 587.4201)" id="Shape" fill="#2F2E41" stroke="none" />
    <path d="M114 19.8564C114 19.8564 89.0053 -5.13831 77.4225 0.957947L77.4225 11.9312C77.4225 11.9312 60.3529 19.8563 59.7433 32.0488C59.1337 44.2413 41.4546 155.193 41.4546 155.193L0 299.675C0 299.675 12.8021 319.792 59.7433 297.236L89.0053 197.867C89.0053 197.867 57.9144 310.038 73.1551 308.209C88.3957 306.38 148.139 167.386 148.139 167.386L143.872 101.546C143.872 101.546 153.626 72.8938 134.118 53.3857L114 19.8564Z" transform="translate(186.9546 154.8472)" id="Shape" fill="#D0CDE1" stroke="none" />
    <path d="M71.3261 0C71.3261 0 60.9625 3.65775 53.647 19.508C46.3315 35.3582 9.754 146.92 9.754 146.92L0 186.545L27.4331 193.251L40.8449 152.406L90.8342 59.7433C90.8342 59.7433 98.7593 10.9733 71.3261 0L71.3261 0Z" transform="translate(186.9546 178.3613)" id="Shape" fill="#D0CDE1" stroke="none" />
    <path d="M0.08078 51.751C0.697296 44.226 4.29999 36.5127 10.9628 32.9613C7.61719 26.2413 4.62704 18.5712 6.83255 11.3958C8.65433 5.72725 13.3957 1.48466 19.231 0.301514C22.4302 -0.138687 25.6773 -0.0966644 28.864 0.426193L43.8857 2.13002C48.759 2.68277 53.8203 3.29942 57.9652 5.92136C62.3405 8.6891 65.1419 13.3699 65.5135 18.5338C65.8851 23.6977 63.7828 28.7314 59.8488 32.097C70.3588 40.5037 77.3824 46.8852 82.1646 59.4655C73.4012 52.4106 65.0144 49.9123 53.7806 49.3042C39.1579 48.5128 26.5598 59.4995 25.355 74.094C25.0652 77.6045 25.4525 81.2193 24.4309 84.5903C23.4093 87.9613 20.3312 91.1197 16.8435 90.6271C17.3272 90.6954 20.3051 81.7533 18.2086 77.6258L18.1758 77.5593C17.7147 76.7062 16.9543 76.0538 16.041 75.7276C14.3932 75.0957 12.5533 75.2024 10.9896 76.0206C9.42587 76.8387 8.28912 78.2894 7.86868 80.0034C6.70255 84.482 4.83655 90.1968 3.2067 88.6799C1.0722 86.6933 1.97015 69.177 1.3942 66.4615C0.24472 61.6478 -0.197723 56.6923 0.08078 51.751L0.08078 51.751Z" transform="translate(260.6091 39.08075)" id="Shape" fill="#2F2E41" stroke="none" />
    <path d="M0 0.718246C0 0.718246 33.0396 2.873 48.8412 0" transform="translate(271.7373 71.20355)" id="Shape" fill="#D0CDE1" stroke="none" />
    <path d="M7.93558 29.6665C4.58978 22.9466 1.5997 15.2765 3.80527 8.10106C4.83533 4.86615 6.85028 2.03386 9.56857 0C5.37036 1.92989 2.17401 5.532 0.757141 9.92993C-1.44843 17.1054 1.54163 24.7755 4.88745 31.4954C7.54117 31.0992 1.27271 33.218 7.93558 29.6665L7.93558 29.6665Z" transform="translate(265.6753 37.83429)" id="Shape" fill="#2F2E41" stroke="none" />
    <path d="M65.84 0L18.289 84.129L0 129.851L25.605 85.958L65.84 0L65.84 0Z" transform="translate(218.3501 238.409)" id="Polygon" fill="#000000" fill-opacity="0.2" stroke="none" />
    <path d="M0 0L2 0L2 93L0 93L0 0Z" transform="translate(64.90137 566.6568)" id="Rectangle" fill="#3F3D56" stroke="none" />
    <path d="M0 21C0 32.598 9.40202 42 21 42L21.0009 42C32.5935 41.9863 41.9874 32.5916 42 21C42 9.40204 32.598 0 21 0C9.40202 0 0 9.40204 0 21ZM2 21C2 10.5066 10.5065 2.00009 20.9998 2C31.4883 2.01184 39.988 10.5114 40 21C40 31.4934 31.4934 40 21 40C10.5066 40 2 31.4934 2 21Z" transform="translate(45.5 526.6567)" id="Shape" fill="#3F3D56" fill-rule="evenodd" stroke="none" />
    <path d="M0 13C0 20.1796 5.82021 25.9999 12.9998 26C20.1762 25.992 25.9918 20.1765 26 13C26 5.82031 20.1797 0 13 0C5.8203 0 0 5.82031 0 13ZM2 13C2 6.92487 6.92487 2 13 2L13.0004 2C19.0727 2.00708 23.9934 6.92816 24 13C24 19.0751 19.0751 24 13 24C6.92487 24 2 19.0751 2 13Z" transform="translate(70.5 506.6568)" id="Shape" fill="#3F3D56" fill-rule="evenodd" stroke="none" />
    <path d="M0 12C0 5.37258 5.37258 0 12 0C18.6274 0 24 5.37258 24 12C24 18.6274 18.6274 24 12 24C5.37258 24 0 18.6274 0 12Z" transform="translate(482.4321 253.865)" id="Circle" fill="#D0CDE1" stroke="none" />
    <path d="M0 20C0 8.9543 8.9543 0 20 0C31.0457 0 40 8.9543 40 20C40 31.0457 31.0457 40 20 40C8.9543 40 0 31.0457 0 20Z" transform="translate(430.0542 224.6137)" id="Circle" fill="#6C63FF" stroke="none" />
    <path d="M0.0296021 22.179C0.618897 33.3693 9.86414 42.1405 21.0699 42.1405C22.5493 42.1396 24.0245 41.9839 25.4713 41.6756C36.4299 39.3348 43.6389 28.8258 41.8776 17.7593C40.1162 6.69278 30.0009 -1.05893 18.8571 0.118011C7.7132 1.29495 -0.559692 10.9887 0.0296021 22.179ZM17.1681 2.54721C18.4773 2.26865 19.812 2.1279 21.1505 2.12729C30.8673 2.15213 39.0002 9.50272 40.0043 19.1674C41.0085 28.8322 34.5604 37.6977 25.0563 39.7196C14.7914 41.8978 4.70428 35.3423 2.526 25.0775C0.347717 14.8126 6.9032 4.72546 17.1681 2.54721Z" transform="translate(437.0352 227.8967)" id="Shape" fill="#3F3D56" fill-rule="evenodd" stroke="none" />
    <path d="M0.0183105 13.7279C0.382629 20.6547 6.1051 26.0844 13.0414 26.0848C13.9572 26.0843 14.8703 25.9879 15.766 25.7972C22.5494 24.3486 27.0121 17.8438 25.9222 10.9936C24.8323 4.14346 18.5712 -0.655151 11.6732 0.0729675C4.77521 0.801117 -0.346069 6.80118 0.0183105 13.7279ZM2.69696 9.40408C4.25415 5.0119 8.40967 2.0773 13.0697 2.07898L13.0698 2.07898C18.2649 2.07895 22.7513 5.71475 23.8275 10.7972C24.7946 15.3558 22.7845 20.0292 18.8102 22.4625C14.8359 24.8958 9.7597 24.5611 6.13928 21.6271C2.51886 18.6931 1.13977 13.7963 2.69696 9.40408Z" transform="translate(475.9985 246.7673)" id="Shape" fill="#3F3D56" fill-rule="evenodd" stroke="none" />
    <path d="M0 12C0 5.37258 5.37258 0 12 0C18.6274 0 24 5.37258 24 12C24 18.6274 18.6274 24 12 24C5.37258 24 0 18.6274 0 12Z" transform="translate(778.9614 43.35455)" id="Circle" fill="#D0CDE1" stroke="none" />
    <path d="M0 20C0 8.9543 8.9543 0 20 0C31.0457 0 40 8.9543 40 20C40 31.0457 31.0457 40 20 40C8.9543 40 0 31.0457 0 20Z" transform="translate(805.1841 0.001831055)" id="Circle" fill="#6C63FF" stroke="none" />
    <path d="M5.3399 34.9856C9.3269 39.4498 15.0286 42.0016 21.014 42.0005C32.3007 41.9922 41.5622 33.0639 41.9838 21.785C42.4054 10.5062 33.8362 0.911385 22.5815 0.0606308C11.327 -0.790123 1.41278 7.40751 0.134094 18.6216C-0.540771 24.5688 1.35297 30.5215 5.3399 34.9856ZM15.2053 39.0953C6.57239 36.3315 1.09399 27.8544 2.12042 18.8481C2.69342 13.842 5.22919 9.2678 9.1712 6.12937C16.2654 0.48687 26.3576 0.641434 33.2757 6.49854C40.1938 12.3556 42.0111 22.284 37.6162 30.2119C33.2213 38.1397 23.8383 41.8591 15.2053 39.0953Z" transform="translate(797.4314 5.278381)" id="Shape" fill="#3F3D56" fill-rule="evenodd" stroke="none" />
    <path d="M11.5275 25.9127C12.0245 25.9694 12.5244 25.9978 13.0246 25.9977L13.0246 25.9977C20.0084 25.9833 25.7326 20.453 25.9877 13.4739C26.2428 6.4948 20.9376 0.561417 13.9734 0.0372162C7.0094 -0.486969 0.875732 4.58539 0.0831909 11.524C-0.721313 18.6552 4.39825 25.0919 11.5275 25.9127ZM7.66547 22.6185C3.77393 20.461 1.56525 16.1716 2.06952 11.7506C2.76471 5.71866 8.21057 1.38712 14.2443 2.06705C18.6653 2.57051 22.3478 5.68768 23.5743 9.96494C24.8008 14.2422 23.33 18.8371 19.8475 21.607C16.3651 24.3768 11.557 24.776 7.66547 22.6185Z" transform="translate(785.3699 39.17664)" id="Shape" fill="#3F3D56" fill-rule="evenodd" stroke="none" />
    <path d="M0 0L204 0L204 232L0 232L0 0Z" transform="translate(586.5 136.6568)" id="Rectangle" fill="#D0CDE1" stroke="none" />
    <path d="M0 0L209 0L209 232L0 232L0 0Z" transform="translate(785.5 136.6568)" id="Rectangle" fill="#3F3D56" stroke="none" />
    <path d="M0 0L204 0L204 38L0 38L0 0Z" transform="translate(586.5 168.6568)" id="Rectangle" fill="#6C63FF" stroke="none" />
    <path d="M0 0L204 0L204 38L0 38L0 0Z" transform="translate(790.5 168.6568)" id="Rectangle" fill="#D0CDE1" stroke="none" />
    <path d="M0 0L204 0L204 38L0 38L0 0Z" transform="translate(586.5 295.6568)" id="Rectangle" fill="#3F3D56" stroke="none" />
    <path d="M0 0L204 0L204 38L0 38L0 0Z" transform="translate(790.5 295.6568)" id="Rectangle" fill="#6C63FF" stroke="none" />
    <path d="M0 0L0 208C57.4376 208 104 161.438 104 104C104 46.5624 57.4376 0 0 0L0 0Z" transform="translate(785.5 148.6568)" id="Shape" fill="#D0CDE1" stroke="none" />
    <path d="M0 104C0 161.438 46.5624 208 104 208L104 0C46.5624 0 0 46.5624 0 104L0 104Z" transform="translate(681.5 148.6568)" id="Shape" fill="#6C63FF" stroke="none" />
    <path d="M0 54C0 83.8234 24.1766 108 54 108L54 0C24.1766 0 0 24.1766 0 54L0 54Z" transform="translate(731.5 198.6568)" id="Shape" fill="#3F3D56" stroke="none" />
    <path d="M54 54C54 83.8234 29.8234 108 0 108L0 0C29.8234 0 54 24.1766 54 54L54 54Z" transform="translate(785.5 198.6568)" id="Shape" fill="#6C63FF" stroke="none" />
    <path d="M0 314L470 314L470 0L0 0L0 314ZM468 312L2 312L2 2L468 2L468 312Z" transform="translate(555.5 95.65674)" id="Shape" fill="#3F3D56" fill-rule="evenodd" stroke="none" />
    <path d="M0 0L581 0L581 2L0 2L0 0Z" transform="translate(0 658.6568)" id="Rectangle" fill="#3F3D56" stroke="none" />
  </g>
</svg>