<?xml version="1.0" encoding="utf-8"?>
<svg width="1119px" height="860px" viewBox="0 0 1119 860" version="1.1" xmlns:xlink="http://www.w3.org/1999/xlink" xmlns="http://www.w3.org/2000/svg">
  <defs>
    <linearGradient x1="0.544037461" y1="1.04324532" x2="0.544037461" y2="0.0432451963" id="gradient_1">
      <stop offset="0" stop-color="#808080" stop-opacity="0.2509804" />
      <stop offset="0.54" stop-color="#808080" stop-opacity="0.121568628" />
      <stop offset="1" stop-color="#808080" stop-opacity="0.101960786" />
    </linearGradient>
    <linearGradient x1="475.65" y1="861.71" x2="475.65" y2="223.28" id="gradient_2" />
  </defs>
  <g id="undraw_add_to_cart_vkjp" transform="translate(1 1)">
    <path d="M0 0L1116.21 0L1116.21 857.08L0 857.08L0 0Z" transform="translate(0 0.01501465)" id="Background" fill="none" stroke="none" />
    <path d="M982.502 581.987C981.502 582.717 980.582 583.427 979.602 584.117C975.986 586.674 972.2 588.983 968.272 591.027C947.692 601.877 922.322 607.177 897.612 610.777C842.192 618.857 785.612 620.427 729.272 621.967C577.042 626.147 424.442 630.317 272.582 620.687C89.0982 588.24 151.262 610.527 96.8916 591.027C96.8916 591.027 81.4582 585.167 73.9716 581.807C58.8216 574.997 44.2716 566.707 32.1716 556.807C20.8016 547.527 11.5816 536.867 6.07155 524.747C-5.41846 499.507 0.661545 471.157 13.7816 446.417C19.2306 436.408 25.3757 426.795 32.1715 417.647C42.3015 403.717 53.4715 390.187 63.6615 376.267C99.9215 326.787 123.582 264.187 90.1115 213.437C80.4915 198.857 66.5915 186.057 58.7515 170.837C53.1149 106.08 49.5215 129.747 52.7015 108.747C52.7015 108.747 53.5515 103.44 54.0115 100.827C59.4415 69.6869 69.6616 36.1369 101.172 16.6969C133.902 -3.50311 180.382 -2.48311 221.002 4.69689C284.172 15.9769 342.442 39.4569 401.332 60.6569C460.222 81.8569 521.832 101.227 586.552 103.307C643.702 105.147 710.362 91.3769 748.292 55.5869C785.132 20.8269 854.382 18.1769 904.292 39.1769C938.552 53.5869 964.112 79.5469 974.892 108.747C977.075 114.609 978.646 120.681 979.581 126.867C980.445 132.52 980.727 138.246 980.421 143.957C980.271 146.777 979.982 149.567 979.581 152.327C971.241 209.947 911.211 255.397 874.721 306.867C856.891 332.007 844.302 362.207 856.562 389.317C875.262 430.627 940.292 445.317 979.561 476.057C986.951 481.652 993.458 488.326 998.862 495.857C1017.91 523.217 1010.88 560.167 982.502 581.987L982.502 581.987Z" transform="translate(106.6584 0.7680664)" id="Shape" fill="#6C63FF" fill-opacity="0.1" stroke="none" />
    <g id="d00831fc-a64a-413c-b5dd-d7bd6eafa01d" transform="translate(0.1662598 0)">
      <path d="M208.36 196.86C208.36 196.86 162.36 115.34 93.04 91.86C63.95 82 38.56 63.46 21.2 38.12C12.9814 26.089 5.88494 13.3288 0 0" transform="translate(49.46362 128.015)" id="Shape" fill="none" stroke="#535461" stroke-width="2" />
      <path d="M5.87363 34.0188C13.7736 41.6488 50.5536 49.6488 50.5536 49.6488C50.5536 49.6488 41.5536 13.1288 33.6336 5.45884C25.711 -2.04356 13.2284 -1.78051 5.62889 6.049C-1.97063 13.8785 -1.86152 26.3634 5.87369 34.0589L5.87363 34.0188Z" transform="translate(0 78.90613)" id="Shape" fill="#6C63FF" stroke="none" />
      <path d="M15.6397 39.3951C26.4297 41.5351 61.6397 28.2051 61.6397 28.2051C61.6397 28.2051 34.1897 2.44507 23.3897 0.305069C12.7133 -1.57484 2.49232 5.42355 0.384079 16.0572C-1.72416 26.6909 5.05365 37.0595 15.6397 39.3951L15.6397 39.3951Z" transform="translate(11.04394 139.6199)" id="Shape" fill="#6C63FF" stroke="none" />
      <path d="M27.088 38.5577C37.488 34.9577 61.088 5.68771 61.088 5.68771C61.088 5.68771 24.408 -2.70229 14.018 0.89772C7.07664 3.05405 1.85968 8.81828 0.40419 15.9396C-1.0513 23.0609 1.48553 30.4099 7.0241 35.117C12.5627 39.824 20.2246 41.1425 27.018 38.5577L27.088 38.5577Z" transform="translate(75.3457 211.9973)" id="Shape" fill="#6C63FF" stroke="none" />
      <path d="M23.179 39.4833C34.039 37.6833 62.279 12.8333 62.279 12.8333C62.279 12.8333 27.549 -1.63666 16.689 0.153351C5.82834 1.94553 -1.52315 12.2027 0.269012 23.0634C2.06117 33.924 12.3183 41.2755 23.179 39.4833L23.179 39.4833Z" transform="translate(148.7546 252.2616)" id="Shape" fill="#6C63FF" stroke="none" />
      <path d="M39.855 20.3566C39.855 31.3566 19.955 63.2867 19.955 63.2867C19.955 63.2867 0.0150299 31.3766 0.00502777 20.3766C-0.156921 13.1516 3.60495 6.40509 9.83637 2.74504C16.0678 -0.915009 23.7923 -0.915009 30.0237 2.74506C36.2551 6.40511 40.017 13.1517 39.855 20.3766L39.855 20.3566Z" transform="translate(63.46851 118.9283)" id="Shape" fill="#6C63FF" stroke="none" />
      <path d="M38.7486 25.1571C35.4586 35.6571 6.90857 60.1571 6.90857 60.1571C6.90857 60.1571 -2.57144 23.7071 0.678558 13.1571C4.30765 3.12128 15.198 -2.27493 25.3814 0.916748C35.5647 4.10843 41.4268 14.7552 38.6785 25.0671L38.7486 25.1571Z" transform="translate(145.2551 163.3978)" id="Shape" fill="#6C63FF" stroke="none" />
      <path d="M39.5622 22.2843C38.1022 33.1944 14.1022 62.1644 14.1022 62.1644C14.1022 62.1644 -1.39777 27.8844 0.102234 16.9744C1.71817 6.20705 11.6761 -1.27071 22.4669 0.179916C33.2577 1.63052 40.8872 11.4726 39.6022 22.2843L39.5622 22.2843Z" transform="translate(216.2815 224.8206)" id="Shape" fill="#6C63FF" stroke="none" />
      <path d="M5.87363 34.0188C13.7736 41.6488 50.5536 49.6488 50.5536 49.6488C50.5536 49.6488 41.5536 13.1288 33.6336 5.45884C25.711 -2.04356 13.2284 -1.78051 5.62889 6.049C-1.97063 13.8785 -1.86152 26.3634 5.87369 34.0589L5.87363 34.0188Z" transform="translate(0 78.90613)" id="Shape" fill="#000000" fill-opacity="0.25" stroke="none" />
      <path d="M15.6397 39.3951C26.4297 41.5351 61.6397 28.2051 61.6397 28.2051C61.6397 28.2051 34.1897 2.44507 23.3897 0.305069C12.7133 -1.57484 2.49232 5.42355 0.384079 16.0572C-1.72416 26.6909 5.05365 37.0595 15.6397 39.3951L15.6397 39.3951Z" transform="translate(11.04394 139.6199)" id="Shape" fill="#000000" fill-opacity="0.25" stroke="none" />
      <path d="M27.088 38.5577C37.488 34.9577 61.088 5.68771 61.088 5.68771C61.088 5.68771 24.408 -2.70229 14.018 0.89772C7.07664 3.05405 1.85968 8.81828 0.40419 15.9396C-1.0513 23.0609 1.48553 30.4099 7.0241 35.117C12.5627 39.824 20.2246 41.1425 27.018 38.5577L27.088 38.5577Z" transform="translate(75.3457 211.9973)" id="Shape" fill="#000000" fill-opacity="0.25" stroke="none" />
      <path d="M23.179 39.4833C34.039 37.6833 62.279 12.8333 62.279 12.8333C62.279 12.8333 27.549 -1.63666 16.689 0.153351C5.82834 1.94553 -1.52315 12.2027 0.269012 23.0634C2.06117 33.924 12.3183 41.2755 23.179 39.4833L23.179 39.4833Z" transform="translate(148.7546 252.2616)" id="Shape" fill="#000000" fill-opacity="0.25" stroke="none" />
      <path d="M39.855 20.3566C39.855 31.3566 19.955 63.2867 19.955 63.2867C19.955 63.2867 0.0150299 31.3766 0.00502777 20.3766C-0.156921 13.1516 3.60495 6.40509 9.83637 2.74504C16.0678 -0.915009 23.7923 -0.915009 30.0237 2.74506C36.2551 6.40511 40.017 13.1517 39.855 20.3766L39.855 20.3566Z" transform="translate(63.46851 118.9283)" id="Shape" fill="#000000" fill-opacity="0.25" stroke="none" />
      <path d="M38.7486 25.1571C35.4586 35.6571 6.90857 60.1571 6.90857 60.1571C6.90857 60.1571 -2.57144 23.7071 0.678558 13.1571C4.30765 3.12128 15.198 -2.27493 25.3814 0.916748C35.5647 4.10843 41.4268 14.7552 38.6785 25.0671L38.7486 25.1571Z" transform="translate(145.2551 163.3978)" id="Shape" fill="#000000" fill-opacity="0.25" stroke="none" />
      <path d="M39.5622 22.2843C38.1022 33.1944 14.1022 62.1644 14.1022 62.1644C14.1022 62.1644 -1.39777 27.8844 0.102234 16.9744C1.71817 6.20705 11.6761 -1.27071 22.4669 0.179916C33.2577 1.63052 40.8872 11.4726 39.6022 22.2843L39.5622 22.2843Z" transform="translate(216.2815 224.8206)" id="Shape" fill="#000000" fill-opacity="0.25" stroke="none" />
      <path d="M110.7 264.43C110.7 264.43 101.7 171.25 47.8204 121.69C25.2304 100.89 9.53036 73.69 3.92038 43.45C1.28706 29.1172 -0.0251007 14.5728 0.000366211 0" transform="translate(144.4731 58.82495)" id="Shape" fill="none" stroke="#535461" stroke-width="2" />
      <path d="M1.47739 27.395C5.59738 37.605 36.0074 59.755 36.0074 59.755C36.0074 59.755 42.5574 22.705 38.4474 12.495C34.3312 2.28004 22.7144 -2.66498 12.4987 1.44917C2.2829 5.56331 -2.66443 17.1791 1.44769 27.3957L1.47739 27.395Z" transform="translate(109.2463 0)" id="Shape" fill="#6C63FF" stroke="none" />
      <path d="M8.446 36.241C17.446 42.571 55.016 44.641 55.016 44.641C55.016 44.641 40.446 9.981 31.446 3.65099C22.4465 -2.70028 10.0023 -0.553482 3.651 8.446C-2.70027 17.4455 -0.553482 29.8897 8.446 36.241L8.446 36.241Z" transform="translate(94.48755 60.00403)" id="Shape" fill="#6C63FF" stroke="none" />
      <path d="M18.7 39.8223C29.7 40.7523 63.14 23.5623 63.14 23.5623C63.14 23.5623 33.01 1.03227 22.04 0.112274C14.855 -0.652649 7.81882 2.53113 3.65059 8.43321C-0.517639 14.3353 -1.16493 22.0311 1.95886 28.5465C5.08266 35.062 11.4882 39.3763 18.7 39.8223L18.7 39.8223Z" transform="translate(124.5437 152.5027)" id="Shape" fill="#6C63FF" stroke="none" />
      <path d="M14.6169 39.1446C25.2769 41.9046 61.1668 30.6246 61.1668 30.6246C61.1668 30.6246 35.2768 3.3246 24.6268 0.564606C14.0497 -1.99768 3.37282 4.39879 0.642136 14.9337C-2.08853 25.4687 4.1368 36.2462 14.6268 39.1446L14.6169 39.1446Z" transform="translate(175.4668 219.0204)" id="Shape" fill="#6C63FF" stroke="none" />
      <path d="M38.2191 28.3057C33.7691 38.3657 2.62915 59.4757 2.62915 59.4757C2.62915 59.4757 -2.67085 22.2357 1.77914 12.1657C4.58418 5.53469 10.7476 0.932091 17.9023 0.125694C25.0569 -0.680702 32.0902 2.43449 36.3009 8.27479C40.5116 14.1151 41.2449 21.7724 38.2192 28.3057L38.2191 28.3057Z" transform="translate(150.9146 62.6792)" id="Shape" fill="#6C63FF" stroke="none" />
      <path d="M43.29 33.0674C36.03 41.3374 0 52.1674 0 52.1674C0 52.1674 6.08 15.0474 13.35 6.77742C20.6098 -1.4903 33.1973 -2.30737 41.465 4.95241C49.7327 12.2122 50.5498 24.7997 43.29 33.0674L43.29 33.0674Z" transform="translate(199.6436 135.5975)" id="Shape" fill="#6C63FF" stroke="none" />
      <path d="M39.4422 30.374C33.6822 39.754 0.00219727 56.5141 0.00219727 56.5141C0.00219727 56.5141 -0.277802 18.8941 5.48221 9.51405C11.2438 0.127289 23.5235 -2.81232 32.911 2.94792C42.2986 8.70815 45.24 20.9874 39.4811 30.3758L39.4422 30.374Z" transform="translate(245.4915 220.981)" id="Shape" fill="#6C63FF" stroke="none" />
    </g>
    <path d="M0 14.52C0 6.50083 49.9337 0 111.53 0C173.126 0 223.06 6.50083 223.06 14.52C223.06 22.5392 173.126 29.04 111.53 29.04C49.9337 29.04 0 22.5392 0 14.52Z" transform="translate(296.6301 822.6749)" id="Ellipse" fill="#6C63FF" fill-opacity="0.1" stroke="none" />
    <g id="5cfdbbb0-8197-4f02-a5fd-2740d54b5dec" transform="translate(146.1567 771.4949)">
      <path d="M0 5.8C0 2.59675 15.1686 0 33.88 0C52.5914 0 67.76 2.59675 67.76 5.8C67.76 9.00325 52.5914 11.6 33.88 11.6C15.1686 11.6 0 9.00325 0 5.8Z" transform="translate(2.843262 58.78003)" id="Ellipse" fill="#6C63FF" fill-opacity="0.1" stroke="none" />
      <path d="M15.1335 0C15.1335 0 20.6235 7.19 12.5935 18C4.56349 28.81 -2.0565 38 0.593491 44.77C0.593491 44.77 12.7035 24.62 22.5935 24.34C32.4835 24.0601 25.9935 12.12 15.1335 0L15.1335 0Z" transform="translate(28.94971 0)" id="Shape" fill="#6C63FF" stroke="none" />
      <path d="M14.8 0C15.2796 0.695862 15.6567 1.45691 15.92 2.26001C25.54 13.56 30.67 24.11 21.42 24.37C12.81 24.62 2.47 40.02 0 43.91C0.0815582 44.2114 0.178345 44.5084 0.289993 44.8C0.401642 45.0916 12.4 24.65 22.29 24.37C32.18 24.09 25.66 12.12 14.8 0L14.8 0Z" transform="translate(29.2832 0)" id="Shape" fill="#000000" fill-opacity="0.1" stroke="none" />
      <path d="M1.27 1.63788C1.27 4.16791 0.990005 6.2179 0.639999 6.2179C0.289993 6.2179 0 4.2179 0 1.63788C0 -0.942139 0.360001 0.297852 0.710007 0.297852C1.06001 0.297852 1.27 -0.89209 1.27 1.63788L1.27 1.63788Z" transform="translate(53.02319 7.522095)" id="Shape" fill="#FFD037" stroke="none" />
      <path d="M4.34192 1.73889C2.12192 2.94891 0.181915 3.67889 0.0119171 3.3689C-0.158081 3.0589 1.51192 1.82892 3.73192 0.618896C5.95192 -0.591125 5.07191 0.288879 5.24191 0.618896C5.41191 0.948914 6.56192 0.52887 4.34192 1.73889L4.34192 1.73889Z" transform="translate(53.46143 10.4411)" id="Shape" fill="#FFD037" stroke="none" />
      <path d="M12.3358 0C12.3358 0 6.84576 7.19 14.8758 18C22.9058 28.81 29.5258 38 26.8758 44.77C26.8758 44.77 14.7658 24.62 4.87576 24.34C-5.01424 24.0601 1.49577 12.12 12.3358 0L12.3358 0Z" transform="translate(2.72754 0)" id="Shape" fill="#6C63FF" stroke="none" />
      <path d="M12.3575 0C11.8779 0.695862 11.5008 1.45691 11.2375 2.26001C1.61751 13.56 -3.5125 24.11 5.7375 24.37C14.3575 24.62 24.6875 40.02 27.1575 43.91C27.0805 44.2127 26.9836 44.51 26.8675 44.8C26.7514 45.09 14.7575 24.65 4.86751 24.37C-5.02249 24.09 1.5175 12.12 12.3575 0L12.3575 0Z" transform="translate(2.705812 0)" id="Shape" fill="#000000" fill-opacity="0.1" stroke="none" />
      <path d="M0 1.63788C0 4.16791 0.279999 6.2179 0.630005 6.2179C0.980011 6.2179 1.27 4.2179 1.27 1.63788C1.27 -0.942139 0.910004 0.297852 0.559998 0.297852C0.209992 0.297852 0 -0.89209 0 1.63788L0 1.63788Z" transform="translate(4.853271 7.522095)" id="Shape" fill="#FFD037" stroke="none" />
      <path d="M1.35327 1.73889C3.57327 2.94891 5.50327 3.67889 5.67328 3.3689C5.84329 3.0589 4.17328 1.82892 1.95328 0.618896C-0.266724 -0.591125 0.613281 0.288879 0.443283 0.618896C0.273285 0.948914 -0.86673 0.52887 1.35327 1.73889L1.35327 1.73889Z" transform="translate(0 10.4411)" id="Shape" fill="#FFD037" stroke="none" />
      <path d="M0 8.30347C0 8.30347 15.36 7.82349 20 4.53345C24.64 1.24341 43.62 -2.70654 44.77 2.58344C45.92 7.87341 67.85 28.8734 50.51 29.0134C33.17 29.1534 10.22 26.3134 5.60001 23.5034C0.980011 20.6934 0 8.30347 0 8.30347L0 8.30347Z" transform="translate(6.603271 35.55652)" id="Shape" fill="#A8A8A8" stroke="none" />
      <path d="M50.81 18.89C33.47 19.03 10.52 16.19 5.89999 13.38C2.37999 11.23 0.979996 3.53998 0.509995 0L0 0C0 0 1 12.38 5.59 15.2C10.18 18.02 33.16 20.85 50.5 20.71C55.5 20.71 57.24 18.89 57.14 16.25C56.45 17.8701 54.54 18.86 50.81 18.89L50.81 18.89Z" transform="translate(6.603271 43.83997)" id="Shape" fill="#000000" fill-opacity="0.2" stroke="none" />
      <path d="M37.6993 0.0549927C37.6993 0.0549927 -4.58069 -2.495 0.409363 27.135C0.409363 27.135 -0.590637 32.365 4.15936 34.745C4.15936 34.745 4.23938 32.555 8.49939 33.295C10.0153 33.5503 11.5561 33.6241 13.0894 33.515C15.1663 33.3782 17.1408 32.5631 18.7094 31.1949L18.7094 31.1949C18.7094 31.1949 30.5894 26.2949 35.2094 6.86493C35.2094 6.86493 38.6294 2.62494 38.4994 1.53491L31.3594 4.53491C31.3594 4.53491 33.7994 9.68494 31.8794 13.9649C31.8794 13.9649 31.6494 4.72491 30.2794 4.9649C29.9994 4.9649 26.5694 6.74493 26.5694 6.74493C26.5694 6.74493 30.7694 15.7449 27.5694 22.2249C27.5694 22.2249 28.7694 11.2249 25.2294 7.3949L20.2294 10.3249C20.2294 10.3249 25.1294 19.5849 21.8094 27.1449C21.8094 27.1449 22.6594 15.5549 19.1794 11.0349L14.6294 14.5849C14.6294 14.5849 19.2294 23.7149 16.4194 29.9849C16.4194 29.9849 16.0594 16.4949 13.6393 15.4749C13.6393 15.4749 9.63934 18.9849 9.04932 20.4749C9.04932 20.4749 12.1993 27.0949 10.2493 30.5949C10.2493 30.5949 9.04932 21.5949 8.05933 21.5949C8.05933 21.5949 4.05933 27.5949 3.67932 31.5949C3.67932 31.5949 3.85931 25.5249 7.0993 20.9849C4.81213 21.4207 2.70221 22.5156 1.0293 24.1349C-0.643616 25.7543 1.64929 19.9249 8.0293 19.5549C8.0293 19.5549 11.3093 15.0349 12.1893 14.765C12.1893 14.765 5.78925 14.225 1.90924 15.9449C1.90924 15.9449 5.31921 11.9449 13.3593 13.775L17.8492 10.115C17.8492 10.115 9.42926 8.95502 5.84924 10.235C5.84924 10.235 9.96924 6.71497 19.0593 9.23499L23.9593 6.315C23.9593 6.315 16.7693 4.76501 12.4893 5.315C12.4893 5.315 17.0093 2.875 25.3893 5.51501L28.8893 3.94501C28.8893 3.94501 23.6193 2.94501 22.0793 2.755C20.5394 2.565 20.4594 2.16498 20.4594 2.16498C23.7943 1.60901 27.2181 1.98981 30.3494 3.26495C33.4807 4.5401 37.8293 0.524963 37.6993 0.0549927L37.6993 0.0549927Z" transform="translate(481.8438 43.21503)" id="Shape" fill="#6C63FF" stroke="none" />
      <path d="M0 5.06C0 2.26544 13.3956 0 29.92 0C46.4444 0 59.84 2.26544 59.84 5.06C59.84 7.85456 46.4444 10.12 29.92 10.12C13.3956 10.12 0 7.85456 0 5.06Z" transform="translate(460.5034 75.48004)" id="Ellipse" fill="#6C63FF" fill-opacity="0.1" stroke="none" />
      <path d="M21.235 0.0311279C21.235 0.0311279 -2.60504 -1.40887 0.234985 15.3011C-0.0591431 17.0389 0.795837 18.7692 2.35498 19.5911C3.91412 20.4131 2.35498 18.3511 4.80499 18.7711C5.65753 18.9098 6.52289 18.9534 7.38501 18.9011C8.55481 18.8156 9.66608 18.3564 10.555 17.5911L10.555 17.5911C10.555 17.5911 17.255 14.8211 19.865 3.87115C19.865 3.87115 21.785 1.48114 21.715 0.871155L17.715 2.58118C17.715 2.58118 19.085 5.49115 18.0049 7.90118C18.0049 7.90118 17.8749 2.69116 17.1049 2.81116C16.9449 2.81116 15.0149 3.81116 15.0149 3.81116C15.0149 3.81116 17.3749 8.81116 15.5949 12.5411C15.5949 12.5411 16.2649 6.31116 14.2749 4.17114L11.4449 5.83112C11.4449 5.83112 14.2049 11.0511 12.3349 15.3111C12.3349 15.3111 12.8149 8.77112 10.8449 6.23108L8.28491 8.23108C8.28491 8.23108 10.8749 13.3811 9.28491 16.9111C9.28491 16.9111 9.07489 9.30109 7.7149 8.73108C6.74115 9.55212 5.8714 10.4891 5.12488 11.5211C4.37836 12.553 6.90491 15.261 5.80487 17.2311C5.80487 17.2311 5.12488 12.1611 4.57489 12.1411C4.57489 12.1411 2.3349 15.501 2.10492 17.801C2.20624 15.6671 2.86847 13.5975 4.02484 11.801C2.73657 12.0447 1.54773 12.66 0.604858 13.571C-0.338013 14.4821 0.954834 11.191 4.60486 10.991C4.60486 10.991 6.44489 8.44104 6.94489 8.29102C6.94489 8.29102 3.3349 7.98102 1.1449 8.95099C1.1449 8.95099 3.07489 6.711 7.60492 7.73102L10.1349 5.66101C10.1349 5.66101 5.38495 5.01099 3.37494 5.73102C3.37494 5.73102 5.69495 3.73102 10.825 5.19104L13.575 3.55103C11.4556 3.08142 9.28351 2.89313 7.11493 2.99103C4.94635 3.08893 9.66492 1.62103 14.3849 3.10101L16.3849 2.22101C16.3849 2.22101 13.3849 1.63098 12.5549 1.54102C11.7249 1.45105 11.6349 1.211 11.6349 1.211C13.5165 0.89801 15.448 1.11261 17.215 1.83099C18.9819 2.54938 21.3049 0.301147 21.235 0.0311279L21.235 0.0311279Z" transform="translate(424.2383 44.81885)" id="Shape" fill="#6C63FF" stroke="none" />
      <path d="M0 2.85C0 1.27599 7.55296 0 16.87 0C26.187 0 33.74 1.27599 33.74 2.85C33.74 4.42401 26.187 5.7 16.87 5.7C7.55296 5.7 0 4.42401 0 2.85Z" transform="translate(412.1833 63.02002)" id="Ellipse" fill="#6C63FF" fill-opacity="0.1" stroke="none" />
      <path d="M25.6577 0.0376587C25.6577 0.0376587 -3.11237 -1.70233 0.277649 18.4677C-0.0795898 20.5663 0.953491 22.6567 2.83765 23.6476C4.7218 24.6386 2.83765 22.1577 5.78766 22.6476C6.81897 22.8123 7.8653 22.8626 8.90765 22.7977C10.321 22.6964 11.6641 22.1424 12.7377 21.2177L12.7377 21.2177C12.7377 21.2177 20.8277 17.8776 23.9677 4.64764C23.9677 4.64764 26.2977 1.76764 26.2076 1.02765L21.3477 3.09766C21.3477 3.09766 23.0076 6.60767 21.7076 9.51764C21.7076 9.51764 21.5477 3.22766 20.6077 3.37762C20.4277 3.37762 18.0876 4.58765 18.0876 4.58765C18.0876 4.58765 20.9476 10.6976 18.7877 15.1276C18.7877 15.1276 19.6077 7.6076 17.1976 5.02765L13.7776 7.02765C13.7776 7.02765 17.1177 13.3276 14.8577 18.4777C14.8577 18.4777 15.4377 10.5876 13.0577 7.47766L9.9577 9.88763C9.9577 9.88763 13.0977 16.0977 11.1877 20.3676C11.1877 20.3676 10.9377 11.1876 9.28766 10.4876C9.28766 10.4876 6.57764 12.8776 6.16766 13.8576C6.16766 13.8576 8.31769 18.3676 6.97766 20.7476C6.97766 20.7476 6.16766 14.6376 5.49768 14.6076C5.49768 14.6076 2.79767 18.6076 2.49768 21.4376C2.62671 18.8696 3.42664 16.3802 4.81769 14.2177C3.26196 14.5136 1.82654 15.2573 0.687683 16.3577C-0.451172 17.458 1.10767 13.4877 5.48767 13.2377C5.48767 13.2377 7.71765 10.1677 8.31769 9.97766C8.31769 9.97766 3.9577 9.61768 1.31769 10.7877C1.31769 10.7877 3.6377 8.07764 9.11768 9.30768L12.1777 6.81769C12.1777 6.81769 6.43768 6.02771 4.00769 6.89771C4.00769 6.89771 6.80768 4.50769 13.0077 6.24768L16.3377 4.24768C16.3377 4.24768 11.4477 3.24768 8.53772 3.5777C8.53772 3.5777 11.6077 1.91772 17.3177 3.7077L19.6978 2.64771C19.6978 2.64771 16.1077 1.93768 15.0577 1.8277C14.0078 1.71771 13.9578 1.42767 13.9578 1.42767C16.2272 1.05005 18.5571 1.30969 20.6877 2.17767C22.8184 3.04565 25.7576 0.357666 25.6577 0.0376587L25.6577 0.0376587Z" transform="translate(465.1855 9.402344)" id="Shape" fill="#6C63FF" stroke="none" />
      <path d="M0 3.44C0 1.54014 9.11996 0 20.37 0C31.62 0 40.74 1.54014 40.74 3.44C40.74 5.33986 31.62 6.88 20.37 6.88C9.11996 6.88 0 5.33986 0 3.44Z" transform="translate(450.6633 31.37)" id="Ellipse" fill="#6C63FF" fill-opacity="0.1" stroke="none" />
    </g>
    <g id="1cf578eb-5ffb-4cd7-95b8-45aaaddab7e0" transform="translate(136.75 95.55493)">
      <path d="M951.35 489.13L951.35 0L0 0L0 461.07C49.5067 490.21 26.76 479.74 42 486.75C42 486.75 57.1733 493.373 65 496.24C65 496.24 940 496.24 940 496.24L951.35 489.13Z" id="Shape" fill="url(#gradient_1)" stroke="none" />
      <path d="M947.43 475.33L947.43 0L0 0L0 448.1C49.28 476.433 26.65 466.25 41.8 473.1C41.8 473.1 56.92 479.507 64.72 482.32C64.72 482.32 936.1 482.32 936.1 482.32L947.43 475.33Z" transform="translate(2.080078 14)" id="Shape" fill="#EEEEEE" stroke="none" />
      <path d="M0 0L947.42 0L947.42 25.14L0 25.14L0 0Z" transform="translate(2.090088 1.390015)" id="Rectangle" fill="#5A5773" stroke="none" />
    </g>
    <g id="6703b009-63cb-4af0-a0d7-9948e224c180" transform="translate(151.26 103.015)">
      <path d="M0 6.5C0 2.91015 2.91015 0 6.5 0C10.0899 0 13 2.91015 13 6.5C13 10.0899 10.0899 13 6.5 13C2.91015 13 0 10.0899 0 6.5Z" id="Circle" fill="#EEEEEE" stroke="none" />
      <path d="M0 6.5C0 2.91015 2.91015 0 6.5 0C10.0899 0 13 2.91015 13 6.5C13 10.0899 10.0899 13 6.5 13C2.91015 13 0 10.0899 0 6.5Z" transform="translate(17.5 0)" id="Circle" fill="#EEEEEE" stroke="none" />
      <path d="M0 6.5C0 2.91015 2.91015 0 6.5 0C10.0899 0 13 2.91015 13 6.5C13 10.0899 10.0899 13 6.5 13C2.91015 13 0 10.0899 0 6.5Z" transform="translate(35 0)" id="Circle" fill="#EEEEEE" stroke="none" />
    </g>
    <g id="8c4e1fb4-b9ff-4530-b767-610e84618ea6" transform="translate(164.26 177.335)">
      <path d="M0 0L156.5 0L156.5 98.34L0 98.34L0 0Z" transform="translate(216.6899 0)" id="Rectangle" fill="#6C63FF" stroke="none" />
      <path d="M0 0L156.5 0L156.5 98.34L0 98.34L0 0Z" id="Rectangle" fill="#5A5773" fill-opacity="0.2" stroke="none" />
      <path d="M0 0L156.5 0L156.5 98.34L0 98.34L0 0Z" transform="translate(433.3801 0)" id="Rectangle" fill="#5A5773" fill-opacity="0.2" stroke="none" />
      <path d="M0 0L156.5 0L156.5 98.34L0 98.34L0 0Z" transform="translate(0 140.59)" id="Rectangle" fill="#5A5773" fill-opacity="0.2" stroke="none" />
      <path d="M0 0L156.5 0L156.5 98.34L0 98.34L0 0Z" transform="translate(216.6899 140.59)" id="Rectangle" fill="#5A5773" fill-opacity="0.2" stroke="none" />
      <path d="M0 0L156.5 0L156.5 98.34L0 98.34L0 0Z" transform="translate(433.3801 140.59)" id="Rectangle" fill="#5A5773" fill-opacity="0.2" stroke="none" />
      <path d="M0 0L156.5 0L156.5 98.34L0 98.34L0 0Z" transform="translate(0 281.1699)" id="Rectangle" fill="#5A5773" fill-opacity="0.2" stroke="none" />
      <path d="M0 0L156.5 0L156.5 98.34L0 98.34L0 0Z" transform="translate(216.6899 281.1699)" id="Rectangle" fill="#5A5773" fill-opacity="0.2" stroke="none" />
      <path d="M0 0L156.5 0L156.5 98.34L0 98.34L0 0Z" transform="translate(433.3801 281.1699)" id="Rectangle" fill="#5A5773" fill-opacity="0.2" stroke="none" />
    </g>
    <g id="2796dd85-6618-42ad-b8a0-d6b4cc80ab2d" transform="translate(344.5999 201.8927)">
      <path d="M141.5 162.122C136.76 170.482 164.87 221.862 164.87 221.862C164.87 221.862 183.04 253.602 177.03 253.992C176.257 254.078 175.494 254.235 174.75 254.462C172.226 255.257 169.746 256.185 167.32 257.242L167.1 257.332C163.73 258.762 159.97 260.482 156.42 262.152L155.36 262.652C152.56 263.992 149.94 265.272 147.8 266.332L147.8 266.412C147.92 266.932 148.04 267.472 148.16 268.022C152.7 289.222 157.16 329.052 150.16 343.802C140.65 363.852 136.75 387.662 136.75 387.662L133.34 407.742C133.34 407.742 135.08 416.512 133.34 419.852C131.6 423.192 128.14 428.622 128.14 428.622C128.14 428.622 129.19 436.872 129.29 443.432C129.35 447.182 129.09 450.422 128.14 451.182C125.55 453.262 128.14 465.792 128.14 465.792L120.79 501.682L119.5 507.992L107.26 562.232C106.125 563.138 104.87 563.882 103.53 564.442L103.37 564.512C102.644 564.807 101.899 565.05 101.14 565.242L101.14 566.512C101 571.612 100.66 577.432 100 580.202C99.4102 582.722 99.3602 587.372 99.4802 591.662L99.4802 592.342C99.8701 593.392 100.25 594.492 100.63 595.652C100.63 595.652 101.6 604.522 105.98 607.652C110.36 610.782 105.5 624.562 103.55 625.502C103.364 625.579 103.169 625.632 102.97 625.662C102.69 625.702 102.36 625.772 101.97 625.772L101.87 625.772C98.1902 626.062 89.7402 625.842 84.5002 625.662L84.3202 625.662L84.3202 632.252L81.0002 632.252L80.5802 626.812L80.2702 622.902C80.1457 622.521 80.0815 622.123 80.0802 621.722L80.0802 620.242L79.0802 607.352C78.5602 604.432 77.7802 602.082 76.6302 601.242C72.5702 598.262 69.3502 588.012 76.6302 575.082C77.7379 574.342 78.9879 573.841 80.3002 573.612C80.3602 573.402 80.4102 573.182 80.4702 572.952C81.1902 569.912 81.8502 565.932 82.3402 562.512L82.4902 561.442L82.4902 561.362C81.5102 560.782 80.7802 560.302 80.3902 560.022L80.0502 559.782L83.4802 524.282C83.4802 524.282 83.8402 519.962 84.3402 513.542C85.5802 497.282 87.6702 467.572 86.8602 460.842C86.8555 460.806 86.8555 460.769 86.8602 460.732C86.8462 460.312 86.7332 459.901 86.5302 459.532C86.2604 459.201 86.0659 458.816 85.9602 458.402C85.0802 455.212 86.6931 450.939 87.4002 449.112C88.1073 447.285 88.6169 445.388 88.9202 443.452C88.9895 442.975 89.0296 442.494 89.0402 442.012L89.0402 441.912C89.139 440.774 88.8691 439.635 88.2702 438.662C87.8349 438.04 87.5632 437.317 87.4802 436.562C87.1506 434.167 88.1393 431.222 88.5398 430.029C88.6375 429.738 88.7002 429.551 88.7002 429.502L88.7002 428.582C88.5802 424.012 88.1602 403.352 90.4602 398.152C90.8472 397.092 91.0927 395.986 91.1902 394.862L91.1902 394.662C92.4402 383.812 90.4402 356.132 90.4402 356.132L89.4402 345.602L89.3702 344.862L88.8302 339.292L88.7702 338.632L88.7102 338.022C88.7102 338.022 88.3402 340.522 87.7102 344.392C85.7902 356.182 81.7202 380.632 80.1102 385.632C79.0125 389.266 77.5238 392.77 75.6702 396.082C75.6702 396.082 77.9202 408.612 75.6702 411.952C73.4202 415.292 75.3302 419.052 75.3302 419.052C75.3302 419.052 77.4902 429.492 71.0002 433.672C66.7802 436.382 68.0402 438.222 69.4502 439.162C69.9269 439.486 70.4449 439.745 70.9902 439.932L70.8502 440.212C70.6102 440.732 70.0402 441.932 69.3202 443.462C67.7802 446.762 65.5702 451.552 64.5002 454.132C62.7702 458.272 64.5002 464.132 64.5002 464.132L61.01 497.983C61.01 497.983 58.24 510.953 58.39 520.493L58.39 521.793C58.82 531.393 54.49 553.533 54.49 553.533C54.49 553.533 50.5 553.533 45.07 553.383L43.3 553.323L43.24 553.543C43.15 553.863 43.06 554.193 42.98 554.543C42.9753 554.609 42.9753 554.676 42.98 554.743C42.076 558.955 41.6467 563.255 41.7 567.563L41.7 569.563C42.5705 570.586 43.2482 571.758 43.7 573.023C46.07 579.393 45.5272 585.968 44.37 588.393C43.2129 590.818 42.2855 593.345 41.6 595.943C40.2121 600.986 39.5059 606.192 39.5002 611.422C39.5394 615.981 38.7358 620.507 37.13 624.774C37.1 625.494 37.03 626.194 37.03 626.884C36.99 627.764 36.93 628.624 36.93 629.444C36.75 634.044 36.63 637.484 36.63 638.234L36.63 638.384L31.18 638.384L31.18 638.164L31.34 632.224C27.15 632.054 15.5999 631.284 10.99 627.594C10.8795 627.509 10.7759 627.415 10.68 627.314C10.1953 626.902 9.79169 626.404 9.48996 625.844C6.84638 620.761 12.156 605.966 14.6693 598.963C15.2363 597.383 15.661 596.2 15.8199 595.614C16.6832 592.432 17.7589 589.312 19.0399 586.274L19.0999 585.484C19.7099 578.364 20.9599 565.184 22.1499 563.484C22.9699 562.284 23.5399 557.534 23.8999 553.124C23.9399 552.704 23.9999 552.294 23.9999 551.884C20.2799 551.354 17.3499 550.664 16.0899 549.744C13.55 547.894 15.61 538.014 18.3499 528.474C21.1599 518.674 24.6899 509.234 24.6899 509.234C24.6899 509.234 28.42 447.574 27.7599 443.424C27.7546 443.358 27.7377 443.294 27.71 443.234C26.8199 441.524 27.71 429.044 30.71 426.524C33.71 424.004 30.71 419.004 30.71 419.004C30.71 419.004 29.84 408.974 30.71 406.474C31.58 403.974 30.58 395.614 30.58 395.614C30.58 395.614 27.68 375.154 27.25 363.454C27.19 361.584 27.07 359.354 26.93 356.914C26.9 356.344 26.83 355.774 26.83 355.184C25.2 356.184 22.99 356.404 19.99 355.604C19.0745 355.355 18.1759 355.048 17.3 354.684C3.59 349.064 0.839996 338.144 1.67999 328.314C2.14328 323.608 3.23987 318.986 4.94 314.574C5.07999 314.194 5.22998 313.834 5.37 313.484C3.48532 312.803 1.68384 311.911 0 310.824C0 310.824 0.130005 300.554 0.48999 287.554C0.869995 274.374 1.48999 258.434 2.48999 247.784C2.65997 246.124 2.82999 244.524 3.00998 243.124C3.46997 239.544 3.99997 237.074 4.58997 236.244C4.63895 236.174 4.69601 236.11 4.75998 236.054C5.50378 235.371 6.01447 234.472 6.21997 233.484C6.62344 231.158 6.53146 228.772 5.94998 226.484C5.72961 225.431 5.4559 224.389 5.12997 223.364C4.90997 222.674 4.75998 222.264 4.75998 222.264L5.27997 215.504L5.64996 210.754L7.72995 183.754C7.69525 183.496 7.7157 183.234 7.78995 182.984C8.5791 180.418 9.19385 177.803 9.62994 175.154C11.5148 164.641 12.4919 153.985 12.5503 143.302C12.5314 140.28 12.9731 137.272 13.8603 134.382C17.3102 123.252 26.7703 117.432 32.0103 114.062C33.967 112.966 36.0532 112.12 38.2202 111.542C39.2826 108.593 39.8797 105.496 39.9902 102.362C39.9802 101.752 39.9502 101.152 39.8902 100.542C39.2402 93.7223 35.6802 87.3423 35.4302 80.4923L35.4302 77.5323C35.4502 77.1623 35.5102 76.7923 35.5102 76.4223C36.9302 60.8023 54.1702 48.4223 54.4502 32.4223C54.3902 31.4724 54.3902 30.5023 54.3902 29.5524C54.2769 28.2364 54.4404 26.9113 54.8702 25.6623C55.5342 24.1885 56.6065 22.9357 57.9602 22.0523C58.5803 21.5923 59.2303 21.1923 59.8802 20.8023C64.6667 17.9881 69.8186 15.848 75.1902 14.4423C77.3939 13.8626 79.6271 13.4019 81.8803 13.0623C86.1303 11.5923 91.8203 13.1523 95.6303 16.0623C100.75 19.9723 104.36 25.6723 110 28.8323C112.44 30.2023 115.16 31.0323 117.67 32.2823C124.927 35.907 129.929 42.8772 131.04 50.9123C131.07 51.1923 131.12 51.4723 131.12 51.7423C131.22 52.7423 131.22 53.7423 131.22 54.7423C131.279 57.66 130.915 60.5864 130.551 63.5138C130.237 66.0443 129.922 68.5755 129.88 71.1023C129.887 71.9749 129.944 72.8463 130.05 73.7123C131.15 82.3723 136.94 90.0823 139.05 98.3723C140.131 98.3557 141.211 98.4259 142.28 98.5823C143.031 98.6843 143.773 98.8414 144.5 99.0523L142.08 62.6724L141.79 58.4624L141.79 57.6924L142.12 57.4824L141.93 57.1724L141.83 57.0124C138.7 52.0124 134.39 45.1424 131.19 40.1424C127.42 34.2624 129.49 26.3124 131.26 21.7224C131.74 20.4526 132.298 19.2135 132.93 18.0124C133.153 15.9955 133.487 13.9924 133.93 12.0123C134.551 8.66333 135.713 5.43774 137.37 2.46234C137.399 2.42964 137.423 2.3925 137.44 2.35234C137.874 1.67677 138.395 1.06146 138.99 0.522339C139.222 0.302414 139.503 0.141235 139.81 0.0523376C141.06 -0.317673 142.05 1.31233 142.81 3.73233C144.12 7.94234 144.73 14.3623 144.93 16.9423C144.964 17.2398 144.787 17.4012 144.653 17.524C144.466 17.6943 144.361 17.7904 145.01 18.0723C146.128 18.5576 147.207 19.1258 148.24 19.7723C162.84 28.8023 153.84 46.0523 153.84 46.0523L155.69 53.8423L156.01 55.1623C159.67 56.0023 163.56 58.2823 167.07 63.1623C167.07 63.1623 166.63 72.3323 167.07 74.8523C167.236 75.8009 166.852 76.7452 166.468 77.6879C165.833 79.2497 165.199 80.8071 167.07 82.3723C170.07 84.8823 167.07 93.2323 167.07 93.2323C167.07 93.2323 170.5 99.0823 172.66 100.752C174.82 102.422 176.99 116.212 172.66 119.132C168.33 122.052 160.11 128.762 160.11 131.662C160.11 134.562 149.73 141.662 149.73 141.662C149.73 141.662 146.24 153.762 141.5 162.122ZM29.5601 289.812L31.3601 289.812C31.1501 290.202 30.9501 290.602 30.7501 291.002C30.6301 291.242 30.5101 291.472 30.4001 291.712C29.7401 293.082 29.1301 294.482 28.6301 295.852C28.8301 294.372 29.0801 292.762 29.3601 291.042C29.4301 290.662 29.5001 290.212 29.5601 289.812ZM24.7002 315.742C24.7047 315.789 24.7047 315.836 24.7002 315.882C24.8102 316.212 24.9202 316.552 25.1202 316.882C25.3202 317.492 25.5102 318.112 25.7002 318.742C25.7802 318.072 25.8702 317.372 25.9602 316.652C26.0002 316.292 26.0902 315.932 26.0902 315.552C26.0956 315.492 26.0956 315.432 26.0902 315.372C26.1503 314.912 26.2103 314.442 26.2603 313.972L26.2603 313.642L26.1302 313.642C25.4902 313.876 24.2402 314.272 24.2402 314.272C24.2745 314.396 24.3581 314.413 24.4408 314.429C24.5992 314.461 24.754 314.492 24.5502 315.272L24.7002 315.742Z" id="Shape" fill="url(#gradient_2)" fill-rule="evenodd" stroke="none" />
      <path d="M26.9909 59.5623L16.1909 63.3823L12.2709 56.8823C9.27094 51.8823 5.11096 45.0423 2.04095 40.0723C-3.37906 31.3323 3.71094 18.0123 3.71094 18.0123C3.71094 18.0123 4.99091 4.64224 9.5509 0.522247C14.1109 -3.59775 15.3809 18.0123 15.3809 18.0123C33.6909 26.3322 23.8809 45.9023 23.8809 45.9023L25.6609 53.6623L26.9909 59.5623Z" transform="translate(127.5093 2.020142)" id="Shape" fill="#EFB7B9" stroke="none" />
      <path d="M14.72 6.26013L3.91998 10.0801L0 3.58014L0 3.01013C0 3.01013 6.19 -1.23987 13.41 0.360138L14.72 6.26013Z" transform="translate(139.7803 55.32214)" id="Shape" fill="#000000" fill-opacity="0.1" stroke="none" />
      <path d="M0 48.8156L5.40997 44.2356L2.69995 3.01559C2.69995 3.01559 16.7 -6.56439 27.0599 8.4256C27.0599 8.4256 26.64 17.5856 27.0599 20.0856C27.4799 22.5856 24.15 25.0856 27.0599 27.5756C29.9699 30.0656 27.0599 38.4056 27.0599 38.4056C27.0599 38.4056 30.3499 44.2356 32.4299 45.8956C34.5099 47.5556 36.5999 61.3056 32.4299 64.2156C28.2599 67.1256 20.44 73.7956 20.44 76.7056C20.44 79.6155 10.44 86.7056 10.44 86.7056L1.65997 75.0956L0 48.8156Z" transform="translate(137.0603 56.56677)" id="Shape" fill="#FF6484" stroke="none" />
      <path d="M15.1712 53.11C-5.00879 44.55 -0.528809 23.64 3.27121 13.11C4.03061 10.9765 4.92233 8.89246 5.94122 6.87L17.2612 0C17.2612 0 19.5712 5.89001 22.0412 13.79C27.7712 32.17 34.3612 61.26 15.1712 53.11L15.1712 53.11Z" transform="translate(4.888916 302.4923)" id="Shape" fill="#EFB7B9" stroke="none" />
      <path d="M26.42 5.4079C25.0538 8.07031 24.0451 10.9014 23.42 13.8279C22.4211 18.5363 21.9847 23.3466 22.12 28.1579C22.2 31.4879 22.48 33.6679 22.48 33.6679L0 49.1279C0 49.1279 0.130005 47.3179 0.350006 44.658C0.929993 37.5779 2.14001 24.438 3.28 22.738C4.07001 21.558 4.62 16.818 4.97 12.418C5.32001 8.01794 5.45999 4.15796 5.45999 4.15796C5.45999 4.15796 32.51 -5.98206 26.42 5.4079L26.42 5.4079Z" transform="translate(21.38013 540.9844)" id="Shape" fill="#EFB7B9" stroke="none" />
      <path d="M22.0275 2.03003C22.0275 2.03003 22.0275 6.33002 21.8675 11.33C21.7075 16.33 21.4075 22.23 20.7775 24.98C20.1975 27.5001 20.1575 32.1301 20.2675 36.4C20.4175 41.4 20.7775 45.9 20.7775 45.9C20.7775 45.9 -2.17252 24.2 0.167511 22.48C0.797516 22.02 1.41751 20.17 1.98752 17.71C2.68753 14.71 3.31751 10.71 3.78751 7.31C4.3475 3.26001 4.69751 0 4.69751 0L22.0275 2.03003Z" transform="translate(78.86279 555.4523)" id="Shape" fill="#EFB7B9" stroke="none" />
      <path d="M21.4001 5.40796C20.0339 8.07037 19.0252 10.9015 18.4001 13.8279C12.247 13.6664 6.10587 13.1959 0 12.4179C0.339996 8.11792 0.48999 4.1579 0.48999 4.1579C0.48999 4.1579 27.4901 -5.98199 21.4001 5.40796L21.4001 5.40796Z" transform="translate(26.40015 540.9843)" id="Shape" fill="#000000" fill-opacity="0.1" stroke="none" />
      <path d="M18.24 2.01001C18.24 2.01001 18.24 6.31 18.08 11.31C10.92 13.14 3.56 9.47998 0 7.31C0.559998 3.26001 0.910004 0 0.910004 0L18.24 2.01001Z" transform="translate(82.65015 555.4723)" id="Shape" fill="#000000" fill-opacity="0.1" stroke="none" />
      <path d="M130.097 89.3478C120.937 109.348 117.187 133.068 117.187 133.068L113.857 153.068C113.857 153.068 115.527 161.808 113.857 165.138C112.187 168.468 108.857 173.888 108.857 173.888C108.857 173.888 111.357 194.288 108.857 196.368C106.357 198.448 108.857 210.938 108.857 210.938L100.527 252.938L88.8673 307.058C77.6273 316.228 62.6673 304.568 62.6673 304.568L65.9673 269.178C65.9673 269.178 70.9673 207.178 68.8873 204.638C66.8073 202.098 69.7172 194.228 69.7172 194.228C69.7172 194.228 72.6373 186.728 70.5573 183.818C68.4772 180.908 70.9673 174.658 70.9673 174.658C70.9673 174.658 70.1373 149.258 72.6373 143.428C75.1373 137.598 72.6373 101.538 72.6373 101.538L71.6373 90.3078L71.0573 84.0879L71.0073 83.4779C71.0073 83.4779 70.6273 85.9679 70.0073 89.8279C68.1673 101.578 64.2473 125.928 62.6973 130.938C61.6436 134.548 60.2124 138.038 58.4273 141.348C56.6422 144.658 60.5873 153.838 58.4273 157.168C56.2673 160.498 58.0973 164.248 58.0973 164.248C58.0973 164.248 60.1773 174.658 53.9273 178.818C47.6773 182.978 53.9273 185.068 53.9273 185.068C53.9273 185.068 49.3473 195.068 47.6873 199.218C46.0273 203.368 47.6873 209.218 47.6873 209.218L44.3573 242.938C44.3573 242.938 41.4373 257.088 41.8573 266.668C42.2773 276.248 38.1073 298.308 38.1073 298.308C38.1073 298.308 6.0473 298.308 1.1073 294.558C-3.8327 290.808 9.35727 254.228 9.35727 254.228C9.35727 254.228 13.1073 190.108 12.2673 188.448C11.4273 186.788 12.2673 174.288 15.1873 171.798C18.1073 169.308 15.1873 164.298 15.1873 164.298C15.1873 164.298 14.3573 154.298 15.1873 151.808C16.0173 149.318 15.0573 140.978 15.0573 140.978C15.0573 140.978 12.2673 120.578 11.8573 108.918C11.4473 97.2577 9.35727 71.0377 9.35727 71.0377C9.35727 71.0377 11.5373 54.8177 11.8673 47.0977C11.9873 44.2577 13.2573 40.7077 14.8673 37.3677C16.6693 33.5965 18.7414 29.9603 21.0673 26.4876C23.3932 23.015 119.717 -2.67224 123.857 0.227753C124.957 0.997742 126.557 6.22775 128.137 13.7978C132.537 34.9477 136.837 74.6477 130.097 89.3478L130.097 89.3478Z" transform="translate(17.78296 255.4346)" id="Shape" fill="#444053" stroke="none" />
      <path d="M0 28.73C0 12.8629 12.8629 0 28.73 0C44.5971 0 57.46 12.8629 57.46 28.73C57.46 44.5971 44.5971 57.46 28.73 57.46C12.8629 57.46 0 44.5971 0 28.73Z" transform="translate(58.37012 32.85229)" id="Circle" fill="#A1616A" stroke="none" />
      <path d="M113.28 13.8178C109.97 15.5179 107.75 16.6878 107.75 16.6878C107.75 16.6878 61.12 38.7579 47.86 37.5079C37.6 36.5079 11.41 37.0779 0 37.3578C1.80206 33.5866 3.87415 29.9505 6.20004 26.4778C8.52594 23.0051 104.86 -2.67215 109 0.227844C110.1 1.01785 111.7 6.22784 113.28 13.8178L113.28 13.8178Z" transform="translate(32.64014 255.4344)" id="Shape" fill="#000000" fill-opacity="0.1" stroke="none" />
      <path d="M56.2621 7.34097C56.2621 7.34097 29.6521 11.541 23.3721 15.661C17.0921 19.781 4.65207 27.741 4.65207 44.811C4.65207 61.881 1.74207 79.371 0.0720825 84.361C-1.5979 89.351 26.3021 129.741 26.3021 129.741L16.3021 190.951C16.3021 190.951 56.3021 189.701 69.6221 190.951C82.9421 192.201 129.552 170.131 129.552 170.131C129.552 170.131 157.032 155.561 162.862 155.131C168.692 154.701 151.202 123.071 151.202 123.071C151.202 123.071 124.132 71.871 128.712 63.541C133.292 55.211 136.652 43.141 136.652 43.141L131.652 0.681C131.652 0.681 124.162 -1.819 117.912 2.76099C111.662 7.34097 90.4321 4.84097 90.4321 4.84097L56.2621 7.34097Z" transform="translate(10.84814 100.1213)" id="Shape" fill="#FF6484" stroke="none" />
      <path d="M17.91 20.6118L7.47 23.5218L4.57999 62.7018C4.57999 62.7018 8.32999 73.1118 4.57999 76.4418C0.829987 79.7718 0 150.972 0 150.972C0 150.972 12.08 159.712 26.23 153.052C26.23 153.052 24.15 145.142 30.4 116.412C36.65 87.6818 36.64 73.1118 36.64 73.1118C36.64 73.1118 36.64 37.3018 39.56 31.4718C42.48 25.6418 39.56 11.0718 39.56 11.0718C39.56 11.0718 33.73 3.16183 34.14 0.251831C34.55 -2.65817 17.91 20.6118 17.91 20.6118L17.91 20.6118Z" transform="translate(4.030273 160.9606)" id="Shape" fill="#000000" fill-opacity="0.1" stroke="none" />
      <path d="M18.77 13.79C12.6389 15.8542 5.96561 15.6124 0 13.11C0.759399 10.9765 1.65112 8.89246 2.67001 6.86999L13.99 0C13.99 0 16.34 5.88995 18.77 13.79L18.77 13.79Z" transform="translate(8.160155 302.5223)" id="Shape" fill="#000000" fill-opacity="0.1" stroke="none" />
      <path d="M17.9 20.6515L7.48999 23.5615L4.57999 62.7415C4.57999 62.7415 8.32999 73.1515 4.57999 76.4814C0.829987 79.8114 0 151.011 0 151.011C0 151.011 12.09 159.741 26.23 153.051C26.23 153.051 24.15 145.141 30.39 116.411C36.63 87.6814 36.64 73.1115 36.64 73.1115C36.64 73.1115 36.64 37.3015 39.55 31.4714C42.46 25.6414 39.55 11.0714 39.55 11.0714C39.55 11.0714 33.72 3.16144 34.14 0.251434C34.56 -2.65857 17.9 20.6515 17.9 20.6515L17.9 20.6515Z" transform="translate(3.410156 160.9209)" id="Shape" fill="#FF6484" stroke="none" />
      <path d="M21.24 0C21.24 0 15.83 46.63 0 55.38C-3.05176e-05 55.38 35.39 45.39 21.24 0L21.24 0Z" transform="translate(106.6602 187.8124)" id="Shape" fill="#000000" fill-opacity="0.1" stroke="none" />
      <path d="M0 0C0 0 19.56 9.57001 15 16.23C10.44 22.89 0 0 0 0L0 0Z" transform="translate(48.38013 191.9823)" id="Shape" fill="#000000" fill-opacity="0.1" stroke="none" />
      <path d="M0 0C0 0 12.49 12.91 10 17.49C7.51001 22.07 0 0 0 0L0 0Z" transform="translate(48.38013 211.1323)" id="Shape" fill="#000000" fill-opacity="0.1" stroke="none" />
      <path d="M0 0C0 0 4.90002 8.32001 5.37 13.74C5.83997 19.16 0 0 0 0L0 0Z" transform="translate(149.1301 104.1323)" id="Shape" fill="#000000" fill-opacity="0.1" stroke="none" />
      <path d="M0 0.928894C0 0.928894 2.46002 -1.1611 8.73999 0.928894C15.02 3.01889 0 0.928894 0 0.928894L0 0.928894Z" transform="translate(149.1301 91.9635)" id="Shape" fill="#000000" fill-opacity="0.1" stroke="none" />
      <path d="M36.28 8.89996C25.964 10.3635 15.4442 9.01605 5.82999 4.99994L0.579987 18.4399L0 12.22C0.859985 7 2.53 1.40997 5.82999 0C5.83002 -6.10352e-05 17.39 9.20996 36.28 8.89996L36.28 8.89996Z" transform="translate(88.8103 327.3423)" id="Shape" fill="#000000" fill-opacity="0.1" stroke="none" />
      <path d="M0 0C0 0 25.61 5.31 32.79 4.37L0 0Z" transform="translate(39.68018 353.7323)" id="Shape" fill="#000000" fill-opacity="0.1" stroke="none" />
      <path d="M0 0.0423584C0 0.0423584 10.93 -0.427612 16.39 1.76233L0 0.0423584Z" transform="translate(42.34009 360.4)" id="Shape" fill="#000000" fill-opacity="0.1" stroke="none" />
      <path d="M0 0C4.98697 1.05945 10.049 1.72815 15.14 2L0 0Z" transform="translate(43.59009 364.9723)" id="Shape" fill="#000000" fill-opacity="0.1" stroke="none" />
      <path d="M0 3.0116C0.470001 2.7016 21.86 -2.2984 24.52 1.29163L0 3.0116Z" transform="translate(42.96021 419.2607)" id="Shape" fill="#000000" fill-opacity="0.1" stroke="none" />
      <path d="M0 0.973328C0 0.973328 18.58 -1.21667 19.05 0.973328C19.52 3.16333 0 0.973328 0 0.973328L0 0.973328Z" transform="translate(42.96021 427.8589)" id="Shape" fill="#000000" fill-opacity="0.1" stroke="none" />
      <path d="M0 3.25714C0 3.25714 19.83 -0.842834 22.17 0.157166C24.51 1.15717 0 3.25714 0 3.25714L0 3.25714Z" transform="translate(42.96021 431.5051)" id="Shape" fill="#000000" fill-opacity="0.1" stroke="none" />
      <path d="M22.48 8.34143L0 23.8015C0 23.8015 0.130005 21.9915 0.350006 19.3315C5.35001 7.03149 11.86 0.541504 11.86 0.541504C16.93 -0.778503 20.13 0.441528 22.12 2.83148C22.2 6.15143 22.48 8.34143 22.48 8.34143L22.48 8.34143Z" transform="translate(21.42017 566.3209)" id="Shape" fill="#000000" fill-opacity="0.1" stroke="none" />
      <path d="M34.2383 21.6172C31.0616 28.8645 29.4629 36.7046 29.5483 44.6172C29.6749 51.1053 28.0292 57.5051 24.7883 63.1273C24.3194 63.9194 23.7912 64.6749 23.2083 65.3873C22.6254 66.0997 7.58832 65.2573 2.11832 60.7273C1.50372 60.2408 1.00217 59.6266 0.648346 58.9272C-2.48166 52.6872 6.73834 28.7972 6.73834 28.7972C11.5783 10.3772 21.4084 0.53717 21.4084 0.53717C38.9183 -3.9928 34.2383 21.6172 34.2383 21.6172L34.2383 21.6172Z" transform="translate(11.85181 566.9351)" id="Shape" fill="#444053" stroke="none" />
      <path d="M22.67 34.1701C22.2011 34.9622 21.6729 35.7177 21.09 36.4301C20.5071 37.1425 5.47 36.3001 0 31.7701C2.69 22.8701 11.27 -4.05988 15.29 0.520142C19.07 4.82013 21.7 25.5101 22.67 34.1701L22.67 34.1701Z" transform="translate(13.97021 595.8422)" id="Shape" fill="#000000" fill-opacity="0.1" stroke="none" />
      <path d="M1.09 2.20001L0 42.54L5.23999 42.54C5.23999 42.54 6.09 7.15002 8.42999 2.20001C10.77 -2.75 1.09 2.20001 1.09 2.20001L1.09 2.20001Z" transform="translate(33.41016 595.8323)" id="Shape" fill="#444053" stroke="none" />
      <path d="M20.7775 28.3321C20.7775 28.3321 -2.17252 6.63208 0.167511 4.91211C0.797516 4.45209 1.41751 2.60211 1.98752 0.14209C6.39752 -0.62793 13.9875 1.2121 20.2675 18.8321C20.4175 23.8321 20.7775 28.3321 20.7775 28.3321L20.7775 28.3321Z" transform="translate(78.86279 573.0202)" id="Shape" fill="#000000" fill-opacity="0.1" stroke="none" />
      <path d="M30.0803 51.8962C29.9042 51.972 29.7195 52.0257 29.5303 52.0562C26.8303 52.5262 16.8803 52.2562 11.3103 52.0562C9.18909 51.9862 7.50452 50.2485 7.50027 48.1262C7.50027 46.6262 7.50027 44.7962 7.38028 42.8462C7.12027 36.6862 6.38028 29.3562 4.17029 27.7062C0.260284 24.7062 -2.82971 14.5262 4.17029 1.63617C4.17029 1.63617 17.5903 -8.61383 27.2703 22.1962C27.2703 22.1962 28.2103 30.9861 32.4203 34.1061C36.6303 37.2261 31.9603 51.0062 30.0803 51.8962L30.0803 51.8962Z" transform="translate(72.98999 573.6561)" id="Shape" fill="#444053" stroke="none" />
      <path d="M22.15 26.1078C19.45 26.5778 9.5 26.3078 3.92999 26.1078C1.80881 26.0378 0.124237 24.3001 0.119995 22.1778C0.119995 20.6778 0.119995 18.8478 0 16.8978C1.69 9.43774 4.12 1.75775 7.25 0.00775147C7.26999 -0.00219727 16.74 -1.0722 22.15 26.1078L22.15 26.1078Z" transform="translate(80.3501 599.6045)" id="Shape" fill="#000000" fill-opacity="0.1" stroke="none" />
      <path d="M0 2.86005L2.52002 36.4301L5.72 36.4301L5.72 0L0 2.86005L0 2.86005Z" transform="translate(78.86011 595.8423)" id="Polygon" fill="#444053" stroke="none" />
      <path d="M56.98 0.0760193C47.9086 0.751282 39.1275 3.57207 31.36 8.30603C29.36 9.51604 27.36 10.986 26.53 13.156C25.81 15.036 26.11 17.1561 26.14 19.1561C26.41 36.3761 7.20999 49.4061 7.81 66.616C8.04999 73.446 11.48 79.806 12.11 86.6161C13.16 97.976 6.43997 108.426 0 117.836C6.6348 118.24 13.1703 116.073 18.25 111.786C25.0454 134.436 25.9233 158.45 20.8 181.536L30.01 181.536C30.9196 181.47 31.8334 181.582 32.7 181.866C33.5082 182.25 34.2322 182.79 34.83 183.456C43.44 192.026 49.21 204.696 45.92 216.396L65.52 209.046C70.21 207.286 74.97 205.496 79.05 202.596C83.13 199.696 86.55 195.486 87.41 190.546C87.94 187.546 87.77 183.966 90.24 182.226C91.4569 181.579 92.7551 181.098 94.1 180.796C99.48 178.896 101.86 172.676 102.96 167.076C104.299 160.205 104.72 153.187 104.21 146.206C103.34 134.506 99.88 122.626 102.73 111.206C104.34 104.796 107.92 98.826 108.21 92.206C108.68 81.296 100.15 71.896 98.88 61.046C97.99 53.486 100.72 45.836 99.83 38.276C98.8271 30.3568 94.0231 23.4251 86.96 19.706C84.55 18.466 81.96 17.636 79.58 16.266C74.15 13.116 70.68 7.446 65.75 3.54601C60.82 -0.353989 52.61 -1.82399 48.9 3.246L56.98 0.0760193Z" transform="translate(29.7002 15.72632)" id="Shape" fill="#000000" fill-opacity="0.1" stroke="none" />
      <path d="M56.98 0.095993C47.9086 0.771255 39.1275 3.59204 31.36 8.326C29.36 9.53601 27.36 11.006 26.53 13.176C25.81 15.056 26.11 17.176 26.14 19.176C26.41 36.396 7.20999 49.426 7.81 66.646C8.04999 73.466 11.48 79.826 12.11 86.646C13.16 98.006 6.43997 108.456 0 117.876C6.63287 118.265 13.1631 116.101 18.25 111.826C25.0441 134.47 25.922 158.477 20.8 181.556L30.01 181.556C30.9202 181.493 31.834 181.608 32.7 181.896C33.5099 182.273 34.2346 182.81 34.83 183.476C43.44 192.056 49.21 204.716 45.92 216.416L65.52 209.066C70.21 207.306 74.97 205.516 79.05 202.616C83.13 199.716 86.55 195.506 87.41 190.566C87.94 187.566 87.77 183.986 90.24 182.246C91.4568 181.599 92.7551 181.118 94.0999 180.816C99.4799 178.916 101.86 172.696 102.96 167.096C104.311 160.22 104.742 153.195 104.24 146.206C103.37 134.506 99.91 122.626 102.76 111.206C104.37 104.796 107.95 98.826 108.24 92.206C108.71 81.296 100.18 71.896 98.91 61.046C98.02 53.486 100.75 45.846 99.86 38.276C98.8539 30.358 94.0508 23.4277 86.99 19.706C84.58 18.466 81.99 17.636 79.61 16.276C74.18 13.116 70.71 7.446 65.78 3.54601C60.85 -0.353989 52.64 -1.82399 48.93 3.246L56.98 0.095993Z" transform="translate(29.7002 14.4563)" id="Shape" fill="#925978" stroke="none" />
      <g id="Group" transform="translate(29.7002 29.47229)" opacity="0.1">
        <path d="M1 0C0.330112 0.385361 -0.00356053 0.772552 0 1.16C0.5 0.779999 0.833164 0.389999 1 0L1 0Z" transform="translate(26.06006 0)" id="Shape" fill="#000000" fill-opacity="0.1" stroke="none" />
        <path d="M0.0855103 15.9C0.445496 10.6 1.62549 5.28 1.18549 0C0.85553 5.29999 -0.324463 10.62 0.0855103 15.9L0.0855103 15.9Z" transform="translate(98.7146 24.13)" id="Shape" fill="#000000" fill-opacity="0.1" stroke="none" />
        <path d="M4.31116 18.19C3.73117 11.99 0.841156 6.19 0.161163 0C0.0255432 1.13461 -0.0245972 2.27786 0.0111694 3.42001C0.25116 10.17 3.60117 16.48 4.28116 23.2C4.44641 21.5345 4.45645 19.8573 4.31116 18.19L4.31116 18.19Z" transform="translate(7.798828 48.18994)" id="Shape" fill="#000000" fill-opacity="0.1" stroke="none" />
        <path d="M1.09186 17.31C0.155579 21.3792 -0.181274 25.5634 0.0918579 29.73C0.191528 27.3 0.526428 24.8854 1.09186 22.52C2.70184 16.11 6.28186 10.14 6.57184 3.52002C6.61908 2.34424 6.56555 1.16663 6.41186 0C5.63184 5.95001 2.52185 11.49 1.09186 17.31L1.09186 17.31Z" transform="translate(101.7083 73.69995)" id="Shape" fill="#000000" fill-opacity="0.1" stroke="none" />
        <path d="M18.25 0C14.0791 3.49536 8.91666 5.59393 3.48999 6C2.34998 7.78 1.16998 9.51999 0 11.24C6.63287 11.6293 13.1631 9.46448 18.25 5.19C21.9031 17.3463 23.8615 29.9484 24.07 42.64C24.3667 28.2101 22.4029 13.8226 18.25 -3.05176e-05L18.25 0Z" transform="translate(0 91.55005)" id="Shape" fill="#000000" fill-opacity="0.1" stroke="none" />
        <path d="M57.0399 12.54C55.94 18.14 53.56 24.36 48.18 26.25C46.8332 26.5502 45.5343 27.0348 44.32 27.69C41.85 29.43 42.02 33.03 41.49 36.01C40.63 40.95 37.22 45.1501 33.13 48.01C29.04 50.87 24.29 52.7101 19.6 54.47L0.899994 61.47C0.803009 63.3473 0.501221 65.2083 0 67.02L19.6 59.67C24.29 57.91 29.05 56.12 33.13 53.22C37.21 50.32 40.63 46.11 41.49 41.17C42.02 38.17 41.85 34.59 44.32 32.85C45.5369 32.2028 46.8351 31.7218 48.18 31.42C53.56 29.52 55.94 23.3 57.04 17.7C58.1786 11.8724 58.6516 5.93436 58.45 0C58.3181 4.21124 57.8466 8.40488 57.0399 12.5402L57.0399 12.54Z" transform="translate(45.94995 134.2999)" id="Shape" fill="#000000" fill-opacity="0.1" stroke="none" />
        <path d="M13.99 1.9451C13.395 1.27634 12.6703 0.735382 11.86 0.355103C10.9932 0.071228 10.0802 -0.0441589 9.17001 0.0151062L1 0.0151062C0.679993 1.7551 0.339996 3.49512 0 5.2251L9.20999 5.2251C10.1202 5.16202 11.0341 5.27753 11.9 5.56509C12.7099 5.94174 13.4346 6.47931 14.03 7.14508C20.33 13.4251 25.1 21.8851 25.92 30.5651C26.93 20.1851 21.55 9.5051 13.99 1.9451L13.99 1.9451Z" transform="translate(20.86987 161.2449)" id="Shape" fill="#000000" fill-opacity="0.1" stroke="none" />
      </g>
      <path d="M0 1.38666C0 1.38666 7.44 -1.73334 9.10001 1.38666C10.76 4.50665 0 1.38666 0 1.38666L0 1.38666Z" transform="translate(18.87012 225.3556)" id="Shape" fill="#000000" fill-opacity="0.1" stroke="none" />
      <path d="M0 1.38666C0 1.38666 7.44 -1.73334 9.10999 1.38666C10.78 4.50665 0 1.38666 0 1.38666L0 1.38666Z" transform="translate(21.50024 230.7057)" id="Shape" fill="#000000" fill-opacity="0.1" stroke="none" />
    </g>
    <g id="5f43f84a-a268-4bb5-a31a-6b0c09aee323" transform="translate(717.4624 8.61499)">
      <path d="M33.9283 0.049221C33.9283 0.049221 -4.1217 -2.24078 0.368286 24.4192C0.368286 24.4192 -0.521729 29.1292 3.74829 31.2692C3.74829 31.2692 3.8183 29.2692 7.64832 29.9592C9.01227 30.1888 10.3986 30.2559 11.7783 30.1592C13.6411 30.0302 15.4108 29.2963 16.8183 28.0692L16.8183 28.0692C16.8183 28.0692 27.5083 23.6592 31.6683 6.17922C31.6683 6.17922 34.7483 2.35922 34.6683 1.37922L28.2483 4.12922C28.2483 4.12922 30.4383 8.75922 28.7083 12.6092C28.7083 12.6092 28.5083 4.28922 27.2683 4.48922C27.0183 4.48922 23.9383 6.08922 23.9383 6.08922C23.9383 6.08922 27.7083 14.1592 24.8583 20.0292C24.8583 20.0292 25.9383 10.0892 22.7583 6.67922L18.2183 9.36922C18.2183 9.36922 22.6283 17.6992 19.6383 24.4992C19.6383 24.4992 20.4083 14.0692 17.2683 10.0092L13.1683 13.1992C13.1683 13.1992 17.3183 21.3692 14.8183 27.0092C14.8183 27.0092 14.4883 14.8592 12.3083 13.9492C12.3083 13.9492 8.72827 17.1092 8.18829 18.4092C8.18829 18.4092 11.0183 24.4092 9.2583 27.5092C9.2583 27.5092 8.17828 19.4292 7.2583 19.3892C7.2583 19.3892 3.68829 24.7492 3.3183 28.3892C3.49182 24.9927 4.55011 21.7006 6.38831 18.8392C4.32886 19.229 2.42987 20.2168 0.928284 21.6792C-0.573303 23.1416 1.47827 17.8892 7.26831 17.5492C7.26831 17.5492 10.2183 13.4892 11.0083 13.2392C11.0083 13.2392 5.24829 12.7592 1.7583 14.3092C1.7583 14.3092 4.82831 10.7292 12.0683 12.3092L16.0683 9.00922C16.0683 9.00922 8.48828 8.00922 5.26831 9.11922C5.26831 9.11922 8.96832 5.95922 17.1583 8.25922L21.5583 5.62922C21.5583 5.62922 15.0983 4.22921 11.2484 4.73922C11.2484 4.73922 15.3083 2.54922 22.8483 4.91922L25.9984 3.50922C25.9984 3.50922 21.2584 2.57922 19.8784 2.42921C18.4984 2.27921 18.4183 1.89922 18.4183 1.89922C21.4171 1.40012 24.4955 1.7464 27.3083 2.89921C30.1212 4.05202 34.0383 0.469219 33.9283 0.049221L33.9283 0.049221Z" transform="translate(75.81934 21.5708)" id="Shape" fill="#6C63FF" fill-opacity="0.1" stroke="none" />
      <path d="M18.8397 0C18.8397 0 -13.1603 20.71 6.2497 39.52C6.2497 39.52 8.3197 43.84 13.0297 43.04C13.0297 43.04 11.9097 41.4 15.3997 39.67C16.637 39.047 17.7952 38.2782 18.8497 37.38C20.2748 36.1716 21.2681 34.5325 21.6797 32.71L21.6797 32.71C21.6797 32.71 27.6797 22.81 20.6797 6.27C20.6797 6.27 20.8997 1.37 20.2197 0.650003L16.6797 6.65C16.6797 6.65 21.1898 9.08 22.0798 13.2C22.0798 13.2 16.9897 6.63 16.0798 7.52C15.8998 7.7 14.3398 10.79 14.3398 10.79C14.3398 10.79 22.1698 15.05 23.3398 21.46C23.3398 21.46 18.3398 12.81 13.7298 11.96L11.6498 16.76C11.6498 16.76 20.1498 20.86 21.7698 28.11C21.7698 28.11 16.1998 19.25 11.2698 17.84L9.86975 22.84C9.86975 22.84 18.0698 27 19.3798 33.04C19.3798 33.04 11.9197 23.46 9.61975 24.04C9.61975 24.04 8.61975 28.7 8.93976 30.04C8.93976 30.04 14.7598 33.16 15.1998 36.74C15.1998 36.74 9.53979 30.87 8.80975 31.36C8.80975 31.36 9.10974 37.79 10.9797 40.97C9.11011 38.1308 8.01398 34.8527 7.79974 31.46C6.37213 32.994 5.42639 34.9134 5.07977 36.98C4.73315 39.0466 3.27979 33.6 7.74976 29.9C7.74976 29.9 7.74976 24.9 8.19977 24.21C8.19977 24.21 3.27979 27.21 1.37976 30.55C1.37976 30.55 1.73975 25.85 8.52979 22.87L9.82977 17.82C9.82977 17.82 3.1098 21.48 1.19977 24.31C1.19977 24.31 2.30975 19.57 10.2598 16.57L12.2598 11.84C12.2598 11.84 6.25977 14.55 3.41974 17.24C3.41974 17.24 5.41974 13.06 12.8798 10.51L14.5798 7.51001C14.5798 7.51001 10.2098 9.57001 9.00977 10.27C7.80975 10.97 7.51978 10.71 7.51978 10.71C9.63861 8.53012 12.3219 6.98245 15.2698 6.24C18.2177 5.49755 19.1797 0.280001 18.8397 0L18.8397 0Z" transform="translate(36.67773 0)" id="Shape" fill="#6C63FF" fill-opacity="0.1" stroke="none" />
      <path d="M6.8175 0.0899925C6.8175 0.0899925 -12.3125 33.09 13.5175 41.02C13.5175 41.02 17.3275 43.93 21.1575 41.02C21.1575 41.02 19.4276 40.08 21.7476 36.95C22.5535 35.8328 23.2248 34.6245 23.7475 33.35C24.4703 31.6255 24.6141 29.7132 24.1575 27.9L24.1575 27.9C24.1575 27.9 25.0074 16.36 11.2574 4.79C11.2574 4.79 9.25745 0.330002 8.25745 0L7.82745 7C7.82745 7 12.9474 7.12 15.6174 10.39C15.6174 10.39 8.09741 6.84 7.71741 8.03C7.63739 8.27 7.6474 11.73 7.6474 11.73C7.6474 11.73 16.6375 12 20.6375 17.18C20.6375 17.18 12.2375 11.75 7.76752 13.07L8.08752 18.29C8.08752 18.29 17.5175 18.09 22.2475 23.82C22.2475 23.82 13.2475 18.45 8.2475 19.43L9.2475 24.52C9.2475 24.52 18.4475 24.52 22.3475 29.3C22.3475 29.3 11.3475 24.14 9.5575 25.67C9.5575 25.67 10.7675 30.29 11.6875 31.36C11.6875 31.36 18.2875 31.5 20.3075 34.49C20.3075 34.49 12.5975 31.82 12.1675 32.6C12.1675 32.6 15.3575 38.19 18.4675 40.17C15.5167 38.4972 13.0525 36.0846 11.3174 33.17C10.7422 35.1837 10.7701 37.3219 11.3975 39.32C12.0248 41.3181 8.25745 37.13 10.5574 31.8C10.5574 31.8 8.25745 27.34 8.38745 26.53C8.38745 26.53 5.38745 31.46 5.18744 35.27C5.18744 35.27 3.36743 30.92 8.06744 25.19L6.93744 20.09C6.93744 20.09 2.60742 26.4 2.18744 29.79C2.18744 29.79 1.02747 25.06 6.75745 18.79L6.37744 13.68C6.37744 13.68 2.23743 18.83 0.957458 22.5C0.957458 22.5 0.817444 17.88 6.32745 12.21L6.47748 8.75999C6.47748 8.75999 3.47748 12.57 2.76746 13.76C2.05743 14.95 1.63751 14.78 1.63751 14.78C2.53876 11.8737 4.22797 9.27414 6.51752 7.26999C8.80707 5.26584 7.23749 0.179993 6.8175 0.0899925L6.8175 0.0899925Z" transform="translate(0 24.04004)" id="Shape" fill="#6C63FF" fill-opacity="0.1" stroke="none" />
    </g>
    <path d="M0 0L0 14.31L14.31 14.31L40.07 66.49L29.3 84.02C28.1245 86.0934 27.5077 88.4366 27.51 90.82C27.51 100.4 34.06 105.13 42.94 105.13L126.61 105.13L126.61 91.37L44.69 91.37C44.2068 91.3996 43.7341 91.2205 43.3918 90.8782C43.0496 90.5359 42.8705 90.0632 42.9 89.58C43.0887 88.9611 43.3434 88.3643 43.66 87.8L50.8101 76.51L104.12 76.51C109.372 76.5531 114.206 73.6535 116.64 69L142.41 24.69C142.912 23.5648 143.158 22.342 143.13 21.11C143.11 19.2497 142.337 17.4768 140.988 16.1956C139.639 14.9144 137.829 14.2342 135.97 14.31L30.06 14.31L23.26 3.05176e-05L0 0ZM28.619 121.124C30.8339 115.777 36.0519 112.29 41.8397 112.29C49.7338 112.312 56.1277 118.706 56.1497 126.6C56.1497 132.388 52.6632 137.606 47.3159 139.821C41.9686 142.036 35.8137 140.811 31.721 136.719C27.6284 132.626 26.4041 126.471 28.619 121.124ZM97.9902 126.607C97.9866 118.705 104.388 112.296 112.29 112.29C120.188 112.307 126.588 118.702 126.61 126.6C126.61 134.502 120.205 140.908 112.304 140.91C104.402 140.912 97.9939 134.509 97.9902 126.607Z" transform="translate(846.6904 296.635)" id="Shape" fill="#6C63FF" fill-rule="evenodd" stroke="none" />
    <path d="M33 12L21 12L21 0L12 0L12 12L0 12L0 21L12 21L12 33L21 33L21 21L33 21L33 12L33 12Z" transform="translate(907.6699 324.225)" id="Polygon" fill="#EEEEEE" stroke="none" />
  </g>
</svg>