<svg width="877px" height="640px" viewBox="0 0 877 640" version="1.1" xmlns:xlink="http://www.w3.org/1999/xlink" xmlns="http://www.w3.org/2000/svg">
  <g id="undraw_web_shopping_dd4l">
    <path d="M0 0L877 0L877 639.474L0 639.474L0 0Z" id="Background" fill="none" stroke="none" />
    <path d="M0 0L644.725 0L644.725 412.91L0 412.91L0 0Z" transform="translate(0.2753906 0.3654785)" id="Rectangle" fill="#E6E6E6" stroke="none" />
    <path d="M0 0L607.853 0L607.853 336.693L0 336.693L0 0Z" transform="translate(18.71094 52.15479)" id="Rectangle" fill="#EEEEEE" stroke="none" />
    <path d="M0 0L644.725 0L644.725 27.3903L0 27.3903L0 0Z" id="Rectangle" fill="#6C63FF" stroke="none" />
    <path d="M0 5.07657C0 2.27286 2.27286 0 5.07657 0C7.88028 0 10.1531 2.27286 10.1531 5.07657C10.1531 7.88028 7.88028 10.1531 5.07657 10.1531C2.27286 10.1531 0 7.88028 0 5.07657Z" transform="translate(15.27759 8.926758)" id="Circle" fill="#EEEEEE" stroke="none" />
    <path d="M0 5.07657C0 2.27286 2.27286 0 5.07657 0C7.88028 0 10.1531 2.27286 10.1531 5.07657C10.1531 7.88028 7.88028 10.1531 5.07657 10.1531C2.27286 10.1531 0 7.88028 0 5.07657Z" transform="translate(34.54712 8.926758)" id="Circle" fill="#EEEEEE" stroke="none" />
    <path d="M0 5.07657C0 2.27286 2.27286 0 5.07657 0C7.88028 0 10.1531 2.27286 10.1531 5.07657C10.1531 7.88028 7.88028 10.1531 5.07657 10.1531C2.27286 10.1531 0 7.88028 0 5.07657Z" transform="translate(53.81641 8.926758)" id="Circle" fill="#EEEEEE" stroke="none" />
    <path d="M0 0L118.887 0L118.887 128.982L0 128.982L0 0Z" transform="translate(93.50049 79.84766)" id="Rectangle" fill="#E6E6E6" stroke="none" />
    <path d="M0 0L118.887 0L118.887 128.982L0 128.982L0 0Z" transform="translate(263.1926 79.84766)" id="Rectangle" fill="#E6E6E6" stroke="none" />
    <path d="M0 0L118.887 0L118.887 128.982L0 128.982L0 0Z" transform="translate(432.8848 79.84766)" id="Rectangle" fill="#E6E6E6" stroke="none" />
    <path d="M0 0L118.887 0L118.887 128.982L0 128.982L0 0Z" transform="translate(93.50049 232.176)" id="Rectangle" fill="#E6E6E6" stroke="none" />
    <path d="M0 0L118.887 0L118.887 128.982L0 128.982L0 0Z" transform="translate(263.1926 232.176)" id="Rectangle" fill="#E6E6E6" stroke="none" />
    <path d="M0 0L118.887 0L118.887 128.982L0 128.982L0 0Z" transform="translate(432.8848 232.176)" id="Rectangle" fill="#E6E6E6" stroke="none" />
    <path d="M12.1406 8.58777L33.8626 0L36.3884 42.9388C36.3884 42.9388 40.9349 56.073 39.4194 61.1246C39.4194 61.1246 40.4297 69.7124 37.9039 70.2176C35.3781 70.7227 28.3058 71.7331 27.8007 71.2279C27.2955 70.7227 27.2955 69.2072 27.2955 69.2072C27.2955 69.2072 22.2439 72.7433 21.7387 76.7846C21.7387 76.7846 0.521942 83.3517 0.0167236 77.2898C-0.488495 71.2278 10.6251 66.1762 10.6251 66.1762L19.2129 53.042L12.1406 8.58777Z" transform="translate(279.7871 256.7371)" id="Shape" fill="#EEEEEE" stroke="none" />
    <path d="M12.1407 8.58777L33.8627 0L36.3885 42.9388C36.3885 42.9388 40.9349 56.073 39.4195 61.1246C39.4195 61.1246 40.4298 69.7124 37.904 70.2176C35.3782 70.7227 28.3059 71.7331 27.8007 71.2279C27.2955 70.7227 27.2955 69.2072 27.2955 69.2072C27.2955 69.2072 22.2439 72.7433 21.7387 76.7846C21.7387 76.7846 0.521912 83.3517 0.0167236 77.2898C-0.488464 71.2278 10.6251 66.1762 10.6251 66.1762L19.2129 53.042L12.1407 8.58777Z" transform="translate(325.7568 256.7371)" id="Shape" fill="#EEEEEE" stroke="none" />
    <path d="M43.1919 1.7253C43.1919 1.7253 38.5664 14.649 43.9255 20.4772L39.458 35.8297C39.458 35.8297 55.3319 83.4514 50.7965 90.1033C50.7965 90.1033 33.8643 98.5694 0 87.0797L13.7574 33.7132L11.7921 11.1873L14.5133 0.604721L20.5605 0C20.5605 0 16.9322 13.6062 23.5841 15.7227C30.236 17.8392 36.7255 0.339645 36.7255 0.339645L43.1919 1.7253Z" transform="translate(296.8306 97.78442)" id="Shape" fill="#3F3D56" stroke="none" />
    <path d="M0 85.9604L5.83682 88.3481L33.6943 51.7354L42.4496 94.7156L48.2864 93.6543C52.0306 56.5997 55.0837 18.8043 51.3374 0.928574L29.7147 0L19.8982 31.3065L15.1227 52.5313L0 85.9604Z" transform="translate(126.4214 96.98071)" id="Shape" fill="#EEEEEE" stroke="none" />
    <path d="M7.591 0C7.591 0 -0.374817 11.0744 0.0137939 15.543C0.402405 20.0116 5.45386 92.8695 5.45386 92.8695L17.3054 93.4524L13.8082 40.9948L16.7225 26.8118L23.9112 92.8696L38.4828 93.2581L25.4655 7.57726L22.9398 3.05176e-05L7.591 0Z" transform="translate(473.0869 97.6123)" id="Shape" fill="#EEEEEE" stroke="none" />
    <path d="M74.4927 9.94678C72.3776 7.40872 68.742 6.03647 65.2502 5.29486C65.3551 4.97748 54.632 2.7627 54.4526 3.21912L50.4113 0L37.9963 6.44717L31.0191 1.69763L27.7781 2.84784C27.9101 2.27634 17.717 4.04138 17.717 4.04138C15.7699 4.11139 13.2828 4.23325 10.499 4.44739C0.749939 5.1973 0 30.4448 0 30.4448C4.4856 28.6099 9.26825 27.6086 14.1132 27.49L16.7482 57.6921C30.301 56.5297 44.515 57.8824 59.244 61.1918L66.1526 37.4515L82.2419 31.1947C82.2419 31.1947 79.4922 15.9462 74.4927 9.94678L74.4927 9.94678Z" transform="translate(451.2075 266.071)" id="Shape" fill="#3F3D56" stroke="none" />
    <path d="M61.3791 8.19577C59.6364 6.10449 56.6407 4.97382 53.7637 4.36276C53.8501 4.10126 45.0146 2.27637 44.8669 2.65244L41.537 0L31.3075 5.31223L25.5585 1.39877L22.8881 2.3465C22.9969 1.87561 14.5981 3.32993 14.5981 3.32993C12.9937 3.38757 10.9445 3.48801 8.65076 3.66446C0.617889 4.28235 0 25.0853 0 25.0853C3.69598 23.5734 7.63672 22.7484 11.6288 22.6507L13.8 83.5647C24.967 82.6069 36.6788 83.7215 48.8148 86.4483L54.5071 30.8586L67.7641 25.7032C67.7641 25.7032 65.4985 13.1391 61.3791 8.19577L61.3791 8.19577Z" transform="translate(119.062 253.4426)" id="Shape" fill="#EEEEEE" stroke="none" />
    <path d="M152.929 95.049L72.507 111.51L70.674 111.323L0 104.19L0 14.627L86.5159 0L149.275 7.31903L149.298 7.716L149.298 7.90301L152.929 95.049L152.929 95.049Z" transform="translate(460.071 517.5691)" id="Polygon" fill="#E6E6E6" stroke="none" />
    <path d="M82.255 87.333L1.83301 103.794L0 103.607L0 11.791L78.624 0L82.255 87.333L82.255 87.333Z" transform="translate(530.7451 525.2849)" id="Polygon" fill="#000000" fill-opacity="0.1" stroke="none" />
    <path d="M149.298 7.90302L149.275 7.92603L70.674 19.507L0 14.627L86.5159 0L149.275 7.31903L149.298 7.716L149.298 7.90302L149.298 7.90302Z" transform="translate(460.071 517.5691)" id="Polygon" fill="#000000" fill-opacity="0.05" stroke="none" />
    <path d="M0 0L49 0L49 23L0 23L0 0Z" transform="matrix(0.9978817 0.0650548 -0.0650548 0.9978817 469.8001 563.4551)" id="Rectangle" fill="#EEEEEE" stroke="none" />
    <path d="M0 0L26 0L26 8L0 8L0 0Z" transform="matrix(0.9978817 0.0650548 -0.0650548 0.9978817 480.7877 571.6872)" id="Rectangle" fill="#6C63FF" stroke="none" />
    <path d="M152.929 95.049L72.507 111.51L70.674 111.323L0 104.19L0 14.627L86.516 0L149.275 7.31903L149.298 7.716L149.298 7.90301L152.929 95.049L152.929 95.049Z" transform="translate(569.071 517.5691)" id="Polygon" fill="#6C63FF" stroke="none" />
    <path d="M82.255 87.333L1.83301 103.794L0 103.607L0 11.791L78.624 0L82.255 87.333L82.255 87.333Z" transform="translate(639.7451 525.2849)" id="Polygon" fill="#000000" fill-opacity="0.1" stroke="none" />
    <path d="M149.298 7.90302L149.275 7.92603L70.674 19.507L0 14.627L86.516 0L149.275 7.31903L149.298 7.716L149.298 7.90302L149.298 7.90302Z" transform="translate(569.071 517.5691)" id="Polygon" fill="#000000" fill-opacity="0.05" stroke="none" />
    <path d="M0 0L49 0L49 23L0 23L0 0Z" transform="matrix(0.9978817 0.0650548 -0.0650548 0.9978817 578.8001 563.4551)" id="Rectangle" fill="#EEEEEE" stroke="none" />
    <path d="M0 0L26 0L26 8L0 8L0 0Z" transform="matrix(0.9978817 0.0650548 -0.0650548 0.9978817 589.7878 571.6872)" id="Rectangle" fill="#6C63FF" stroke="none" />
    <path d="M17.7707 0C17.7707 0 31.9602 36.6564 5.94598 36.6564C-20.0682 36.6564 46.1498 73.3128 72.164 52.0284C98.1782 30.744 82.8062 29.5616 82.8062 29.5616C82.8062 29.5616 48.5147 33.109 49.6971 2.36496L17.7707 0Z" transform="translate(762.4241 165.6211)" id="Shape" fill="#FFB8B8" stroke="none" />
    <path d="M0 41.8195C0 18.7232 18.7232 0 41.8195 0C64.9158 0 83.6391 18.7232 83.6391 41.8195C83.6391 64.9158 64.9158 83.6391 41.8195 83.6391C18.7232 83.6391 0 64.9158 0 41.8195Z" transform="translate(756.8599 93.01563)" id="Circle" fill="#2F2E41" stroke="none" />
    <path d="M60.9543 0L16.0208 115.881C16.0208 115.881 -6.44604 151.355 1.83118 186.829C10.1084 222.303 32.8544 286.866 32.8544 286.866C32.8544 286.866 50.0369 291.238 48.8544 275.866C47.6719 260.494 49.5913 185.968 31.8544 165.866L103.523 83.9549L105.888 177.37C105.888 177.37 101.158 219.938 102.341 238.858C103.523 257.777 105.888 289.704 105.888 289.704L120.078 287.339C120.078 287.339 139.219 200.245 136.854 171.866C136.854 171.866 180.788 33.9746 135.854 0.865692L60.9543 0Z" transform="translate(712.1455 318.1589)" id="Shape" fill="#2F2E41" stroke="none" />
    <path d="M12.3452 12.5053C12.3452 12.5053 6.55975 11.0322 5.89313 16.3385C5.2265 21.6448 -6.94232 45.2418 5.76239 46.4232C18.4671 47.6046 22.8626 35.7183 24.9904 27.3616C27.1182 19.0049 27.9247 18.5258 29.7014 16.9246C31.4782 15.3235 35.7072 6.55182 30.4009 5.88519C25.0947 5.21857 22.3743 0 22.3743 0C22.3743 0 20.7018 14.6331 12.3452 12.5053L12.3452 12.5053Z" transform="translate(737.5945 592.3269)" id="Shape" fill="#2F2E41" stroke="none" />
    <path d="M10.5029 0.703979C10.5029 0.703979 -0.226746 -0.828857 0.539673 3.00317C1.30609 6.83521 -0.993164 22.9297 0.539673 24.4626C2.07251 25.9954 5.13812 29.061 5.13812 31.3602C5.13812 33.6594 5.90454 41.3235 18.9335 39.0243C31.9624 36.7251 28.8967 25.2289 28.1304 23.6962C27.364 22.1634 18.1671 14.4993 18.9335 9.90082C19.6998 5.30237 15.1014 -2.36163 10.5029 0.703979L10.5029 0.703979Z" transform="translate(816.7937 600.0247)" id="Shape" fill="#2F2E41" stroke="none" />
    <path d="M0 28.966C0 12.9685 12.9685 0 28.966 0C44.9635 0 57.9321 12.9685 57.9321 28.966C57.9321 44.9635 44.9635 57.9321 28.966 57.9321C12.9685 57.9321 0 44.9635 0 28.966Z" transform="translate(770.2295 123.3101)" id="Circle" fill="#FFB8B8" stroke="none" />
    <path d="M80.9438 1.05359C80.9438 1.05359 91.0469 21.0425 60.5942 21.6092C51.2326 21.7834 40.0989 14.9609 35.5029 6.80322C32.7953 1.99722 32.1111 8.63483 27.733 8.14838C19.4415 7.22708 10.5834 10.6667 2.65723 14.8817C0.546021 16.0023 -0.477234 18.4599 0.214966 20.7476C6.22583 40.6915 23.3918 136.628 26.0417 141.852C32.8086 155.191 106.042 132.852 106.042 132.852C107.045 96.5579 93.8717 45.7806 117.042 8.85168C106.727 1.10101 93.5379 -1.74826 80.9438 1.05359L80.9438 1.05359Z" transform="translate(745.9583 191.1729)" id="Shape" fill="#575A89" stroke="none" />
    <path d="M56.593 11.116L35.37 0L6.06299 4.547L0 31.328L15.094 30.747L19.31 20.908L19.31 30.585L26.275 30.317L30.317 14.653L32.844 31.328L57.602 30.822L56.593 11.116L56.593 11.116Z" transform="translate(769.6899 118.886)" id="Polygon" fill="#2F2E41" stroke="none" />
    <path d="M0 16.8745C0 7.55499 7.55499 0 16.8745 0C26.1941 0 33.7491 7.55499 33.7491 16.8745C33.7491 26.1941 26.1941 33.7491 16.8745 33.7491C7.55499 33.7491 0 26.1941 0 16.8745Z" transform="translate(784.0059 70.27148)" id="Circle" fill="#2F2E41" stroke="none" />
    <path d="M5.12152 16.8749C5.12152 8.54771 11.1962 1.46426 19.4272 0.194717C12.8603 -0.810211 6.31488 2.13138 2.70636 7.70923C-0.9021 13.2871 -0.9021 20.4631 2.70636 26.041C6.31488 31.6188 12.8603 34.5604 19.4272 33.5555C11.1965 32.286 5.12189 25.203 5.12152 16.8749L5.12152 16.8749Z" transform="translate(774.4822 65.1355)" id="Shape" fill="#2F2E41" stroke="none" />
    <path d="M152.929 95.049L72.507 111.51L70.674 111.323L0 104.19L0 14.627L86.516 0L149.275 7.319L149.298 7.716L149.298 7.90299L152.929 95.049L152.929 95.049Z" transform="translate(724.071 388.5691)" id="Polygon" fill="#E6E6E6" stroke="none" />
    <path d="M82.255 87.333L1.83301 103.794L0 103.607L0 11.791L78.624 0L82.255 87.333L82.255 87.333Z" transform="translate(794.7451 396.2849)" id="Polygon" fill="#000000" fill-opacity="0.1" stroke="none" />
    <path d="M149.298 7.90298L149.275 7.92599L70.674 19.507L0 14.627L86.516 0L149.275 7.319L149.298 7.716L149.298 7.90298L149.298 7.90298Z" transform="translate(724.071 388.5691)" id="Polygon" fill="#000000" fill-opacity="0.05" stroke="none" />
    <path d="M0 0L49 0L49 23L0 23L0 0Z" transform="matrix(0.9978817 0.0650548 -0.0650548 0.9978817 733.8001 434.4551)" id="Rectangle" fill="#EEEEEE" stroke="none" />
    <path d="M0 0L26 0L26 8L0 8L0 0Z" transform="matrix(0.9978817 0.0650548 -0.0650548 0.9978817 744.7878 442.6872)" id="Rectangle" fill="#6C63FF" stroke="none" />
    <path d="M19.8613 3.05176e-05C19.8613 3.05176e-05 -9.70026 23.6493 3.30682 31.9265C16.3139 40.2037 31.686 0 31.686 0L19.8613 3.05176e-05Z" transform="translate(731.8596 380.1941)" id="Shape" fill="#FFB8B8" stroke="none" />
    <path d="M18.2896 0.196472C16.7583 -1.52927 -2.5777 8.33212 0.289551 21.1965L1.63849 110.331C1.63849 110.331 -5.4563 183.643 12.2806 183.643C30.0176 183.643 27.9246 186.109 30.2895 180.196C32.6545 174.284 33.2896 124.196 33.2896 124.196L18.2896 0.196472Z" transform="translate(734.7104 204.8279)" id="Shape" fill="#575A89" stroke="none" />
    <path d="M0 3.05176e-05C0 3.05176e-05 15.3721 40.2038 28.3791 31.9265C41.3862 23.6492 11.8246 0 11.8246 0L0 3.05176e-05Z" transform="translate(844.4546 372.1941)" id="Shape" fill="#FFB8B8" stroke="none" />
    <path d="M10 125.196C10 125.196 2.63501 174.284 5 180.196C7.36499 186.109 5.27197 183.643 23.0089 183.643C40.7458 183.643 33.651 110.331 33.651 110.331L35 21.1965C37.8673 8.33212 18.5313 -1.52927 17 0.196472L0 58.1965L10 125.196Z" transform="translate(838 196.8281)" id="Shape" fill="#575A89" stroke="none" />
  </g>
</svg>