<?xml version="1.0" encoding="utf-8"?>
<svg width="902px" height="703px" viewBox="0 0 902 703" version="1.1" xmlns:xlink="http://www.w3.org/1999/xlink" xmlns="http://www.w3.org/2000/svg">
  <g id="undraw_pay_online_b1hk">
    <path d="M0 0L902 0L902 702.007L0 702.007L0 0Z" id="Background" fill="none" stroke="none" />
    <path d="M8.17365 35.2744C-4.80939 59.3519 1.54779 88.3411 1.61353 88.6306L1.91217 89.9507L3.17932 89.4757C3.45776 89.3708 31.1718 78.7526 44.1543 54.6763C57.1373 30.5989 50.7802 1.60962 50.7144 1.32019L50.4152 0L49.1486 0.475037C48.8702 0.579956 21.1566 11.1981 8.17365 35.2744ZM10.2525 36.3952C21.2178 16.0605 43.127 5.6095 48.6782 3.22156L48.6782 3.22156C49.7338 9.1723 53.0413 33.2197 42.0754 53.5556C31.0992 73.9122 9.19867 84.3471 3.64972 86.7292C2.59473 80.782 -0.713928 56.7322 10.2525 36.3952Z" transform="translate(793.0981 564.2322)" id="Shape" fill="#3F3D56" fill-rule="evenodd" stroke="none" />
    <path d="M32.3168 9.82599C8.98553 23.8628 0 51.7438 0 51.7438C0 51.7438 28.8418 56.8666 52.173 42.8298C75.5042 28.793 84.4897 0.911987 84.4897 0.911987C84.4897 0.911987 55.6479 -4.21082 32.3168 9.82599L32.3168 9.82599Z" transform="translate(795.0142 600.637)" id="Shape" fill="#D0CDE1" stroke="none" />
    <path d="M0 0L733 0L733 2L0 2L0 0Z" transform="translate(169 652.2925)" id="Rectangle" fill="#3F3D56" stroke="none" />
    <path d="M156.608 0.027771L166.608 155.028C166.608 155.028 190.608 216.028 189.608 274.028C189.608 274.028 180.608 297.028 187.608 301.028C194.608 305.028 198.608 308.028 194.608 311.028C190.608 314.028 187.608 321.028 190.608 323.028C193.608 325.028 194.608 328.028 193.608 328.028L163.608 328.028C163.608 328.028 169.608 313.028 160.608 309.028C151.608 305.028 156.608 295.028 156.608 295.028L89.6083 99.0278L36.6083 279.028C36.6083 279.028 45.6083 285.028 38.6083 288.028C31.6083 291.028 28.6083 285.028 31.6083 291.028C34.6083 297.028 30.6083 300.028 30.6083 301.028C30.6083 302.028 0.608276 298.028 0.608276 298.028C0.608276 298.028 15.6083 285.028 8.60828 282.028C1.60828 279.028 -1.39172 276.028 0.608276 274.028C2.60828 272.028 10.6083 253.028 10.6083 253.028C10.6083 253.028 14.6083 181.028 15.6083 178.028C16.6083 175.028 15.6083 161.028 15.6083 154.028C15.6083 147.028 14.6083 119.028 17.6083 112.028C20.6083 105.028 23.6083 19.0278 39.6083 9.02777C55.6083 -0.972229 156.608 0.027771 156.608 0.027771L156.608 0.027771Z" transform="translate(441.4023 315.9973)" id="Shape" fill="#2F2E41" stroke="none" />
    <path d="M79.0151 2.27802C79.0151 2.27802 99.0151 43.278 85.0151 48.278C71.0151 53.278 53.0151 49.278 49.0151 55.278C45.0151 61.278 1.01508 68.278 0.0150757 53.278C-0.984924 38.278 48.0151 10.278 48.0151 10.278L54.398 0L79.0151 2.27802Z" transform="translate(391.9956 609.7471)" id="Shape" fill="#2F2E41" stroke="none" />
    <path d="M79.0151 2.27802C79.0151 2.27802 99.0151 43.278 85.0151 48.278C71.0151 53.278 53.0151 49.278 49.0151 55.278C45.0151 61.278 1.01508 68.278 0.0150757 53.278C-0.984924 38.278 48.0151 10.278 48.0151 10.278L54.398 0L79.0151 2.27802Z" transform="translate(553.9956 639.7471)" id="Shape" fill="#2F2E41" stroke="none" />
    <path d="M0 33C0 14.7746 14.7746 0 33 0C51.2254 0 66 14.7746 66 33C66 51.2254 51.2254 66 33 66C14.7746 66 0 51.2254 0 33Z" transform="translate(507.5105 61.52515)" id="Circle" fill="#A0616A" stroke="none" />
    <path d="M42 0L38 29L8 52L0 41L0 3L42 0L42 0Z" transform="translate(521.011 112.0249)" id="Polygon" fill="#A0616A" stroke="none" />
    <path d="M39 8C39 8 70 11 86 0L118 189C118 189 5 198 0 192L0 133L20 37L39 8Z" transform="translate(477.0105 141.0251)" id="Shape" fill="#3F3D56" stroke="none" />
    <path d="M29.3708 0L40.1245 9.03619C40.1245 9.03619 84.1244 16.0362 81.1245 28.0362L69.1245 170.036L73.1245 218.036C73.1245 218.036 39.1245 209.036 13.1245 218.036C-12.8755 227.036 7.78094 24.6329 7.78094 24.6329C7.78094 24.6329 31.6172 2.96379 29.3708 0L29.3708 0Z" transform="translate(530.886 131.989)" id="Shape" fill="#D0CDE1" stroke="none" />
    <path d="M53 0C53 0 21 23.0905 17 38.0905C13 53.0905 0 211.091 0 211.091C0 211.091 6 208.091 9 213.091C12 218.091 58 7.90945 53 0L53 0Z" transform="translate(468.0105 142.9346)" id="Shape" fill="#D0CDE1" stroke="none" />
    <path d="M2.513 51.3511C2.513 51.3511 -1.05945 45.9924 0.314575 40.2216C1.13556 36.9451 1.45978 33.5639 1.27637 30.1912C1.09296 26.8184 4.1618 20.8479 7.04724 15.6266C9.93268 10.4053 8.55865 8.20686 17.6273 6.55804C26.6959 4.90923 22.986 -6.90736 46.8939 5.87105C48.5433 8.17401 51.4165 9.25822 54.1762 8.61905C59.1227 7.65724 60.9089 14.5273 60.9089 14.5273C60.9089 14.5273 64.2066 12.6037 65.4432 15.3518C66.6797 18.0998 75.4972 13.7024 75.4972 32.2518C75.4972 50.8011 65.4633 67.3703 65.4633 67.3703C65.4633 67.3703 66.1989 36.1682 49.848 33.0079C33.4971 29.8477 15.9097 20.6418 11.6503 32.4583C9.35101 39.0904 6.28448 45.431 2.513 51.3511L2.513 51.3511Z" transform="translate(505.0134 41.73633)" id="Shape" fill="#2F2E41" stroke="none" />
    <path d="M0 4.30023C0 1.92528 1.44396 0 3.22517 0C5.00638 0 6.45034 1.92528 6.45034 4.30023C6.45034 6.67518 5.00638 8.60046 3.22517 8.60046C1.44396 8.60046 0 6.67518 0 4.30023Z" transform="translate(567.6099 91.90576)" id="Ellipse" fill="#A0616A" stroke="none" />
    <path d="M21.0809 4.22519C13.1681 -0.533264 3.62708 -0.1698 0 0.193634C1.38129 3.56595 5.52576 12.1676 13.4386 16.9285C21.3707 21.699 30.8991 21.3247 34.5208 20.9637C33.1401 17.5925 28.995 8.98718 21.0809 4.22519L21.0809 4.22519Z" transform="translate(414.2197 401.2246)" id="Shape" fill="#D0CDE1" stroke="none" />
    <path d="M60.5835 0L11.1276 0C4.98193 0 0 4.98193 0 11.1276C0 17.2732 4.98193 22.2552 11.1276 22.2551L60.5835 22.2551C66.7291 22.2551 71.7111 17.2732 71.7111 11.1276C71.7111 4.98193 66.7291 0 60.5835 0L60.5835 0Z" transform="translate(411.9004 499.8735)" id="Shape" fill="#D0CDE1" stroke="none" />
    <path d="M301.847 0L24.5625 0C10.997 -6.10352e-05 0 10.9969 0 24.5625L0 159.661C0 173.226 10.9971 184.223 24.5626 184.223L301.847 184.223C315.412 184.223 326.409 173.226 326.409 159.661L326.409 24.5625C326.409 10.9969 315.412 -9.15527e-05 301.847 0ZM41.985 20.9161C31.2336 14.4468 18.2496 16.6564 17.702 16.7554L16.3069 17.0028L16.7416 18.3515C16.9118 18.8804 21.0418 31.388 31.7927 37.855C38.1008 41.6511 45.1763 42.4589 50.0591 42.4589C52.0735 42.4755 54.0859 42.3276 56.0763 42.017L57.4714 41.7695L57.0367 40.4208C56.8665 39.892 52.7359 27.3843 41.985 20.9161ZM288.081 154.55C296.265 154.526 302.894 147.897 302.918 139.713L302.918 117.458C302.894 109.274 296.265 102.645 288.081 102.621L250.989 102.621C242.805 102.645 236.176 109.274 236.152 117.458L236.152 139.713C236.176 147.897 242.805 154.526 250.989 154.55L288.081 154.55ZM77.8931 142.186L28.4372 142.186C20.9315 142.178 14.8513 136.091 14.8514 128.585C14.8516 121.08 20.932 114.993 28.4377 114.985L77.8936 114.985C85.3993 114.993 91.4796 121.08 91.4794 128.586C91.4792 136.091 85.3988 142.178 77.8931 142.186Z" transform="translate(394.5908 382.4155)" id="Shape" fill="#D0CDE1" fill-rule="evenodd" stroke="none" />
    <path d="M4.32739 0L20.4006 0C22.7905 0 24.728 1.93744 24.728 4.32739C24.728 6.71735 22.7905 8.65479 20.4006 8.65479L4.32739 8.65479C1.93744 8.65479 0 6.71735 0 4.32739C0 1.93744 1.93744 0 4.32739 0ZM4.32739 6.18201L20.4006 6.18201L20.4006 6.18195C21.065 6.18475 21.6801 5.83191 22.0132 5.25696C22.3462 4.68201 22.3462 3.97278 22.0132 3.39783C21.6801 2.82288 21.065 2.47003 20.4006 2.47284L4.32739 2.47284C3.66296 2.47003 3.04785 2.82288 2.71478 3.39783C2.38177 3.97278 2.38177 4.68201 2.71478 5.25696C3.04785 5.83191 3.66296 6.18475 4.32739 6.18201Z" transform="translate(636.9248 517.8013)" id="Shape" fill="#D0CDE1" fill-rule="evenodd" stroke="none" />
    <path d="M4.33557 0L20.4088 0C22.7987 0 24.7361 1.93744 24.7361 4.32739C24.7361 6.71735 22.7987 8.65479 20.4088 8.65479L4.33557 8.65479C2.7876 8.65771 1.35596 7.83356 0.581116 6.49347C-0.193726 5.15338 -0.193726 3.50146 0.581116 2.16132C1.35596 0.821228 2.7876 -0.00292969 4.33557 0ZM4.33557 6.18201L20.4088 6.18201L20.4088 6.18195C21.43 6.17767 22.2556 5.34863 22.2556 4.32739C22.2556 3.30615 21.43 2.47711 20.4088 2.47284L4.33557 2.47284C3.67114 2.47003 3.05603 2.82288 2.72296 3.39783C2.38995 3.97278 2.38995 4.68201 2.72296 5.25696C3.05603 5.83191 3.67114 6.18475 4.33557 6.18201Z" transform="translate(666.5903 517.8013)" id="Shape" fill="#D0CDE1" fill-rule="evenodd" stroke="none" />
    <path d="M4.32739 0L20.4006 0C21.9485 -0.00292969 23.3802 0.821228 24.155 2.16132C24.9299 3.5014 24.9299 5.15332 24.155 6.49347C23.3802 7.83356 21.9485 8.65771 20.4006 8.65479L4.32739 8.65479C1.93744 8.65479 0 6.71735 0 4.32739C0 1.93744 1.93744 0 4.32739 0ZM4.32739 6.18201L20.4006 6.18201C21.0634 6.18225 21.6758 5.8288 22.0073 5.25488C22.3387 4.68097 22.3387 3.97375 22.0073 3.3999C21.6758 2.82599 21.0633 2.47253 20.4006 2.47278L4.32739 2.47278C3.66461 2.47253 3.05212 2.82599 2.7207 3.3999C2.38922 3.97382 2.38922 4.68103 2.7207 5.25494C3.05212 5.8288 3.66467 6.18225 4.32739 6.18201Z" transform="translate(636.9248 506.6736)" id="Shape" fill="#D0CDE1" fill-rule="evenodd" stroke="none" />
    <path d="M4.33557 0L20.4088 0C22.7987 0 24.7361 1.93744 24.7361 4.32739C24.7361 6.71735 22.7987 8.65479 20.4088 8.65479L4.33557 8.65479C2.7876 8.65771 1.35596 7.83356 0.581116 6.49347C-0.193726 5.15338 -0.193726 3.50146 0.581116 2.16132C1.35596 0.821228 2.7876 -0.00292969 4.33557 0ZM4.33557 6.18201L20.4088 6.18201C21.4327 6.18164 22.2627 5.35144 22.2627 4.32739C22.2627 3.30341 21.4328 2.47314 20.4088 2.47278L4.33557 2.47278C3.31158 2.47314 2.48163 3.30334 2.48163 4.32739C2.48163 5.35138 3.31152 6.18164 4.33557 6.18201Z" transform="translate(666.5903 506.6736)" id="Shape" fill="#D0CDE1" fill-rule="evenodd" stroke="none" />
    <path d="M4.32739 0L20.4006 0C22.7905 0 24.728 1.93744 24.728 4.32739C24.728 6.71735 22.7905 8.65479 20.4006 8.65479L4.32739 8.65479C1.93744 8.65479 0 6.71735 0 4.32739C0 1.93744 1.93744 0 4.32739 0ZM4.32739 6.18201L20.4006 6.18201C21.4246 6.18164 22.2545 5.35144 22.2545 4.32739C22.2545 3.30341 21.4246 2.47314 20.4006 2.47278L4.32739 2.47278C3.30341 2.47314 2.47345 3.30334 2.47345 4.32739C2.47345 5.35138 3.30334 6.18164 4.32739 6.18201Z" transform="translate(636.9248 495.5461)" id="Shape" fill="#D0CDE1" fill-rule="evenodd" stroke="none" />
    <path d="M4.33557 0L20.4088 0C22.7955 0.0045166 24.728 1.94061 24.728 4.32739C24.728 6.71417 22.7955 8.65027 20.4088 8.65479L4.33557 8.65479C2.7876 8.65771 1.35596 7.83356 0.581116 6.49347C-0.193726 5.15338 -0.193726 3.50146 0.581116 2.16132C1.35596 0.821228 2.7876 -0.00292969 4.33557 0ZM4.33557 6.18201L20.4088 6.18201C21.4327 6.18164 22.2627 5.35144 22.2627 4.32739C22.2627 3.30341 21.4328 2.47314 20.4088 2.47278L4.33557 2.47278C3.31158 2.47314 2.48163 3.30334 2.48163 4.32739C2.48163 5.35138 3.31152 6.18164 4.33557 6.18201Z" transform="translate(666.5903 495.5461)" id="Shape" fill="#D0CDE1" fill-rule="evenodd" stroke="none" />
    <path d="M42.1119 7L34.9437 30.3915C34.9437 30.3915 33.1119 74 9.11194 68C-14.8881 62 16.1119 11 16.1119 11L23.1119 0L42.1119 7Z" transform="translate(566.8987 345.0251)" id="Shape" fill="#A0616A" stroke="none" />
    <path d="M42.1119 7L34.9437 30.3915C34.9437 30.3915 33.1119 74 9.11194 68C-14.8881 62 16.1119 11 16.1119 11L23.1119 0L42.1119 7Z" transform="translate(430.8987 345.0251)" id="Shape" fill="#A0616A" stroke="none" />
    <path d="M21 0.208984C21 0.208984 37 -3.79102 42 23.209C47 50.209 53 127.209 53 127.209L29 208.209C29 208.209 5 195.209 0 197.209L18.8862 126.888L3 55.209C3 55.209 17 0.208984 21 0.208984L21 0.208984Z" transform="translate(583.0105 152.8162)" id="Shape" fill="#D0CDE1" stroke="none" />
    <path d="M0 0L21 70L0 141L12 70L0 0L0 0Z" transform="translate(580.7471 209.3931)" id="Polygon" fill="#000000" fill-opacity="0.15" stroke="none" />
    <path d="M36 0L0 142C0 142 18.9894 148.267 25.9894 153.267L36 0Z" transform="translate(449.0105 208.0251)" id="Shape" fill="#D0CDE1" stroke="none" />
    <path d="M0 100C0 44.7715 44.7715 0 100 0C155.228 0 200 44.7715 200 100C200 155.228 155.228 200 100 200C44.7715 200 0 155.228 0 100Z" transform="translate(7.362305 364.8843)" id="Circle" fill="#3F3D56" stroke="none" />
    <path d="M0 86C0 38.5035 38.5035 0 86 0C133.496 0 172 38.5035 172 86C172 133.496 133.496 172 86 172C38.5035 172 0 133.496 0 86Z" transform="translate(21.3623 378.8843)" id="Circle" fill="#000000" fill-opacity="0.1" stroke="none" />
    <path d="M16.6911 101.748L16.6911 89.2309C10.3638 89.1075 3.81805 86.8759 0 83.7777L2.61801 75.4746C7.15527 78.8748 12.6578 80.7412 18.3274 80.8031C26.0732 80.8031 31.3097 75.7221 31.3097 68.6581C31.3097 61.8416 27.0549 57.6284 18.982 53.9101C7.85446 48.9531 0.981689 43.2519 0.981689 32.4702C0.981689 22.1836 7.41821 14.376 17.4549 12.5171L17.4549 0L24.2185 0L24.2185 12.0215C29.262 12.0904 34.1815 13.5949 38.4008 16.3589L35.6731 24.5386C31.6266 21.7685 26.8314 20.2985 21.9276 20.3247C13.5277 20.3247 10.3638 26.0253 10.3638 30.9829C10.3638 37.4272 14.4002 40.6493 23.8914 45.1114C35.1277 50.3164 40.8009 56.7607 40.8009 67.7904C40.8009 77.5809 34.8006 86.7524 23.5639 88.8581L23.5639 101.748L16.6911 101.748Z" transform="translate(86.55029 413.8843)" id="Shape" fill="#6C63FF" stroke="none" />
    <path d="M213 24C142.39 34.5303 70.6095 34.5302 0 24L0 0C70.6846 9.46643 142.316 9.46631 213 0L213 24Z" transform="translate(0 644.2925)" id="Shape" fill="#3F3D56" stroke="none" />
    <path d="M213 24C142.39 34.5303 70.6095 34.5302 0 24L0 0C70.6846 9.46643 142.316 9.46631 213 0L213 24Z" transform="translate(0 607.2925)" id="Shape" fill="#3F3D56" stroke="none" />
    <path d="M213 24C142.39 34.5303 70.6095 34.5302 0 24L0 0C70.6846 9.46643 142.316 9.46631 213 0L213 24Z" transform="translate(0 570.2925)" id="Shape" fill="#3F3D56" stroke="none" />
  </g>
</svg>