<svg width="720px" height="695px" viewBox="0 0 720 695" version="1.1" xmlns:xlink="http://www.w3.org/1999/xlink" xmlns="http://www.w3.org/2000/svg">
  <defs>
    <linearGradient x1="0.136860251" y1="0.124757171" x2="0.8159636" y2="0.922199" id="gradient_1">
      <stop offset="0" stop-color="#DBEFFF" />
      <stop offset="1" stop-color="#F7EBFF" />
    </linearGradient>
    <linearGradient x1="0.5000024" y1="0.9999981" x2="0.5000024" y2="-7.62939453E-06" id="gradient_2">
      <stop offset="0" stop-color="#F7EBFF" />
      <stop offset="1" stop-color="#DBEFFF" />
    </linearGradient>
    <linearGradient x1="0.5000013" y1="1.00000763" x2="0.5000013" y2="-1.90734863E-06" id="gradient_3">
      <stop offset="0" stop-color="#F7EBFF" />
      <stop offset="1" stop-color="#DBEFFF" />
    </linearGradient>
    <linearGradient x1="0.0221471786" y1="0.0221557617" x2="0.9778652" y2="0.977872849" id="gradient_4">
      <stop offset="0" stop-color="#FF57BD" />
      <stop offset="1" stop-color="#FE6A77" />
    </linearGradient>
    <linearGradient x1="0.0221071243" y1="0.0221309662" x2="0.9778824" y2="0.9779053" id="gradient_5">
      <stop offset="0" stop-color="#FF57BD" />
      <stop offset="1" stop-color="#FE6A77" />
    </linearGradient>
    <linearGradient x1="0.0221471786" y1="0.0221481323" x2="0.9778652" y2="0.9778595" id="gradient_6">
      <stop offset="0" stop-color="#FF57BD" />
      <stop offset="1" stop-color="#FE6A77" />
    </linearGradient>
    <linearGradient x1="0.02721572" y1="-0.0305285454" x2="0.972790241" y2="1.03054309" id="gradient_7">
      <stop offset="0" stop-color="#706AED" />
      <stop offset="1" stop-color="#271068" />
    </linearGradient>
    <linearGradient x1="0" y1="0.5000992" x2="1.00000954" y2="0.5000992" id="gradient_8">
      <stop offset="0" stop-color="#FFFFFF" />
      <stop offset="1" stop-color="#F1D1F8" />
    </linearGradient>
    <linearGradient x1="0.499969482" y1="1" x2="0.499969482" y2="5.00679E-06" id="gradient_9">
      <stop offset="0" stop-color="#FDE1A7" />
      <stop offset="1" stop-color="#F9A144" />
    </linearGradient>
    <linearGradient x1="-3.05175781E-05" y1="0.5" x2="0.9999695" y2="0.5" id="gradient_10">
      <stop offset="0" stop-color="#00E2EC" />
      <stop offset="1" stop-color="#0090B2" />
    </linearGradient>
    <linearGradient x1="0.5" y1="1" x2="0.5" y2="6.198883E-06" id="gradient_11">
      <stop offset="0" stop-color="#1AA9E8" />
      <stop offset="0.4223" stop-color="#3D80EF" />
      <stop offset="0.7909" stop-color="#5662F4" />
      <stop offset="1" stop-color="#5F57F6" />
    </linearGradient>
    <linearGradient x1="0" y1="0.5000105" x2="1" y2="0.5000105" id="gradient_12">
      <stop offset="0" stop-color="#00E2EC" />
      <stop offset="1" stop-color="#0090B2" />
    </linearGradient>
    <linearGradient x1="0.5" y1="1" x2="0.5" y2="8.106232E-06" id="gradient_13">
      <stop offset="0" stop-color="#FF57BD" />
      <stop offset="1" stop-color="#FE6A77" />
    </linearGradient>
    <linearGradient x1="0" y1="0.5000162" x2="1" y2="0.5000162" id="gradient_14">
      <stop offset="0" stop-color="#00E2EC" />
      <stop offset="1" stop-color="#0090B2" />
    </linearGradient>
    <linearGradient x1="0.5" y1="1" x2="0.5" y2="5.722046E-06" id="gradient_15">
      <stop offset="0" stop-color="#C7A0F6" />
      <stop offset="1" stop-color="#FF57BD" />
    </linearGradient>
    <linearGradient x1="0" y1="0.5" x2="1" y2="0.5" id="gradient_16">
      <stop offset="0" stop-color="#00E2EC" />
      <stop offset="1" stop-color="#0090B2" />
    </linearGradient>
    <linearGradient x1="0.5" y1="1" x2="0.5" y2="1.14440918E-05" id="gradient_17">
      <stop offset="0" stop-color="#FDE1A7" />
      <stop offset="1" stop-color="#F9A144" />
    </linearGradient>
    <linearGradient x1="0.101418018" y1="-0.170617342" x2="0.8985934" y2="1.17062426" id="gradient_18">
      <stop offset="0" stop-color="#00E2EC" />
      <stop offset="1" stop-color="#0090B2" />
    </linearGradient>
    <linearGradient x1="9.536743E-06" y1="0.5" x2="1.00000906" y2="0.5" id="gradient_19">
      <stop offset="0" stop-color="#FFFFFF" />
      <stop offset="1" stop-color="#F1D1F8" />
    </linearGradient>
    <linearGradient x1="2.861023E-05" y1="0.499998569" x2="1.00001907" y2="0.499998569" id="gradient_20">
      <stop offset="0" stop-color="#FDE1A7" />
      <stop offset="1" stop-color="#F9A144" />
    </linearGradient>
    <linearGradient x1="-7.390976E-06" y1="0.5000036" x2="0.999998569" y2="0.5000036" id="gradient_21">
      <stop offset="0" stop-color="#5A55F8" />
      <stop offset="1" stop-color="#8C6AE2" />
    </linearGradient>
    <linearGradient x1="5.841255E-06" y1="0.500002146" x2="1.00001168" y2="0.500002146" id="gradient_22">
      <stop offset="0" stop-color="#FF57BD" />
      <stop offset="1" stop-color="#FE6A77" />
    </linearGradient>
    <linearGradient x1="2.861023E-06" y1="0.499988079" x2="1.00000143" y2="0.499988079" id="gradient_23">
      <stop offset="0" stop-color="#C7A0F6" />
      <stop offset="1" stop-color="#FF57BD" />
    </linearGradient>
    <linearGradient x1="1.23977661E-05" y1="0.5" x2="1" y2="0.5" id="gradient_24">
      <stop offset="0" stop-color="#994574" />
      <stop offset="1" stop-color="#43256F" />
    </linearGradient>
    <linearGradient x1="0.2165308" y1="0.216364384" x2="0.738499165" y2="0.7393856" id="gradient_25">
      <stop offset="0" stop-color="#1AA9E8" />
      <stop offset="0.4223" stop-color="#3D80EF" />
      <stop offset="0.7909" stop-color="#5662F4" />
      <stop offset="1" stop-color="#5F57F6" />
    </linearGradient>
    <linearGradient x1="0.0933842659" y1="-0.149056137" x2="0.90662384" y2="1.14905691" id="gradient_26">
      <stop offset="0" stop-color="#C91C91" />
      <stop offset="1" stop-color="#FE6A77" />
    </linearGradient>
    <linearGradient x1="6.198883E-06" y1="0.5000992" x2="1" y2="0.5000992" id="gradient_27">
      <stop offset="0" stop-color="#FFFFFF" />
      <stop offset="1" stop-color="#F1D1F8" />
    </linearGradient>
    <linearGradient x1="0.5000019" y1="1.00000548" x2="0.5000019" y2="5.60283661E-06" id="gradient_28">
      <stop offset="0" stop-color="#994574" />
      <stop offset="1" stop-color="#9F36AD" />
    </linearGradient>
    <linearGradient x1="2.38418579E-06" y1="0.5000062" x2="1.00000167" y2="0.5000062" id="gradient_29">
      <stop offset="0" stop-color="#FE6A77" />
      <stop offset="1" stop-color="#FF57BD" />
    </linearGradient>
    <linearGradient x1="-4.29153442E-06" y1="0.5" x2="1.00000143" y2="0.5" id="gradient_30">
      <stop offset="0" stop-color="#FDE1A7" />
      <stop offset="1" stop-color="#F9A144" />
    </linearGradient>
    <linearGradient x1="4.76837158E-06" y1="0.500013351" x2="1.00001" y2="0.500013351" id="gradient_31">
      <stop offset="0" stop-color="#00E2EC" />
      <stop offset="1" stop-color="#0090B2" />
    </linearGradient>
    <linearGradient x1="0.1716547" y1="0.0407500267" x2="0.8192606" y2="0.863173962" id="gradient_32">
      <stop offset="0" stop-color="#994574" />
      <stop offset="1" stop-color="#43256F" />
    </linearGradient>
    <linearGradient x1="6.67572E-06" y1="0.4999981" x2="1.00002" y2="0.4999981" id="gradient_33">
      <stop offset="0" stop-color="#F4BEA3" />
      <stop offset="1" stop-color="#E8878E" />
    </linearGradient>
    <linearGradient x1="0" y1="0.5000267" x2="0.9999962" y2="0.5000267" id="gradient_34">
      <stop offset="0" stop-color="#706AED" />
      <stop offset="1" stop-color="#271068" />
    </linearGradient>
    <linearGradient x1="0" y1="0.499996662" x2="1.00001144" y2="0.499996662" id="gradient_35">
      <stop offset="0" stop-color="#F4BEA3" />
      <stop offset="1" stop-color="#E8878E" />
    </linearGradient>
    <linearGradient x1="0" y1="0.4999504" x2="1.00001049" y2="0.4999504" id="gradient_36">
      <stop offset="0" stop-color="#706AED" />
      <stop offset="1" stop-color="#271068" />
    </linearGradient>
    <linearGradient x1="0.0900774" y1="0.2095015" x2="0.9338274" y2="0.9706862" id="gradient_37">
      <stop offset="0" stop-color="#FF57BD" />
      <stop offset="1" stop-color="#FE6A77" />
    </linearGradient>
    <linearGradient x1="1.90734863E-05" y1="0.500015259" x2="1.00003815" y2="0.500015259" id="gradient_38">
      <stop offset="0" stop-color="#C16846" />
      <stop offset="0.2653" stop-color="#D27565" />
      <stop offset="0.5308" stop-color="#DE7F7B" />
      <stop offset="0.7814" stop-color="#E58589" />
      <stop offset="1" stop-color="#E8878E" />
    </linearGradient>
    <linearGradient x1="-5.722046E-06" y1="0.5000191" x2="0.9999924" y2="0.5000191" id="gradient_39">
      <stop offset="0" stop-color="#FDE1A7" />
      <stop offset="1" stop-color="#F9A144" />
    </linearGradient>
    <linearGradient x1="1.90734863E-06" y1="0.5000086" x2="1" y2="0.5000086" id="gradient_40">
      <stop offset="0" stop-color="#F4BEA3" />
      <stop offset="1" stop-color="#E8878E" />
    </linearGradient>
    <linearGradient x1="2.861023E-06" y1="0.5000007" x2="1.00000763" y2="0.5000007" id="gradient_41">
      <stop offset="0" stop-color="#FDE1A7" />
      <stop offset="1" stop-color="#F9A144" />
    </linearGradient>
    <linearGradient x1="-0.059009552" y1="0.138558865" x2="0.862531662" y2="0.793978" id="gradient_42">
      <stop offset="0" stop-color="#5A55F8" />
      <stop offset="1" stop-color="#8C6AE2" />
    </linearGradient>
    <linearGradient x1="0" y1="0.4999838" x2="1" y2="0.4999838" id="gradient_43">
      <stop offset="0" stop-color="#F4BEA3" />
      <stop offset="1" stop-color="#E8878E" />
    </linearGradient>
    <linearGradient x1="2.861023E-06" y1="0.5000262" x2="0.999999046" y2="0.5000262" id="gradient_44">
      <stop offset="0" stop-color="#F4BEA3" />
      <stop offset="1" stop-color="#E8878E" />
    </linearGradient>
    <linearGradient x1="-1.90734863E-05" y1="0.5000229" x2="0.9999771" y2="0.5000229" id="gradient_45">
      <stop offset="0" stop-color="#FF57BD" />
      <stop offset="1" stop-color="#EC9895" />
    </linearGradient>
    <linearGradient x1="5.722046E-06" y1="0.500011444" x2="1.00000477" y2="0.500011444" id="gradient_46">
      <stop offset="0" stop-color="#5A55F8" />
      <stop offset="1" stop-color="#8C6AE2" />
    </linearGradient>
    <linearGradient x1="3.81469727E-05" y1="0.500002861" x2="1.00002" y2="0.500002861" id="gradient_47">
      <stop offset="0" stop-color="#F4BEA3" />
      <stop offset="1" stop-color="#E8878E" />
    </linearGradient>
    <linearGradient x1="-1.43051147E-06" y1="0.5000062" x2="1.00000334" y2="0.5000062" id="gradient_48">
      <stop offset="0" stop-color="#FDE1A7" />
      <stop offset="1" stop-color="#F9A144" />
    </linearGradient>
    <linearGradient x1="0.08970451" y1="-0.0949049" x2="0.9102869" y2="1.09494591" id="gradient_49">
      <stop offset="0" stop-color="#00E2EC" />
      <stop offset="1" stop-color="#0090B2" />
    </linearGradient>
    <linearGradient x1="0.08970785" y1="-0.09493065" x2="0.9102993" y2="1.09492874" id="gradient_50">
      <stop offset="0" stop-color="#706AED" />
      <stop offset="1" stop-color="#271068" />
    </linearGradient>
    <linearGradient x1="0.109212637" y1="-0.221271515" x2="0.7611878" y2="1.4123764" id="gradient_51">
      <stop offset="0" stop-color="#706AED" />
      <stop offset="1" stop-color="#271068" />
    </linearGradient>
    <linearGradient x1="-0.8098891" y1="0.222383261" x2="1.53320122" y2="0.7435522" id="gradient_52">
      <stop offset="0" stop-color="#994574" />
      <stop offset="1" stop-color="#43256F" />
    </linearGradient>
    <linearGradient x1="0.142192364" y1="-0.289676666" x2="0.760746" y2="1.47080612" id="gradient_53">
      <stop offset="0" stop-color="#706AED" />
      <stop offset="1" stop-color="#271068" />
    </linearGradient>
    <linearGradient x1="-0.542932749" y1="0.17303443" x2="1.72609711" y2="0.787627459" id="gradient_54">
      <stop offset="0" stop-color="#994574" />
      <stop offset="1" stop-color="#43256F" />
    </linearGradient>
    <linearGradient x1="-3.81469727E-06" y1="0.499995947" x2="0.9999964" y2="0.499995947" id="gradient_55">
      <stop offset="0" stop-color="#F4BEA3" />
      <stop offset="1" stop-color="#E8878E" />
    </linearGradient>
    <linearGradient x1="-0.260436058" y1="0.236495018" x2="1.10185957" y2="0.892968655" id="gradient_56">
      <stop offset="0" stop-color="#1AA9E8" />
      <stop offset="0.4223" stop-color="#3D80EF" />
      <stop offset="0.7909" stop-color="#5662F4" />
      <stop offset="1" stop-color="#5F57F6" />
    </linearGradient>
    <linearGradient x1="2.670288E-05" y1="0.5000057" x2="1.00003624" y2="0.5000057" id="gradient_57">
      <stop offset="0" stop-color="#EC9895" />
      <stop offset="1" stop-color="#FF57BD" />
    </linearGradient>
    <linearGradient x1="-0.03353691" y1="0.260776043" x2="0.870092869" y2="0.8027303" id="gradient_58">
      <stop offset="0" stop-color="#F4BEA3" />
      <stop offset="1" stop-color="#E8878E" />
    </linearGradient>
    <linearGradient x1="-7.62939453E-06" y1="0.5000062" x2="0.9999914" y2="0.5000062" id="gradient_59">
      <stop offset="0" stop-color="#CB2090" />
      <stop offset="1" stop-color="#43256F" />
    </linearGradient>
    <linearGradient x1="0.0504922867" y1="0.011092186" x2="0.8366127" y2="0.819149" id="gradient_60">
      <stop offset="0" stop-color="#CB2090" />
      <stop offset="1" stop-color="#43256F" />
    </linearGradient>
    <linearGradient x1="-1.57356262E-05" y1="0.500009537" x2="1.00000381" y2="0.500009537" id="gradient_61">
      <stop offset="0" stop-color="#1AA9E8" />
      <stop offset="0.4223" stop-color="#3D80EF" />
      <stop offset="0.7909" stop-color="#5662F4" />
      <stop offset="1" stop-color="#5F57F6" />
    </linearGradient>
    <linearGradient x1="-3.33786E-06" y1="0.500005" x2="0.999982357" y2="0.500005" id="gradient_62">
      <stop offset="0" stop-color="#F4BEA3" />
      <stop offset="1" stop-color="#E8878E" />
    </linearGradient>
    <linearGradient x1="-2.38418579E-06" y1="0.500002861" x2="1.00001669" y2="0.500002861" id="gradient_63">
      <stop offset="0" stop-color="#1AA9E8" />
      <stop offset="0.4223" stop-color="#3D80EF" />
      <stop offset="0.7909" stop-color="#5662F4" />
      <stop offset="1" stop-color="#5F57F6" />
    </linearGradient>
  </defs>
  <g id="05.Data">
    <path d="M0 0L719.501 0L719.501 524.408L719.501 602.256L719.501 681.369C719.501 681.369 557.142 681.369 377.267 681.369C197.391 681.369 0 681.369 0 681.369L0 0Z" id="Background" fill="none" stroke="none" />
    <g id="background" transform="translate(40.79688 37.35547)">
      <path d="M383.722 0.133228C438.133 1.02522 515.291 23.325 536.252 78.6284C558.786 138.076 556.121 150.79 592.894 215.549C629.615 280.216 609.991 371.199 570.744 409.852C515.151 464.601 466.822 451.013 368.112 450.588C298.983 450.291 221.738 500.421 182.578 513.474C156.265 522.245 100.069 531.759 64.3896 495.188C24.9895 454.803 33.7649 380.121 26.9261 351.577C19.7625 321.677 -27.6762 215.954 23.3581 133.486C84.9054 34.0289 222.254 -2.5142 383.722 0.133228L383.722 0.133228Z" id="Shape" fill="url(#gradient_1)" stroke="none" />
      <path d="M100.815 6.73914C120.455 3.17477 193.187 -11.387 196.456 18.1209C199.205 42.9477 140.234 40.873 112.013 39.5287C76.11 37.8188 2.84817 45.6371 0.0883606 30.7631C-1.56626 21.8369 20.2875 17.0799 42.8414 15.7482C61.3832 14.6529 72.0505 11.9599 100.815 6.73914L100.815 6.73914Z" transform="translate(364.4763 594.5124)" id="Shape" fill="url(#gradient_2)" stroke="none" />
      <path d="M90.3482 3.98439C72.3844 1.95689 -3.59174 -9.71749 0.132323 19.7021C3.10532 43.1918 59.1544 34.0034 84.5743 36.0559C120.477 38.9548 181.772 35.1398 182.974 20.1062C183.696 11.0855 163.639 8.04114 143.245 8.46307C126.481 8.81003 116.658 6.95473 90.3482 3.98439L90.3482 3.98439Z" transform="translate(45.52539 619.691)" id="Shape" fill="url(#gradient_3)" stroke="none" />
    </g>
    <g id="graph_x5F_5" transform="translate(290.5349 409.3647)">
      <g id="Group">
        <path d="M0 1.68318C0 0.753733 0.753733 0 1.68318 0L20.6174 0C21.5469 0 22.3006 0.753733 22.3006 1.68318L22.3006 20.6174C22.3006 21.5469 21.5469 22.3007 20.6174 22.3007L1.68318 22.3007C0.753733 22.3007 0 21.5469 0 20.6174L0 1.68318L0 1.68318Z" id="Shape" fill="url(#gradient_4)" stroke="none" />
        <g id="Group" transform="translate(4.013916 4.629211)">
          <path d="M6.35548 13.0438C6.07807 13.0438 5.81672 12.9144 5.64724 12.6932L0.183799 5.55727C-0.115909 5.16659 -0.0409954 4.6073 0.349713 4.30759C0.739523 4.00878 1.30058 4.08103 1.60029 4.47441L6.28057 10.5872L12.6226 0.419454C12.884 0.00111608 13.4343 -0.124647 13.8518 0.134909C14.2701 0.395363 14.3968 0.945725 14.1363 1.36406L7.11189 12.6254C6.95667 12.8734 6.68998 13.0304 6.39741 13.0446C6.38404 13.0438 6.36978 13.0438 6.35548 13.0438L6.35548 13.0438Z" id="Shape" fill="#FDE1A7" stroke="none" />
        </g>
      </g>
      <g id="Group" transform="translate(0 32.87787)">
        <path d="M0 1.68321C0 0.75376 0.753733 0 1.68318 0L20.6174 0C21.5469 0 22.3006 0.753706 22.3006 1.68321L22.3006 20.6175C22.3006 21.5469 21.5469 22.3007 20.6174 22.3007L1.68318 22.3007C0.753733 22.3007 0 21.547 0 20.6175L0 1.68321L0 1.68321Z" id="Shape" fill="url(#gradient_5)" stroke="none" />
        <g id="Group" transform="translate(4.013916 4.62909)">
          <path d="M6.35548 13.0439C6.07807 13.0439 5.81672 12.9146 5.64724 12.6934L0.183799 5.55746C-0.115909 5.16678 -0.0409954 4.60749 0.349713 4.30778C0.739523 4.00895 1.30058 4.08119 1.60029 4.4746L6.28057 10.5874L12.6226 0.419645C12.884 0.00217771 13.4343 -0.125382 13.8518 0.135127C14.2701 0.395581 14.3968 0.945943 14.1363 1.36428L7.11189 12.6257C6.95667 12.8736 6.68998 13.0306 6.39741 13.0449C6.38404 13.0439 6.36978 13.0439 6.35548 13.0439L6.35548 13.0439Z" id="Shape" fill="#FDE1A7" stroke="none" />
        </g>
      </g>
      <g id="Group" transform="translate(0 65.75659)">
        <path d="M0 1.68321C0 0.75376 0.753733 0 1.68318 0L20.6174 0C21.5469 0 22.3006 0.753705 22.3006 1.68321L22.3006 20.6175C22.3006 21.5469 21.5469 22.3007 20.6174 22.3007L1.68318 22.3007C0.753733 22.3007 0 21.547 0 20.6175L0 1.68321L0 1.68321Z" id="Shape" fill="url(#gradient_6)" stroke="none" />
        <g id="Group" transform="translate(4.013916 4.627991)">
          <path d="M6.35548 13.0442C6.07807 13.0442 5.81672 12.9148 5.64724 12.6936L0.183799 5.55768C-0.115909 5.167 -0.0409954 4.60771 0.349713 4.308C0.739523 4.00916 1.30058 4.08141 1.60029 4.47481L6.28057 10.5876L12.6226 0.419862C12.884 0.0015244 13.4343 -0.125164 13.8518 0.135345C14.2701 0.395799 14.3968 0.946161 14.1363 1.3645L7.11189 12.6259C6.95667 12.8739 6.68998 13.0308 6.39741 13.0451C6.38404 13.0442 6.36978 13.0442 6.35548 13.0442L6.35548 13.0442Z" id="Shape" fill="#FDE1A7" stroke="none" />
        </g>
      </g>
    </g>
    <g id="graph_x5F_4" transform="translate(254.874 285.7964)">
      <path d="M0 0L125.994 0L125.994 112.279L0 112.279L0 0Z" id="Rectangle" fill="url(#gradient_7)" stroke="none" />
      <g id="Group" transform="translate(12.82251 9.551453)">
        <path d="M0 0L47.2014 0L47.2014 4.45995L0 4.45995L0 0Z" id="Rectangle" fill="url(#gradient_8)" stroke="none" />
      </g>
      <g id="Group" transform="translate(12.15332 13.49139)">
        <g id="Group" transform="translate(86.74583 0)">
          <path d="M14.2718 1.78398C14.2718 0.79922 13.4735 0 12.4879 0L1.78398 0C0.79922 0 0 0.79922 0 1.78398L0 86.523L14.2718 86.523L14.2718 1.78398L14.2718 1.78398Z" id="Shape" fill="url(#gradient_9)" stroke="none" />
          <path d="M14.2718 34.0446L14.2718 1.78398C14.2718 0.79922 13.4735 0 12.4879 0L1.78398 0C0.79922 0 0 0.79922 0 1.78398L0 34.0446L14.2718 34.0446L14.2718 34.0446Z" id="Shape" fill="url(#gradient_10)" stroke="none" />
        </g>
        <g id="Group" transform="translate(43.70751 18.95483)">
          <path d="M14.2718 1.78398C14.2718 0.79922 13.4726 0 12.4879 0L1.78398 0C0.799219 0 0 0.79922 0 1.78398L0 67.5683L14.2718 67.5683L14.2718 1.78398L14.2718 1.78398Z" id="Shape" fill="url(#gradient_11)" stroke="none" />
          <path d="M14.2718 39.7676L14.2718 1.78398C14.2718 0.79922 13.4726 0 12.4879 0L1.78398 0C0.799219 0 0 0.79922 0 1.78398L0 39.7676L14.2718 39.7676L14.2718 39.7676Z" id="Shape" fill="url(#gradient_12)" stroke="none" />
        </g>
        <g id="Group" transform="translate(65.22679 31.44263)">
          <path d="M14.2718 1.78398C14.2718 0.79922 13.4726 0 12.4879 0L1.78398 0C0.79922 0 0 0.79922 0 1.78398L0 55.0804L14.2718 55.0804L14.2718 1.78398L14.2718 1.78398Z" id="Shape" fill="url(#gradient_13)" stroke="none" />
          <path d="M14.2718 27.2797L14.2718 1.78398C14.2718 0.79922 13.4726 0 12.4879 0L1.78398 0C0.79922 0 0 0.79922 0 1.78398L0 27.2797L14.2718 27.2797L14.2718 27.2797Z" id="Shape" fill="url(#gradient_14)" stroke="none" />
        </g>
        <g id="Group" transform="translate(22.18823 6.912964)">
          <path d="M14.2718 1.78398C14.2718 0.79922 13.4726 0 12.4879 0L1.78398 0C0.799219 0 0 0.79922 0 1.78398L0 79.6101L14.2718 79.6101L14.2718 1.78398L14.2718 1.78398Z" id="Shape" fill="url(#gradient_15)" stroke="none" />
          <path d="M14.2718 29.3616L14.2718 1.78398C14.2718 0.79922 13.4726 0 12.4879 0L1.78398 0C0.799219 0 0 0.79922 0 1.78398L0 29.3616L14.2718 29.3616L14.2718 29.3616Z" id="Shape" fill="url(#gradient_16)" stroke="none" />
        </g>
        <g id="Group" transform="translate(0.6691897 46.16052)">
          <path d="M14.2718 1.78398C14.2718 0.79922 13.4726 0 12.4879 0L1.78398 0C0.799219 0 0 0.79922 0 1.78398L0 40.3626L14.2718 40.3626L14.2718 1.78398L14.2718 1.78398Z" id="Shape" fill="url(#gradient_17)" stroke="none" />
          <path d="M14.2718 24.3067L14.2718 1.78398C14.2718 0.79922 13.4726 0 12.4879 0L1.78398 0C0.799219 0 0 0.79922 0 1.78398L0 24.3067L14.2718 24.3067L14.2718 24.3067Z" id="Shape" fill="url(#gradient_16)" stroke="none" />
        </g>
        <g id="Group" transform="translate(0 85.63104)">
          <path d="M101.018 1.78398L0.89199 1.78398C0.39961 1.78398 0 1.38527 0 0.891991C0 0.398712 0.39961 0 0.89199 0L101.018 0C101.511 0 101.91 0.398712 101.91 0.891991C101.91 1.38527 101.51 1.78398 101.018 1.78398L101.018 1.78398Z" id="Shape" fill="#1AA9E8" stroke="none" />
        </g>
      </g>
    </g>
    <g id="graph_x5F_1" transform="translate(86.00879 117.3218)">
      <g id="Group">
        <path d="M0 0L126.44 0L126.44 75.1502L0 75.1502L0 0Z" id="Rectangle" fill="url(#gradient_18)" stroke="none" />
        <path d="M0 46.9035L36.89 46.9035L36.89 0L0 46.9035Z" transform="translate(17.22436 17.09677)" id="Polygon" fill="#00E2EC" stroke="none" />
        <path d="M0 27.0567L0 38.4296L22.7457 38.4296L22.7457 0L0 27.0567Z" transform="translate(88.30712 25.57067)" id="Polygon" fill="#00E2EC" stroke="none" />
        <path d="M0 0L0 46.9035L34.1926 46.9035L34.1926 35.5306L0 0Z" transform="translate(54.11449 17.09677)" id="Polygon" fill="#0090B2" stroke="none" />
        <path d="M11.0018 14.6804L0 0L0 38.4296L11.0018 38.4296L11.0018 14.6804Z" transform="translate(111.053 25.57067)" id="Polygon" fill="#0090B2" stroke="none" />
        <g id="Group" transform="translate(68.90624 9.811889)">
          <path d="M0 0L48.3905 0L48.3905 4.45995L0 4.45995L0 0Z" id="Rectangle" fill="url(#gradient_19)" stroke="none" />
        </g>
        <g id="Group" transform="translate(18.93237 16.3197)">
          <path d="M21.9975 35.7216C21.6996 35.7216 21.4079 35.5727 21.2393 35.3006L0.134814 1.36308C-0.125654 0.944745 0.0028038 0.394383 0.421142 0.134814C0.83948 -0.125654 1.38896 0.0028038 1.64941 0.421142L22.7539 34.3587C23.0144 34.777 22.8859 35.3274 22.4676 35.587C22.3213 35.6779 22.1581 35.7216 21.9975 35.7216L21.9975 35.7216Z" id="Shape" fill="#1AA9E8" stroke="none" />
        </g>
        <path d="M0 4.79445C0 2.14655 2.14655 0 4.79445 0C7.44235 0 9.58889 2.14655 9.58889 4.79445C9.58889 7.44235 7.44235 9.5889 4.79445 9.5889C2.14655 9.5889 0 7.44235 0 4.79445Z" transform="translate(15.03003 12.41739)" id="Circle" fill="#F95FC3" stroke="none" />
        <path d="M0 3.05685C0 1.3686 1.3686 0 3.05685 0C4.7451 0 6.1137 1.3686 6.1137 3.05685C6.1137 4.7451 4.7451 6.1137 3.05685 6.1137C1.3686 6.1137 0 4.7451 0 3.05685Z" transform="translate(37.87207 48.09252)" id="Circle" fill="#FFFFFF" stroke="none" />
      </g>
    </g>
    <g id="diagram" transform="translate(195.8562 100.5055)">
      <g id="Group">
        <path d="M32.4515 97.1867C28.3885 87.0457 27.0987 75.6586 29.3661 64.1412C32.6995 47.2157 43.0154 33.4434 56.7297 25.2192L43.8967 0C22.7288 12.0579 6.72831 32.9055 1.65198 58.6831C-1.84463 76.4382 0.343425 93.9925 6.94861 109.469L32.4515 97.1867L32.4515 97.1867Z" transform="translate(0 11.37869)" id="Shape" fill="#FFFFFF" stroke="none" />
        <path d="M12.8331 32.9488C23.2774 28.488 35.1239 27.0073 47.1078 29.3666C64.4926 32.79 78.5406 43.5876 86.6765 57.8621L112.183 45.5776C100.284 23.5775 79.0205 6.86255 52.565 1.65243C34.1267 -1.97886 15.9033 0.518717 0 7.73045L12.8331 32.9488L12.8331 32.9488Z" transform="translate(51.04688 0)" id="Shape" fill="#FFFFFF" stroke="none" />
        <path d="M156.283 0L130.781 12.2827C134.85 22.4291 136.143 33.8225 133.873 45.347C127.622 77.0867 96.8247 97.7505 65.085 91.4994C47.6921 88.0742 33.6405 77.2695 25.5056 62.987L0 75.2715C11.8965 97.2786 33.1642 114.002 59.6269 119.214C106.673 128.479 152.322 97.8504 161.588 50.8051C165.086 33.042 162.894 15.4805 156.283 0L156.283 0Z" transform="translate(10.43384 52.80895)" id="Shape" fill="#FFFFFF" stroke="none" />
      </g>
      <g id="Group" transform="translate(0.01416013 0.01654054)">
        <path d="M37.6599 97.5667C31.7139 88.4016 28.2476 77.4782 28.2476 65.7397C28.2476 48.4895 35.7073 32.9831 47.5743 22.2641L30.11 0C11.6708 15.9211 0 39.467 0 65.7396C0 83.8363 5.53925 100.637 15.0104 114.546L37.6599 97.5667L37.6599 97.5667Z" transform="translate(0 21.0813)" id="Shape" fill="url(#gradient_20)" stroke="none" />
        <path d="M17.4625 38.3832C26.848 31.9885 38.1852 28.2466 50.3993 28.2466C68.1186 28.2466 83.988 36.1256 94.7285 48.559L117.38 31.5773C101.455 12.2916 77.3623 0 50.3993 0C31.6068 0 14.2094 5.97188 0 16.12L17.4625 38.3832L17.4625 38.3832Z" transform="translate(36.42358 0)" id="Shape" fill="url(#gradient_21)" stroke="none" />
        <path d="M138.794 0L116.145 16.979C122.097 26.1478 125.568 37.0765 125.568 48.8222C125.568 81.172 99.3436 107.396 66.9938 107.396C49.2673 107.396 33.3926 99.5113 22.6512 87.0689L0 104.05C15.9247 123.344 40.0227 135.642 66.9929 135.642C114.943 135.642 153.813 96.7711 153.813 48.8213C153.815 30.7192 148.271 13.9115 138.794 0L138.794 0Z" transform="translate(19.82788 37.99877)" id="Shape" fill="url(#gradient_22)" stroke="none" />
      </g>
      <path d="M0 12.7661C5.1664 26.5001 18.4178 36.2745 33.9572 36.2745C45.1089 36.2745 55.0813 31.2384 61.7355 23.3202L33.9572 0L0 12.7661L0 12.7661Z" transform="translate(52.87891 86.83751)" id="Shape" fill="url(#gradient_23)" stroke="none" />
      <path d="M12.8661 0L0 33.9179L27.7784 57.2381C33.0777 50.9317 36.2746 42.7995 36.2746 33.9179C36.2746 18.416 26.5465 5.19227 12.8661 0L12.8661 0Z" transform="translate(86.83618 52.91955)" id="Shape" fill="url(#gradient_24)" stroke="none" />
      <path d="M49.1397 2.35664C45.14 0.838473 40.8059 0 36.2746 0C16.2413 0 0 16.2405 0 36.2746C0 40.7684 0.822412 45.0687 2.31649 49.0407L36.2737 36.2746L49.1397 2.35664L49.1397 2.35664Z" transform="translate(50.5625 50.56292)" id="Shape" fill="url(#gradient_25)" stroke="none" />
    </g>
    <g id="graph_x5F_3" transform="translate(388.0464 78.85477)">
      <path d="M0 0L194.529 0L194.529 121.868L0 121.868L0 0Z" id="Rectangle" fill="url(#gradient_26)" stroke="none" />
      <g id="Group" transform="translate(14.90234 15.17453)">
        <g id="Group">
          <path d="M0 4.79445C0 2.14655 2.14655 0 4.79445 0C7.44235 0 9.58889 2.14655 9.58889 4.79445C9.58889 7.44235 7.44235 9.58889 4.79445 9.58889C2.14655 9.58889 0 7.44235 0 4.79445Z" id="Circle" fill="#FDE1A7" stroke="none" />
          <path d="M0 4.79445C0 2.14655 2.14655 0 4.79445 0C7.44235 0 9.58889 2.14655 9.58889 4.79445C9.58889 7.44235 7.44235 9.58889 4.79445 9.58889C2.14655 9.58889 0 7.44235 0 4.79445Z" transform="translate(25.72485 0)" id="Circle" fill="#00E2EC" stroke="none" />
          <path d="M0 4.79445C0 2.14655 2.14655 0 4.79445 0C7.44235 0 9.58889 2.14655 9.58889 4.79445C9.58889 7.44235 7.44235 9.58889 4.79445 9.58889C2.14655 9.58889 0 7.44235 0 4.79445Z" transform="translate(51.44995 0)" id="Circle" fill="#C7A0F6" stroke="none" />
        </g>
        <g id="Group" transform="translate(0 17.64267)">
          <path d="M0 0L61.0407 0L61.0407 4.45995L0 4.45995L0 0Z" id="Rectangle" fill="url(#gradient_27)" stroke="none" />
        </g>
      </g>
      <path d="M154.314 10.9505C151.359 5.13289 146.928 -0.199424 140.637 0.0057301C126.961 0.451725 118.039 36.1313 108.525 36.5773C99.0109 37.0233 102.281 0.600694 90.091 0.89772C74.7791 1.27147 74.1833 71.8109 55.0055 73.4459C35.8277 75.0809 31.5158 35.5364 22.8938 36.1313C14.2718 36.7263 10.5647 67.1378 9.06798 73.7438C7.57124 80.3499 0 81.6228 0 81.6228L154.314 81.6228L154.314 10.9505L154.314 10.9505Z" transform="translate(25.31006 19.13458)" id="Shape" fill="url(#gradient_28)" stroke="none" />
      <path d="M164.722 0L164.722 0C143.61 0.89199 139.15 57.6823 117.447 56.3443C99.4409 55.2347 102.431 24.6787 86.6729 23.7867C70.9132 22.8947 63.4812 59.9123 44.4515 61.1013C35.1989 61.6793 27.8016 55.8983 19.3277 56.6414C10.8538 57.3844 2.08195 68.6832 0 71.0622L164.722 71.0622L164.722 0L164.722 0Z" transform="translate(14.90234 29.69525)" id="Shape" fill="url(#gradient_29)" stroke="none" />
    </g>
    <g id="graph_x5F_2" transform="translate(282.094 63.28238)">
      <path d="M0 0L78.7922 0L78.7922 24.9757L0 24.9757L0 0Z" id="Rectangle" fill="url(#gradient_30)" stroke="none" />
      <g id="Group" transform="translate(6.334716 8.139404)">
        <path d="M65.2313 8.6969C62.1129 8.6969 60.5465 6.67744 59.164 4.89524C57.8688 3.22543 56.7502 1.78398 54.5069 1.78398C52.2626 1.78398 51.1441 3.22543 49.8489 4.89524C48.4663 6.67744 46.9 8.6969 43.7816 8.6969C40.6632 8.6969 39.0968 6.67744 37.7151 4.89524C36.42 3.22543 35.3014 1.78398 33.0581 1.78398C30.8147 1.78398 29.6953 3.22543 28.401 4.89524C27.0193 6.67744 25.452 8.6969 22.3345 8.6969C19.2179 8.6969 17.6516 6.67744 16.2699 4.89524C14.9756 3.22543 13.8571 1.78398 11.6146 1.78398C9.37123 1.78398 8.25268 3.22543 6.95841 4.89524C5.57671 6.67744 4.01039 8.6969 0.89199 8.6969C0.39961 8.6969 0 8.29729 0 7.80491C0 7.31253 0.39961 6.91292 0.89199 6.91292C3.13623 6.91292 4.25391 5.47147 5.54908 3.80166C6.93078 2.01947 8.4971 0 11.6146 0C14.7321 0 16.2976 2.02036 17.6801 3.80166C18.9744 5.47147 20.0921 6.91292 22.3345 6.91292C24.5788 6.91292 25.6964 5.47147 26.9916 3.80166C28.3733 2.01947 29.9405 0 33.058 0C36.1755 0 37.7428 2.01947 39.1244 3.80166C40.4196 5.47147 41.5382 6.91292 43.7815 6.91292C46.0258 6.91292 47.1443 5.47147 48.4395 3.80166C49.8221 2.01947 51.3884 0 54.5068 0C57.6252 0 59.1907 2.01947 60.5733 3.80166C61.8684 5.47147 62.987 6.91292 65.2312 6.91292C65.7245 6.91292 66.1232 7.31253 66.1232 7.80491C66.1232 8.29729 65.7237 8.6969 65.2313 8.6969L65.2313 8.6969Z" id="Shape" fill="#05C5DA" stroke="none" />
      </g>
      <g id="Group" transform="translate(10.18115 24.08328)">
        <path d="M0.892126 28.4532C0.658431 28.4532 0.425606 28.3613 0.249892 28.1802C-0.091736 27.8252 -0.0819364 27.2606 0.272187 26.9189L27.9301 0.250219C28.2842 -0.0914094 28.8489 -0.0824944 29.1914 0.272513C29.533 0.627521 29.5232 1.19216 29.1691 1.53379L1.51117 28.2025C1.33812 28.3702 1.11512 28.4532 0.892126 28.4532L0.892126 28.4532Z" id="Shape" fill="#1AA9E8" stroke="none" />
      </g>
      <path d="M0 3.5305C0 1.58066 1.58066 0 3.5305 0C5.48034 0 7.06099 1.58066 7.06099 3.5305C7.06099 5.48034 5.48034 7.061 3.5305 7.061C1.58066 7.061 0 5.48034 0 3.5305Z" transform="translate(7.54248 48.11395)" id="Circle" fill="#FDE1A7" stroke="none" />
    </g>
    <g id="girl_x5F_tablet" transform="translate(410.7444 288.1612)">
      <path d="M23.5568 53.2427C24.2588 54.4406 25.7975 54.8429 26.9954 54.1427L67.9485 35.6526C69.1473 34.9524 69.5496 33.4137 68.8494 32.2149L50.2433 1.2441C49.5432 0.0461675 48.0044 -0.356137 46.8056 0.344078L1.2463 12.9711C0.0474741 13.6713 -0.3566 15.21 0.343588 16.4088L23.5568 53.2427L23.5568 53.2427Z" transform="translate(2.24878 1.579834)" id="Shape" fill="url(#gradient_31)" stroke="none" />
      <path d="M53.5118 1.32538L73.3274 34.3103C74.0749 35.5858 73.644 37.2253 72.3693 37.971L28.751 57.6635C27.4763 58.4092 25.8369 57.9801 25.0894 56.7046L0.366073 17.4757C-0.37963 16.2002 0.0503051 14.5607 1.32585 13.815L49.8502 0.366481C51.1248 -0.379221 52.7643 0.048944 53.5118 1.32538ZM7.53052 17.259L28.4834 51.1287L68.2974 34.2068L50.1231 4.43665L7.53052 17.259Z" id="Shape" fill="url(#gradient_32)" fill-rule="evenodd" stroke="none" />
      <g id="Group" transform="translate(22.44556 20.6673)">
        <path d="M34.9812 3.28165L2.62153 16.0514L0 12.2934L32.8466 0L34.9812 3.28165Z" id="Polygon" fill="#FDE1A7" stroke="none" />
      </g>
      <path d="M0 3.5965C0 1.61021 1.61021 0 3.59651 0C5.5828 0 7.19301 1.61021 7.19301 3.5965C7.19301 5.5828 5.5828 7.19301 3.59651 7.19301C1.61021 7.19301 0 5.5828 0 3.5965Z" transform="translate(31.73389 17.17419)" id="Circle" fill="#F95FC3" stroke="none" />
      <path d="M0 3.5965C0 1.61021 1.61021 0 3.59651 0C5.5828 0 7.19301 1.61021 7.19301 3.5965C7.19301 5.5828 5.5828 7.19301 3.59651 7.19301C1.61021 7.19301 0 5.5828 0 3.5965Z" transform="translate(19.48145 21.88397)" id="Circle" fill="#FE687E" stroke="none" />
      <path d="M0 3.23614C0 1.44887 1.44887 0 3.23614 0C5.02341 0 6.47228 1.44887 6.47228 3.23614C6.47228 5.02341 5.02341 6.47228 3.23614 6.47228C1.44887 6.47228 0 5.02341 0 3.23614Z" transform="translate(43.59741 13.33429)" id="Circle" fill="#00E2EC" stroke="none" />
    </g>
    <g id="girl_x5F_right_leg" transform="translate(466.1716 506.8236)">
      <path d="M33.0892 48.1674C32.042 30.3526 36.047 8.5069 35.899 1.66889L6.77551 0C6.77551 0 6.21442 20.8387 6.4776 38.8765C6.77551 59.2442 11.0125 117.669 9.74944 126.812C8.96182 132.51 4.30833 136.186 0 138.901C2.06942 139.96 5.73549 140.69 10.9777 138.096C16.9077 135.161 23.5878 131.882 28.2984 131.718C28.1084 128.642 27.9166 125.763 27.8854 123.839C27.7373 114.547 34.3523 69.6501 33.0892 48.1674L33.0892 48.1674Z" transform="translate(12.5249 0)" id="Shape" fill="url(#gradient_33)" stroke="none" />
      <path d="M23.5028 6.37862C18.2605 8.97255 14.5953 8.24378 12.525 7.18318C11.4029 7.88963 10.304 8.53456 9.30405 9.12864C5.49257 11.3925 -0.612209 12.2818 0.0496518 14.6447C0.568763 16.5027 14.9682 17.3475 22.6839 15.1496C26.3268 14.1122 32.5689 10.7637 32.5689 10.7637L32.8106 15.3164C32.8106 15.3164 39.7325 15.832 40.4764 15.014C41.6056 13.7706 41.2185 6.4482 40.8234 0C36.1129 0.165016 29.4327 3.44394 23.5028 6.37862L23.5028 6.37862Z" transform="translate(0 131.7166)" id="Shape" fill="url(#gradient_34)" stroke="none" />
    </g>
    <g id="girl_x5F_left_leg" transform="translate(523.53 510.8393)">
      <path d="M16.0576 134.69C22.2507 131.624 29.2617 128.185 33.9911 128.312C33.7975 125.239 33.5709 122.353 33.4496 120.418C33.0785 114.472 32.9305 104.214 33.6744 82.6572C34.4183 61.1004 30.5525 45.9375 29.2145 33.1517C27.8765 20.3659 27.8765 6.83801 27.7266 0L0 3.41808C0 3.41808 2.13274 23.8331 4.01395 41.7737C5.7926 58.7223 16.5767 113.059 15.3137 122.201C14.5368 127.82 8.97255 132.422 4.84176 135.372C6.86207 136.495 10.6129 137.383 16.0576 134.69L16.0576 134.69Z" transform="translate(6.912842 0)" id="Shape" fill="url(#gradient_35)" stroke="none" />
      <path d="M0 15.598C0 16.862 14.436 17.3499 22.1517 15.152C25.7945 14.1146 32.0367 10.7661 32.0367 10.7661L32.2784 15.3188C32.2784 15.3188 39.6935 15.598 40.4365 14.7801C41.5604 13.542 41.3045 6.36768 40.903 0.00337545C36.1728 -0.123313 29.1627 3.31622 22.9696 6.38113C17.5249 9.07583 13.7741 8.18651 11.7538 7.06351C10.6058 7.88326 9.56216 8.58171 8.77094 9.13114C5.12894 11.6581 0 13.145 0 15.598L0 15.598Z" transform="translate(0 128.3085)" id="Shape" fill="url(#gradient_36)" stroke="none" />
    </g>
    <g id="girl_x5F_skirt" transform="translate(470.2156 404.2455)">
      <path d="M79.1819 0C82.3039 4.75699 90.7796 19.9217 93.8998 35.7536C96.78 50.3582 96.5757 58.7224 98.1367 70.0952C99.6977 81.4681 107.726 106.444 107.28 108.005C106.834 109.566 103.266 111.907 96.2796 112.094C91.0579 112.233 87.2116 111.797 77.8457 114.919C68.4798 118.041 57.924 119.825 45.1382 118.487C32.3542 117.149 22.2444 111.797 15.8524 111.648C9.45856 111.499 0.984706 111.499 0.092716 109.715C-0.799274 107.931 5.00579 94.1334 6.26173 85.4821C7.68176 75.7157 10.7966 57.0865 17.6346 38.6526C24.0444 21.3747 33.0963 1.48604 33.0963 1.48604C33.0963 1.48604 46.4013 1.412 55.9902 1.189C65.5791 0.966005 79.1819 0 79.1819 0L79.1819 0Z" id="Shape" fill="url(#gradient_37)" stroke="none" />
      <g id="Group" transform="translate(0.3493651 101.6937)">
        <path d="M53.336 11.4535C50.5066 11.4535 47.6344 11.2982 44.6953 10.9896C37.6406 10.2519 31.2816 8.27258 26.1723 6.6822C21.9291 5.36207 18.2648 4.22029 15.4818 4.15611L13.7192 4.11772C8.75706 4.01603 3.13394 3.90099 0.584661 2.96528C0.121734 2.79667 -0.114656 2.28289 0.0548239 1.82084C0.223433 1.35878 0.734542 1.11972 1.19926 1.291C3.46762 2.12321 9.17186 2.2401 13.7549 2.33461L15.522 2.37207C18.5547 2.44252 22.3305 3.61729 26.7013 4.97847C31.9979 6.62775 38.0001 8.49558 44.88 9.21629C56.1709 10.3973 66.4484 9.27607 77.212 5.68938C85.4174 2.95455 89.4965 2.9055 93.8155 2.85373C94.4979 2.84572 95.1874 2.8368 95.9046 2.81807C102.162 2.65038 104.769 0.787896 105.419 0.219677C105.789 -0.103223 106.352 -0.066638 106.677 0.306186C107 0.677268 106.962 1.24097 106.591 1.56479C105.612 2.4184 102.617 4.42364 95.951 4.60205C95.2258 4.62078 94.5265 4.62883 93.8361 4.63771C89.6598 4.68769 85.7163 4.73402 77.7758 7.38059C69.5649 10.1191 61.6315 11.4535 53.336 11.4535L53.336 11.4535Z" id="Shape" fill="#CFAEFF" stroke="none" />
      </g>
      <g id="Group" transform="translate(2.043944 96.59501)">
        <path d="M54.4877 10.6089C50.9366 10.6089 47.2126 10.4037 43.2985 9.9934C35.904 9.22004 29.3246 7.18987 23.5195 5.40056C19.3236 4.10629 15.6994 2.98864 12.8281 2.71032C10.4563 2.48199 8.30127 2.67194 6.40132 2.84055C4.15175 3.04123 2.20542 3.2143 0.584661 2.61842C0.121734 2.44894 -0.114656 1.93604 0.0548239 1.47398C0.224304 1.01193 0.734542 0.773795 1.19927 0.944146C2.44448 1.40261 4.20706 1.24565 6.24349 1.06365C8.22015 0.887907 10.4608 0.689028 13.0003 0.934292C16.0518 1.22866 19.7562 2.37131 24.045 3.69498C29.7725 5.4611 36.2634 7.46361 43.485 8.21917C56.1218 9.53843 66.7151 8.69995 75.8678 5.6511C83.9974 2.94214 86.2667 3.01352 89.6874 3.11696C90.2663 3.13481 90.8809 3.15354 91.5668 3.15975C98.0748 3.2204 100.78 1.50866 102.256 0.219731C102.627 -0.10404 103.189 -0.0657124 103.515 0.30624C103.838 0.677322 103.8 1.24102 103.429 1.56485C101.759 3.02234 98.7501 4.94547 91.8773 4.94547C91.7694 4.94547 91.6614 4.9446 91.5508 4.94367C90.8506 4.93741 90.2235 4.91869 89.6321 4.89996C86.2809 4.79646 84.2588 4.73314 76.4315 7.3422C69.8861 9.52596 62.6405 10.608 54.4877 10.6089L54.4877 10.6089Z" id="Shape" fill="#CFAEFF" stroke="none" />
      </g>
    </g>
    <g id="girl_x5F_right_hand" transform="translate(455.3521 306.1214)">
      <path d="M3.25366 0.742245C1.89782 1.1936 -0.389211 2.41473 0.0567838 4.6447C0.502779 6.87468 4.52033 10.7905 5.85831 11.3846C7.1963 11.9786 6.30251 8.43566 5.11261 6.87468C3.92271 5.31369 7.24181 8.86559 8.30769 8.5097C9.08818 8.24925 9.34956 6.76318 8.4941 4.4217C7.73234 2.33891 11.1335 0.407749 9.64568 0.110709C8.15961 -0.187201 5.03764 0.147295 3.25366 0.742245L3.25366 0.742245Z" transform="translate(7.02002 2.570557)" id="Shape" fill="url(#gradient_38)" stroke="none" />
      <path d="M0.0345712 8.32242C0.419917 7.81754 11.2648 0.299871 12.0693 0.00549872C13.2004 -0.407504 30.7788 22.5479 33.2318 25.1123C35.6847 27.6768 29.9894 40.4733 25.3064 41.3653C20.6235 42.2573 -0.979643 9.65237 0.0345712 8.32242L0.0345712 8.32242Z" transform="translate(31.15552 20.79205)" id="Shape" fill="url(#gradient_39)" stroke="none" />
      <path d="M0.163818 2.30932C1.74086 0.732282 9.60463 1.64033 10.6447 1.93737C11.6866 2.23441 14.2876 0.0793503 15.8486 0.00443708C17.4095 -0.0704761 22.1853 0.803657 24.9915 2.38337C28.101 4.13435 43.6483 21.2641 43.6483 21.2641C43.6483 21.2641 43.4271 25.7241 39.5229 28.4C35.6097 31.0822 33.0997 29.8557 33.0997 29.8557C33.0997 29.8557 27.5925 19.8146 25.697 18.5881C23.8016 17.3617 19.1186 19.4248 15.2634 18.4793C11.6277 17.5882 6.57543 12.9017 7.97047 11.6752C9.45115 10.3729 12.9915 13.378 14.5855 13.9052C16.9448 14.6857 21.3682 13.7491 21.46 11.9535C21.5715 9.77887 14.5248 7.76206 9.19516 6.1556C5.42658 5.02008 -1.11798 3.5911 0.163818 2.30932L0.163818 2.30932Z" id="Shape" fill="url(#gradient_40)" stroke="none" />
      <g id="Group" transform="translate(30.2981 20.37372)">
        <path d="M4.15551 10.6479C1.76944 10.6479 0.397541 9.49362 0.307438 9.41424C-0.0645147 9.09134 -0.104639 8.52761 0.218261 8.15563C0.541161 7.78368 1.10666 7.74532 1.47594 8.06732C1.57851 8.15206 4.17598 10.2384 8.73942 7.2779C12.2521 4.99798 12.4573 0.898387 12.459 0.857364C12.4786 0.365882 12.8934 -0.0230293 13.3831 0.00106163C13.8746 0.0188916 14.2582 0.430098 14.2412 0.921607C14.2341 1.12677 14.0209 5.9783 9.70986 8.77557C7.51114 10.201 5.63798 10.6479 4.15551 10.6479L4.15551 10.6479Z" id="Shape" fill="#1AA9E8" stroke="none" />
      </g>
    </g>
    <g id="girl_x5F_body" transform="translate(496.1758 314.7748)">
      <path d="M47.2756 0.122796C49.6537 5.02874 58.5736 22.1246 57.9795 35.3564C57.3854 48.5882 53.8156 62.2651 53.3696 72.523C52.9236 82.7808 53.2216 89.4708 53.2216 89.4708C53.2216 89.4708 43.4115 95.5657 28.5438 95.1198C14.1292 94.688 7.13602 90.9568 7.13602 90.9568C7.13602 90.9568 6.70876 75.2213 4.90605 64.4951C3.49315 56.0952 0.0366944 51.1893 0.000108885 41.7493C-0.048944 29.6691 18.5455 14.0602 24.0838 5.62372C28.6366 -1.31153 47.2756 0.122796 47.2756 0.122796L47.2756 0.122796Z" id="Shape" fill="url(#gradient_41)" stroke="none" />
      <g id="Group" transform="translate(6.244869 88.57867)">
        <path d="M23.876 7.45629C23.348 7.45629 22.8145 7.44826 22.2722 7.4331C7.81487 6.9996 0.764593 3.32191 0.472018 3.16492C0.038491 2.93389 -0.126525 2.39513 0.10453 1.95983C0.335585 1.52453 0.876092 1.35952 1.31142 1.59055C1.3792 1.6271 8.3367 5.22985 22.3276 5.64909C36.7278 6.09242 46.4121 0.19368 46.5076 0.133902C46.9259 -0.125654 47.4763 0.00367489 47.7359 0.422013C47.9954 0.840351 47.8661 1.38981 47.4486 1.6494C47.0526 1.89562 37.932 7.45629 23.876 7.45629L23.876 7.45629Z" id="Shape" fill="#1AA9E8" stroke="none" />
      </g>
    </g>
    <g id="girl_x5F_hairs" transform="translate(553.8384 261.8822)">
      <path d="M3.81017 4.06745C6.04015 4.17894 12.8674 2.41013 17.9705 1.27998C28.0438 -0.949999 37.943 -0.817104 40.4933 6.18592C42.6866 12.2069 39.0384 17.2065 39.6396 21.4238C40.4567 27.1477 57.5544 31.9787 57.8871 43.4265C58.2073 54.4015 49.1902 58.3673 46.7372 63.1618C44.2842 67.9562 39.4006 82.5064 22.4305 81.3361C12.7319 80.6671 10.0559 74.9432 10.0541 70.9667C10.0541 65.861 14.96 61.9353 12.6186 58.2558C10.2771 54.5764 2.7719 57.0133 1.13421 52.6809C-0.647977 47.9605 3.36418 44.0955 6.37465 41.754C9.38511 39.4126 13.8451 36.9596 12.8416 33.5031C11.8381 30.0467 5.70565 29.1761 5.92865 25.6982C6.19003 21.6468 13.6292 18.6399 12.3956 14.5483C11.467 11.4638 6.15165 12.0954 1.5802 11.2034C-2.99125 10.3114 3.81017 4.06745 3.81017 4.06745L3.81017 4.06745Z" id="Shape" fill="url(#gradient_42)" stroke="none" />
    </g>
    <g id="girl_x5F_head" transform="translate(503.9641 237.6676)">
      <path d="M20.9618 4.39669C20.3855 9.56309 23.1917 24.6154 23.1917 24.6154C23.1917 24.6154 16.2039 31.8628 5.94602 32.3463C0.912515 32.5836 0 30.1163 0 30.1163L2.08189 9.45159C2.08189 9.45159 5.21632 3.57071 11.5959 1.12664C17.9736 -1.3183 20.3677 0.977683 20.3677 0.977683L20.9618 4.39669L20.9618 4.39669Z" transform="translate(16.2959 52.61462)" id="Shape" fill="url(#gradient_43)" stroke="none" />
      <path d="M33.6885 3.69835C24.6187 -0.166649 17.8628 0.00106163 17.8628 0.00106163C10.7928 3.84644 -8.00314 39.0024 3.8068 47.554C11.0961 52.8327 23.6009 47.4478 31.9116 40.2717C32.4201 40.4314 32.9624 40.5188 33.5252 40.5188C36.4206 40.5188 38.7657 38.2478 38.7657 35.4452C38.7657 34.6451 38.5686 33.8913 38.2287 33.2179C38.9949 32.011 39.5846 30.8291 39.9324 29.7133C41.9795 23.1393 42.7564 7.56422 33.6885 3.69835L33.6885 3.69835Z" transform="translate(0.7453613 15.84937)" id="Shape" fill="url(#gradient_44)" stroke="none" />
      <g id="Group" transform="translate(19.00781 34.08063)">
        <path d="M1.33869 6.74551C1.2058 6.74551 1.06931 6.72589 0.93549 6.68307C0.231708 6.46097 -0.159898 5.70901 0.0622281 5.00435C0.474305 3.70116 1.9729 1.27494 2.92461 0.367788C3.45891 -0.139755 4.30718 -0.120128 4.81649 0.415072C5.32581 0.950271 5.30441 1.79677 4.76924 2.30699C4.15289 2.89303 2.88356 4.9562 2.61418 5.80983C2.43495 6.38069 1.90778 6.74551 1.33869 6.74551L1.33869 6.74551Z" id="Shape" fill="#0090B2" stroke="none" />
      </g>
      <g id="Group" transform="translate(6.577881 27.91785)">
        <path d="M1.11499 5.84641C1.00436 5.84641 0.891119 5.82946 0.77962 5.7938C0.191802 5.60825 -0.132895 4.98208 0.0517751 4.39516C0.448717 3.13745 1.65555 1.18936 2.58233 0.307166C3.02653 -0.116535 3.7339 -0.100474 4.1585 0.346419C4.58397 0.792414 4.56524 1.49886 4.11925 1.92346C3.47345 2.53714 2.45836 4.18286 2.17918 5.06682C2.02837 5.54224 1.58951 5.84641 1.11499 5.84641L1.11499 5.84641Z" id="Shape" fill="#0090B2" stroke="none" />
      </g>
      <g id="Group" transform="translate(14.70459 28.90112)">
        <path d="M3.13166 16.5634C3.91748 16.9844 4.78808 17.1976 5.71573 17.1976C8.65128 17.1976 11.676 15.0871 13.4217 11.8233C15.7685 7.43116 14.9728 2.41195 11.6475 0.634203C10.8617 0.213198 9.99106 0 9.06341 0C6.12873 0 3.10487 2.10955 1.35927 5.37513C0.238949 7.47042 -0.21151 9.77087 0.0926616 11.8537C0.406633 14.0114 1.48596 15.6839 3.13166 16.5634ZM2.53846 6.00488C4.03079 3.21385 6.65325 1.3371 9.0625 1.3371C9.76803 1.3371 10.4254 1.49765 11.0159 1.81252C13.6901 3.24238 14.2396 7.449 12.2415 11.1909C10.7492 13.9819 8.12679 15.8578 5.71574 15.8578C5.01017 15.8578 4.35277 15.6972 3.76228 15.3815C2.50101 14.7071 1.66787 13.3861 1.41634 11.6592C1.15322 9.85739 1.55283 7.84951 2.53846 6.00488Z" id="Shape" fill="#9F36AD" fill-rule="evenodd" stroke="none" />
      </g>
      <g id="Group" transform="translate(1.326172 22.34766)">
        <path d="M2.30086 14.8873C2.85569 15.1835 3.47383 15.3333 4.13569 15.3333C6.5628 15.3333 9.29409 13.2764 10.9291 10.2151C11.9353 8.33475 12.4188 6.30814 12.2894 4.5099C12.1529 2.59836 11.3466 1.15514 10.0202 0.446893C9.46536 0.149854 8.84809 0 8.18536 0C5.75912 0 3.02876 2.05603 1.39194 5.11824C-0.771127 9.16609 -0.371517 13.4575 2.30086 14.8873ZM2.57192 5.74799C3.96163 3.1514 6.27011 1.3371 8.18611 1.3371C8.62585 1.3371 9.03085 1.43433 9.39028 1.62521C10.2975 2.10866 10.8532 3.16656 10.9557 4.60355C11.0664 6.15384 10.6382 7.92266 9.74976 9.58354C8.3618 12.181 6.05337 13.9944 4.13557 13.9944C3.69497 13.9944 3.28997 13.8972 2.93141 13.7063C0.987747 12.6663 0.822731 9.02161 2.57192 5.74799Z" id="Shape" fill="#9F36AD" fill-rule="evenodd" stroke="none" />
      </g>
      <path d="M13.5468 0.322737C10.0333 3.24043 0.282068 8.0545 0.017095 9.76267C-0.33613 12.0488 4.88825 13.3226 6.07815 13.3226C7.26805 13.3226 8.13778 10.0972 11.3168 5.67378C13.108 3.18245 15.4146 -1.22842 13.5468 0.322737L13.5468 0.322737Z" transform="translate(0 30.67188)" id="Shape" fill="url(#gradient_45)" stroke="none" />
      <g id="Group" transform="translate(11.54346 30.16113)">
        <path d="M5.55349 4.3399C5.2877 4.3399 5.03704 4.18112 4.93268 3.91977C4.01483 1.62558 2.83919 0.940526 0.867001 1.55331C0.512905 1.6648 0.139156 1.4659 0.0303246 1.11354C-0.0793775 0.76032 0.11776 0.385672 0.470059 0.27597C3.13176 -0.551804 4.99599 0.478443 6.17522 3.42292C6.31258 3.76635 6.14577 4.15526 5.80234 4.29262C5.72117 4.32474 5.63646 4.3399 5.55349 4.3399L5.55349 4.3399Z" id="Shape" fill="#9F36AD" stroke="none" />
      </g>
      <path d="M0.901082 0.362426C1.02684 0.886927 1.35067 1.42746 1.72349 1.87346C2.1035 2.32212 2.56463 2.68874 3.07574 2.9162C4.09709 3.39252 5.28519 3.21144 6.3422 2.69141C6.6749 2.52729 7.07543 2.66285 7.23952 2.99468C7.40362 3.32651 7.26718 3.72789 6.93622 3.89113C6.92196 3.89737 6.90677 3.9054 6.89251 3.91076C6.23244 4.18104 5.51794 4.38798 4.7669 4.4076C4.0194 4.43973 3.24784 4.27648 2.58244 3.92772C1.91524 3.58342 1.35954 3.07945 0.926017 2.50766C0.500547 1.92697 0.152657 1.3017 0.00816641 0.542604C-0.0390899 0.295515 0.123258 0.0564572 0.37032 0.00830252C0.611174 -0.0380827 0.843972 0.114439 0.900156 0.349931L0.901082 0.362426L0.901082 0.362426Z" transform="translate(0.7395019 48.6745)" id="Shape" fill="#954374" stroke="none" />
      <g id="Group" transform="translate(15.40405 76.33807)">
        <path d="M6.18121 9.52998C1.16197 9.52998 0.100501 6.82189 0.0559127 6.70236C-0.115364 6.24031 0.120155 5.72743 0.583082 5.55615C1.04514 5.38757 1.55804 5.62127 1.72839 6.08332C1.75338 6.13864 2.58113 7.92975 6.79669 7.73171C16.5872 7.27056 23.3743 0.34337 23.4421 0.272894C23.7846 -0.0812286 24.3484 -0.0928249 24.7034 0.2506C25.0575 0.592228 25.0682 1.15685 24.7257 1.51187C24.4305 1.81782 17.3713 9.01974 6.87966 9.51392C6.6388 9.52462 6.40601 9.52998 6.18121 9.52998L6.18121 9.52998Z" id="Shape" fill="#1AA9E8" stroke="none" />
      </g>
      <path d="M23.6052 46.4162C22.6588 46.6482 21.3038 46.2325 21.4029 44.3004C21.5875 40.6584 27.8386 35.0737 27.6852 29.9171C27.497 23.6544 15.7343 22.2603 7.65019 19.1017C-1.05385 15.7006 -0.935218 5.64604 1.23857 2.35816C3.63623 -1.26598 7.87318 -0.0760837 9.65717 1.7079C11.4411 3.49188 12.2582 5.47299 13.821 5.42481C15.6228 5.36863 14.9538 1.85685 17.6851 1.85685C20.452 1.85685 22.847 6.95993 24.7479 9.06681C27.9992 12.6722 45.063 18.298 45.9309 30.5486C47.1225 47.3475 30.3977 60.4303 28.5388 60.4303C25.3732 60.4312 25.5408 56.7678 26.8922 56.0345C28.2463 55.3013 30.7947 53.7537 30.1497 50.2161C29.5039 46.6794 25.7129 45.8989 23.6052 46.4162L23.6052 46.4162Z" transform="translate(9.239991 0)" id="Shape" fill="url(#gradient_46)" stroke="none" />
      <path d="M8.9879 7.45468C10.4793 8.01307 11.6415 9.21011 12.1117 10.7033C12.2232 10.5445 12.2758 10.3438 12.2178 10.1413C11.1466 6.30667 5.55909 2.90017 2.55935 1.0707C1.92515 0.684454 1.37838 0.350856 1.05548 0.122523C0.753978 -0.0906744 0.33564 -0.0184016 0.123367 0.283075C-0.0907016 0.584579 -0.0193272 1.00202 0.283919 1.21522C0.642479 1.46944 1.18124 1.7968 1.86276 2.21247C3.81704 3.40504 6.93007 5.30319 8.9879 7.45468L8.9879 7.45468Z" transform="translate(27.17261 39.11322)" id="Shape" fill="#9F36AD" stroke="none" />
    </g>
    <g id="girl_x5F_left_hand" transform="translate(424.4734 326.622)">
      <path d="M10.4115 0.0151079C12.216 -0.337218 14.2613 5.55793 15.1533 8.90289C16.0453 12.2479 16.6919 17.9102 19.9664 21.6512C22.9582 25.0702 32.5292 28.1922 32.5292 28.1922C32.5292 28.1922 33.5693 33.7671 31.0413 36.8891C28.5153 40.0111 24.785 39.8532 24.785 39.8532C24.785 39.8532 13.7974 28.9352 9.18759 25.7392C4.57956 22.5432 1.75556 18.2313 1.04819 15.1468C0.291759 11.8464 -0.251417 10.2034 0.119611 6.56141C0.320287 4.58476 1.09724 1.95964 1.09724 1.95964C1.09724 1.95964 7.94058 12.8187 9.7085 15.6303C11.5674 15.2583 10.6754 10.1294 10.4524 8.04836C10.2294 5.96734 8.57577 0.372797 10.4115 0.0151079L10.4115 0.0151079Z" id="Shape" fill="url(#gradient_47)" stroke="none" />
      <path d="M83.2669 0.29067C91.07 -1.06158 95.6521 2.45286 98.0944 7.74682C100.77 13.5448 100.213 20.7181 96.0508 24.8802C91.8888 29.0422 65.0854 60.8943 50.967 60.4902C35.2091 60.0389 0.365311 40.1493 0.0138829 38.1111C-0.339342 36.0729 6.16417 24.7937 7.07669 25.1219C7.9874 25.4502 44.0158 39.0611 49.3695 37.6196C54.7214 36.179 77.8435 1.23084 83.2669 0.29067L83.2669 0.29067Z" transform="translate(23.81934 2.49408)" id="Shape" fill="url(#gradient_48)" stroke="none" />
      <g id="Group" transform="translate(22.93311 26.7146)">
        <path d="M0.890465 14.7647C0.465866 14.7647 0.0957103 14.4739 0.0207971 14.0431C-0.389538 11.6766 5.38346 1.76664 7.04434 0.371572C7.45914 0.0228115 7.86763 -0.080657 8.26457 0.0620648C8.72842 0.228877 8.96835 0.739986 8.80246 1.20291C8.69276 1.50619 8.43585 1.71492 8.14147 1.77557C6.76424 2.93071 1.58178 12.1869 1.77892 13.7407C1.84044 14.2215 1.50866 14.6827 1.02962 14.754C0.983236 14.762 0.935979 14.7647 0.890465 14.7647L0.890465 14.7647Z" id="Shape" fill="#1AA9E8" stroke="none" />
      </g>
    </g>
    <g id="guy_x5F_tablet" transform="translate(191.0269 486.6201)">
      <path d="M0 39.1914C0 40.5731 1.12035 41.6926 2.50203 41.6926L57.9526 41.6926C59.3343 41.6926 60.4546 40.5731 60.4546 39.1914L60.4546 2.50116C60.4546 1.11945 59.3343 0 57.9526 0L2.50203 0C1.12032 0 0 1.11945 0 2.50116L0 39.1914L0 39.1914Z" transform="translate(2.107667 1.453065)" id="Shape" fill="url(#gradient_49)" stroke="none" />
      <path d="M2.67597 0L61.9933 0C63.4713 0 64.6693 1.19703 64.6693 2.67597L64.6693 41.9236C64.6693 43.4016 63.4713 44.5995 61.9933 44.5995L2.67597 44.5995C1.19793 44.5995 0 43.4016 0 41.9236L0 2.67597C0 1.19796 1.19793 0 2.67597 0ZM4.45996 40.1396L60.2093 40.1396L60.2093 4.45996L4.45996 4.45996L4.45996 40.1396Z" id="Shape" fill="url(#gradient_50)" fill-rule="evenodd" stroke="none" />
      <g id="Group" transform="translate(2.634277 25.03638)">
        <path d="M0 0L47.2023 0L47.2023 4.45996L0 4.45996L0 0Z" id="Rectangle" fill="#FDE1A7" stroke="none" />
      </g>
      <path d="M6.09051 0L12.2176 7.15999L0 7.19304L6.09051 0Z" transform="translate(37.6189 14.49841)" id="Polygon" fill="#00E2EC" stroke="none" />
      <path d="M0 3.59651C0 1.61021 1.61021 0 3.5965 0C5.5828 0 7.19301 1.61021 7.19301 3.59651C7.19301 5.5828 5.5828 7.19302 3.5965 7.19302C1.61021 7.19302 0 5.5828 0 3.59651Z" transform="translate(23.8457 14.49841)" id="Circle" fill="#F95FC3" stroke="none" />
    </g>
    <g id="guy_x5F_left_leg" transform="translate(119.4829 419.1951)">
      <path d="M19.0931 1.92101C20.737 6.03666 27.7695 7.76174 33.67 9.15863C40.029 10.6643 44.5585 11.5331 44.2998 14.0646C44.0028 16.9635 30.1769 17.9296 20.142 17.6325C10.1071 17.3355 2.83743 16.1527 1.35138 15.0377C-0.21852 13.8603 -0.14984 3.21174 0.221228 0.833682C0.592296 -1.54438 19.0931 1.92101 19.0931 1.92101L19.0931 1.92101Z" transform="translate(2.357178 239.9949)" id="Shape" fill="url(#gradient_51)" stroke="none" />
      <path d="M10.1242 0.214259C8.78624 5.12018 5.36725 16.4191 4.17732 37.8268C2.9874 59.2346 4.47436 124.945 4.47436 141.001C4.47436 157.056 0.609364 185.599 0.311453 204.926C0.0135426 224.253 -0.369135 242.426 0.757448 243.133C3.24789 244.694 17.5197 245.809 22.3142 243.133C23.1509 242.666 30.937 175.193 36.289 146.947C39.8195 128.311 53.5338 27.1211 54.4258 12.2552C55.3178 -2.61069 10.1242 0.214259 10.1242 0.214259L10.1242 0.214259Z" transform="translate(0.8530273 0)" id="Shape" fill="url(#gradient_52)" stroke="none" />
      <g id="Group" transform="translate(0 234.6586)">
        <path d="M14.0877 3.95337C7.47092 3.95337 2.35804 2.63144 0.490203 1.6886C0.0504548 1.46647 -0.126157 0.930429 0.0959417 0.490639C0.317156 0.0509041 0.85324 -0.126634 1.29389 0.0963639C3.88244 1.40223 13.2189 3.46986 24.1003 1.10432C24.5828 0.999081 25.0565 1.30592 25.1609 1.78758C25.2652 2.26836 24.9602 2.74381 24.4785 2.84818C20.7973 3.64833 17.2685 3.95337 14.0877 3.95337L14.0877 3.95337Z" id="Shape" fill="#CD218F" stroke="none" />
      </g>
    </g>
    <g id="guy_x5F_right_leg" transform="translate(140.8662 421.3324)">
      <path d="M20.3074 0.0659301C21.7195 2.59381 28.0089 5.73097 33.9103 7.1278C40.2693 8.63347 44.7988 9.50227 44.5401 12.0337C44.2431 14.9327 30.4172 15.8987 20.3824 15.6017C10.3475 15.3047 3.5835 14.9327 2.09656 13.8177C0.526652 12.6403 -0.282367 4.22797 0.0895856 1.84991C0.461538 -0.528149 20.3074 0.0659301 20.3074 0.0659301L20.3074 0.0659301Z" transform="translate(52.1665 244.8693)" id="Shape" fill="url(#gradient_53)" stroke="none" />
      <path d="M52.9498 8.6319C53.6188 17.5518 59.6397 125.706 60.9777 143.545C62.3157 161.385 68.1867 243.734 67.4446 245.307C66.2181 247.908 47.2633 250.807 44.3644 248.243C42.5099 246.602 36.522 204.871 31.765 177.516C27.008 150.161 16.6012 101.697 11.2492 82.6679C5.89729 63.6391 -3.9146 32.4926 1.66034 4.84094C6.78928 -0.956995 18.1666 -0.826768 30.65 1.49598C43.5036 3.88743 52.9498 8.6319 52.9498 8.6319L52.9498 8.6319Z" transform="translate(7.482422 0)" id="Shape" fill="url(#gradient_54)" stroke="none" />
      <path d="M13.2743 51.2562C12.2395 47.0611 11.1808 42.8732 10.0604 38.7041C8.95257 34.5331 7.69576 30.4059 6.48533 26.251C4.05108 17.9492 1.76224 9.58149 0.0184016 1.07187C-0.0806025 0.589288 0.229803 0.118359 0.713268 0.0184017C1.19584 -0.0806297 1.66681 0.229803 1.76671 0.712383C1.76671 0.715977 1.76849 0.724851 1.76939 0.728444C3.34822 9.19255 5.47829 17.5585 7.76267 25.8888C8.89638 30.0544 10.0863 34.2218 11.1246 38.4267C12.1744 42.627 13.1601 46.8391 14.1217 51.0555C14.1752 51.2901 14.0289 51.5229 13.7934 51.5764C13.5624 51.6299 13.3314 51.4863 13.2743 51.2562L13.2743 51.2562Z" transform="translate(9.56665 49.40588)" id="Shape" fill="#CD218F" stroke="none" />
      <g id="Group" transform="translate(0 41.93292)">
        <path d="M10.4503 9.20861C10.3343 9.20861 10.2166 9.18629 10.1033 9.13816C7.49422 8.03744 1.58034 3.77196 0.127274 1.35111C-0.126049 0.928303 0.0104258 0.380609 0.433228 0.127287C0.855146 -0.126035 1.40283 0.010453 1.65703 0.433255C2.82554 2.38046 8.264 6.42566 10.7981 7.49606C11.2522 7.68786 11.4645 8.21057 11.2727 8.66456C11.1282 9.00434 10.7982 9.20861 10.4503 9.20861L10.4503 9.20861Z" id="Shape" fill="#CD218F" stroke="none" />
      </g>
      <g id="Group" transform="translate(49.07446 237.1893)">
        <path d="M8.12689 5.83795C4.62494 5.83795 1.79198 5.45707 0.579761 5.00307C0.117705 4.83092 -0.11599 4.31622 0.057056 3.85509C0.229204 3.39391 0.744777 3.16291 1.20504 3.33239C4.06298 4.40099 17.507 4.97367 25.2335 0.136379C25.6518 -0.125872 26.2013 0.00168773 26.4626 0.419155C26.724 0.836622 26.5973 1.38698 26.1799 1.64831C21.0456 4.86299 13.7295 5.83795 8.12689 5.83795L8.12689 5.83795Z" id="Shape" fill="#CD218F" stroke="none" />
      </g>
    </g>
    <g id="guy_x5F_left_hand" transform="translate(144.7783 179.481)">
      <path d="M23.702 93.5448C29.0539 82.841 50.6481 36.5547 52.8781 33.7298C55.1081 30.9048 56.8582 30.35 57.487 26.0738C58.0088 22.5237 57.7278 20.0716 58.379 17.3029C59.271 13.5119 64.6515 3.38961 63.2849 0.429091C62.3929 -1.50386 58.825 3.62598 57.487 5.26099C56.149 6.896 52.1752 13.2827 51.2261 12.6913C50.9737 10.2044 51.3001 1.842 51.3001 1.842C49.608 3.84898 47.2666 8.97792 45.9286 14.3299C44.5906 19.6818 44.9991 21.5398 42.0261 27.6357C39.0531 33.7316 14.5974 60.4904 2.10956 88.3651C1.38705 89.9769 0.685952 91.6226 0 93.2933C5.27791 96.9941 12.3318 100.727 20.8289 102.21C21.7182 98.6069 22.6878 95.5723 23.702 93.5448L23.702 93.5448Z" id="Shape" fill="url(#gradient_55)" stroke="none" />
    </g>
    <g id="guy_x5F_body" transform="translate(126.5 272.7733)">
      <path d="M50.6507 54.8351C34.8045 50.3876 36.3655 52.796 34.6359 52.0226C32.7386 50.1245 35.0864 24.3246 38.8934 8.91633C30.3963 7.43386 23.3433 3.70175 18.0645 0C6.86112 27.3011 0.52442 62.0816 0.104299 89.3997C-0.341696 118.389 0.773291 147.379 0.996289 148.717C1.21929 150.055 21.5031 162.542 44.0348 162.766C66.4835 162.989 74.5855 157.191 74.5855 157.191C74.5855 157.191 79.0847 77.7164 78.3586 75.4927C77.6325 73.2689 66.4969 59.2825 50.6507 54.8351L50.6507 54.8351Z" transform="translate(0.2126464 0)" id="Shape" fill="url(#gradient_56)" stroke="none" />
      <g id="Group" transform="translate(0 141.5128)">
        <path d="M47.4069 15.8494C46.7174 15.8494 46.0163 15.8431 45.2965 15.8307C18.6723 15.3713 2.15983 3.63002 0.229558 1.48925C-0.100474 1.12353 -0.0710478 0.558909 0.294671 0.228877C0.66039 -0.100256 1.22413 -0.07083 1.55416 0.293991C3.11515 2.02535 19.3984 13.5998 45.3268 14.0467C67.2091 14.4258 74.5198 8.75627 74.5912 8.69921C74.9747 8.3915 75.5376 8.45302 75.8453 8.83657C76.154 9.22105 76.0924 9.78295 75.708 10.0907C75.4065 10.3342 68.2804 15.8494 47.4069 15.8494L47.4069 15.8494Z" id="Shape" fill="#05C5DA" stroke="none" />
      </g>
      <g id="Group" transform="translate(46.41309 55.79381)">
        <path d="M17.9577 16.5894C17.6366 16.5894 17.3261 16.4163 17.1674 16.1122C14.379 10.8021 4.84901 3.38882 0.56924 1.72347C0.109852 1.54506 -0.117596 1.02772 0.0607989 0.569226C0.239208 0.109838 0.75655 -0.117596 1.21504 0.0607853C5.83911 1.85903 15.7384 9.55601 18.7462 15.2826C18.9754 15.7188 18.8077 16.2575 18.3716 16.4868C18.2387 16.5573 18.0968 16.5894 17.9577 16.5894L17.9577 16.5894Z" id="Shape" fill="#05C5DA" stroke="none" />
      </g>
      <g id="Group" transform="translate(18.84253 4.68805)">
        <path d="M1.22382 40.5947C0.79745 40.5947 0.421918 40.2896 0.346106 39.8552C-1.47713 29.3788 4.36184 12.5755 7.16804 4.50122C7.77459 2.75469 8.25449 1.37569 8.44358 0.662977C8.56936 0.186657 9.05816 -0.0969897 9.53449 0.0305424C10.0108 0.157203 10.2945 0.645119 10.1669 1.12144C9.96086 1.89926 9.49613 3.23635 8.85212 5.08724C6.09497 13.0206 0.358587 29.5287 2.10243 39.5502C2.18717 40.0354 1.86159 40.4975 1.37635 40.5822C1.3255 40.5903 1.27377 40.5947 1.22382 40.5947L1.22382 40.5947Z" id="Shape" fill="#05C5DA" stroke="none" />
      </g>
      <g id="Group" transform="translate(8.345215 43.41265)">
        <path d="M0.892643 5.62451C0.64467 5.62451 0.397595 5.52104 0.220969 5.32034C-0.103713 4.94928 -0.0662568 4.38643 0.304811 4.06173C2.09147 2.49895 11.725 -2.79945 22.8695 1.904C23.3235 2.09577 23.5367 2.61848 23.3449 3.0725C23.154 3.52653 22.6313 3.7397 22.1764 3.54793C11.8231 -0.820153 2.8229 4.22851 1.47956 5.40415C1.31008 5.55136 1.10046 5.62451 0.892643 5.62451L0.892643 5.62451Z" id="Shape" fill="#05C5DA" stroke="none" />
      </g>
    </g>
    <g id="guy_x5F_head" transform="translate(141.8987 239.195)">
      <g id="Group">
        <path d="M0.563673 0C3.96038 5.62489 10.7181 6.68993 11.2756 8.5854C11.8331 10.4809 8.15362 14.2718 7.03863 14.9408C5.92364 15.6098 0.571703 4.68295 0.125708 3.45646C-0.320287 2.22998 0.563673 0 0.563673 0L0.563673 0Z" transform="translate(42.43774 26.30865)" id="Shape" fill="url(#gradient_57)" stroke="none" />
        <path d="M27.1635 0C27.1635 0 11.7205 4.51526 4.13856 15.0711C-0.0475421 20.8993 5.14918 31.1652 10.643 39.1949C8.80278 40.7666 7.85549 42.5738 7.85549 42.5738L7.14903 44.5433C6.7405 49.0407 1.84614 64.5248 0.06216 69.1337C-0.601484 70.8481 4.04579 77.1518 14.1734 77.6584C23.0933 78.1044 29.0402 73.8675 29.0402 73.8675L29.8948 54.299C29.8948 54.299 30.1945 53.0743 30.5174 51.4072C34.831 50.8577 39.7361 49.1665 43.8321 44.9518C54.09 34.3969 32.9053 4.62676 27.1635 0L27.1635 0Z" transform="translate(6.42456 14.54596)" id="Shape" fill="url(#gradient_58)" stroke="none" />
        <path d="M30.485 41.658C31.6152 40.8936 31.303 38.536 28.627 35.86C25.9511 33.1841 23.1261 30.8051 23.647 27.9811C24.1635 25.1794 33.3885 22.193 37.7191 18.9827C44.8318 13.7093 47.1358 0.923458 42.8248 0.106408C36.91 -1.01481 35.0217 7.09337 33.4589 7.09337C31.6009 7.09337 32.5518 2.75919 29.8865 3.07229C26.0251 3.52541 24.5381 9.02631 22.3091 10.7354C18.9677 13.2972 1.19834 18.7633 0.0833519 31.9942C-0.824699 42.765 5.92143 48.8894 8.89175 52.7329C12.0512 56.8209 13.0261 58.9234 13.5747 59.0884C14.5595 59.3845 18.8954 58.7387 22.6061 57.1929C26.6201 55.5204 29.073 53.4019 28.2925 52.3984C27.512 51.395 21.6767 50.2746 21.2681 45.374C20.9711 41.8061 23.3866 40.2451 25.2821 40.5796C27.1776 40.9141 29.2211 42.5134 30.485 41.658L30.485 41.658Z" id="Shape" fill="url(#gradient_59)" stroke="none" />
        <path d="M2.00788 0.215212C2.7063 0.236608 3.23436 4.9722 5.96652 5.62334C7.78619 6.05594 13.6412 1.99919 16.2806 0.828891C17.8835 0.117977 20.7414 -0.36904 20.9252 0.364167C21.1089 1.09738 21.521 3.78407 22.5245 6.18083C23.3719 8.20477 25.312 10.0646 24.3647 14.2087C22.9732 20.2948 12.3781 24.8573 5.13071 23.7976C4.96303 22.069 4.72128 19.3885 3.51355 14.5432C2.11937 8.94957 -0.0508495 3.85808 0.000898306 2.83587C0.0758388 1.36766 0.818846 0.177756 2.00788 0.215212L2.00788 0.215212Z" transform="translate(31.1897 45.04816)" id="Shape" fill="url(#gradient_60)" stroke="none" />
        <g id="Group" transform="translate(37.41382 28.21234)">
          <path d="M3.55136 7.05366C2.96531 7.05366 2.42744 6.66564 2.26332 6.07336C1.95648 4.9673 0.553383 2.53216 0.272404 2.15841C-0.167357 1.57416 -0.065658 0.733017 0.512361 0.285226C1.08948 -0.161668 1.911 -0.0769276 2.36769 0.493959C2.72717 0.942622 4.40946 3.7979 4.84206 5.35798C5.04007 6.0698 4.62263 6.80747 3.91081 7.00548C3.79041 7.0376 3.66909 7.05366 3.55136 7.05366L3.55136 7.05366Z" id="Shape" fill="#0090B2" stroke="none" />
        </g>
        <path d="M1.24848 1.01911C1.40637 1.28403 1.89161 1.60873 2.32422 1.78178C2.77557 1.96732 3.26259 2.05739 3.72998 2.00477C4.67816 1.92183 5.47561 1.15204 5.96799 0.194932C6.05719 0.0192183 6.27126 -0.0503596 6.44698 0.0388449C6.61379 0.123585 6.68424 0.325187 6.61289 0.495538C6.3774 1.04947 6.06966 1.59803 5.61743 2.06099C5.175 2.52751 4.56132 2.87983 3.90036 3.01542C3.2376 3.15368 2.55614 3.08857 1.93264 2.89679C1.30556 2.67826 0.725777 2.45259 0.173645 1.8148L0.163846 1.8032C-0.0787787 1.52312 -0.0484541 1.09765 0.231627 0.855024C0.511708 0.6124 0.937178 0.642725 1.1798 0.923704C1.20476 0.952205 1.22886 0.986994 1.24848 1.01911L1.24848 1.01911Z" transform="translate(46.69458 48.81488)" id="Shape" fill="#F1D2F8" stroke="none" />
        <g id="Group" transform="translate(5.53418 77.55878)">
          <path d="M14.1726 14.6456C23.0925 15.0916 29.0393 10.8546 29.0393 10.8546L29.3506 3.72494C27.1046 4.9327 22.2566 7.01015 15.8691 6.69082C8.11593 6.30281 3.5864 2.52255 2.18064 0C1.3386 2.58856 0.572384 4.80158 0.06216 6.12083C-0.601484 7.83523 4.04489 14.1389 14.1726 14.6456L14.1726 14.6456Z" transform="translate(0.8916019 0)" id="Shape" fill="url(#gradient_61)" stroke="none" />
          <g id="Group" transform="translate(0 5.227478)">
            <path d="M16.394 10.3431C15.9436 10.3431 15.486 10.3324 15.0195 10.3083C7.53478 9.93454 2.70466 6.45133 0.842189 3.58268C0.0795409 2.40795 -0.176463 1.33845 0.120563 0.570424C0.298959 0.111036 0.81543 -0.117297 1.27391 0.0602136C1.7315 0.237724 1.95984 0.750602 1.78591 1.20909C1.76004 1.31969 1.81624 1.91823 2.56284 2.93509C4.39142 5.42552 8.648 8.20318 15.1078 8.52608C23.62 8.94442 29.3546 4.9403 29.4126 4.89925C29.8131 4.6129 30.3697 4.70657 30.6569 5.10798C30.9424 5.50938 30.8496 6.06598 30.4482 6.35229C30.2083 6.52447 24.7466 10.3431 16.394 10.3431L16.394 10.3431Z" id="Shape" fill="#05C5DA" stroke="none" />
          </g>
        </g>
      </g>
    </g>
    <g id="guy_x5F_right_hand" transform="translate(175.8022 342.6339)">
      <path d="M37.8454 92.9035C35.3175 85.169 32.654 34.9357 28.1378 0C15.6036 0.331829 5.40725 3.47252 0 6.05749C1.27287 11.9357 3.10591 19.6273 6.0129 29.7398C13.9668 57.4111 24.6332 88.9457 24.8187 95.7471C24.9284 99.7593 21.513 104.469 21.0777 110.394C20.7861 114.367 22.4023 120.834 23.9267 120.723C25.8597 120.582 25.6982 114.696 26.4725 111.914C27.699 107.51 30.3196 106.005 30.3196 106.005C30.3196 106.005 35.8946 106.019 45.2944 106.019C43.9742 101.28 38.947 96.2761 37.8454 92.9035L37.8454 92.9035Z" transform="translate(8.334473 37.96679)" id="Shape" fill="url(#gradient_62)" stroke="none" />
      <path d="M27.6856 3.78404C18.7657 -5.73081 1.66892 4.23004 0.0338906 16.7179C-0.315768 19.3876 2.11491 22.5167 3.89889 27.1247C4.9568 29.8569 5.62043 34.5702 7.47488 43.136C12.8821 40.551 23.0785 37.4103 35.6127 37.0785C33.4559 20.3893 30.8762 7.18696 27.6856 3.78404L27.6856 3.78404Z" transform="translate(0.8586429 0.8883658)" id="Shape" fill="url(#gradient_63)" stroke="none" />
      <g id="Group" transform="translate(7.441649 37.07482)">
        <path d="M0.89278 7.8415C0.56008 7.8415 0.240746 7.65419 0.087299 7.33486C-0.125001 6.88976 0.063208 6.35723 0.507434 6.14493C3.3065 4.80694 13.6357 0.40764 29.0065 0C29.5007 0.0026677 29.9092 0.376417 29.9217 0.868798C29.9351 1.36118 29.5462 1.77149 29.0538 1.78398C17.1208 2.09975 6.88072 5.07453 1.27725 7.75406C1.15323 7.81387 1.02211 7.8415 0.89278 7.8415L0.89278 7.8415Z" id="Shape" fill="#05C5DA" stroke="none" />
      </g>
      <g id="Group">
        <path d="M0.893433 18.4983C0.855078 18.4983 0.815825 18.4956 0.776571 18.4911C0.288655 18.4269 -0.0565388 17.9791 0.00767643 17.4903C0.95498 10.2589 7.09631 3.25502 14.6104 0.835968C20.2532 -0.981004 25.5694 0.194633 29.1954 4.0632C29.5326 4.42268 29.5138 4.98731 29.1552 5.32447C28.7966 5.66164 28.2311 5.64381 27.894 5.28432C23.6017 0.705741 18.0714 1.59593 15.1572 2.53521C8.26572 4.75359 2.63906 11.1411 1.77739 17.7231C1.71851 18.1709 1.33496 18.4983 0.893433 18.4983L0.893433 18.4983Z" id="Shape" fill="#05C5DA" stroke="none" />
      </g>
    </g>
    <g id="joints_x5F_4" transform="translate(438.2378 186.08)">
      <g id="Group">
        <path d="M9.38822 9.39892L0 8.58094L8.6969 0L9.38822 9.39892Z" transform="translate(25.82861 62.76221)" id="Polygon" fill="#F95FC3" stroke="none" />
        <g id="Group" transform="translate(0 2.637878)">
          <path d="M2.04106 98.231C1.66551 98.231 1.31588 97.992 1.19366 97.6165C-3.38405 83.6301 5.65361 74.9626 20.6256 60.6007C23.7173 57.6357 27.2219 54.2747 30.8434 50.6238C52.161 29.1357 47.999 7.31494 46.215 1.13881C46.0785 0.666053 46.3515 0.170991 46.8252 0.0345167C47.3006 -0.100175 47.793 0.170991 47.9294 0.644643C49.7812 7.05626 54.1127 29.7021 32.11 51.8797C28.4725 55.5457 24.9598 58.9157 21.861 61.8878C7.393 75.7645 -1.33962 84.1403 2.88841 97.0608C3.04183 97.5291 2.78671 98.033 2.31752 98.1856C2.22655 98.2168 2.1329 98.231 2.04106 98.231L2.04106 98.231Z" id="Shape" fill="#1AA9E8" stroke="none" />
        </g>
        <g id="Group" transform="translate(41.21021 28.96027)">
          <path d="M3.16568 30.1716L0 27.0309C8.10103 18.8647 13.3013 9.76997 15.4582 0L19.8138 0.961568C17.4723 11.5691 11.8715 21.3971 3.16568 30.1716L3.16568 30.1716Z" id="Shape" fill="#00E2EC" stroke="none" />
        </g>
        <path d="M0 3.5305C0 1.58066 1.58066 0 3.5305 0C5.48034 0 7.06099 1.58066 7.06099 3.5305C7.06099 5.48034 5.48034 7.06099 3.5305 7.06099C1.58066 7.06099 0 5.48034 0 3.5305Z" transform="translate(43.54272 0)" id="Circle" fill="#FDE1A7" stroke="none" />
      </g>
    </g>
    <g id="joints_x5F_3" transform="translate(345.2612 215.2801)">
      <g id="Group">
        <g id="Group" transform="translate(2.639648 0.3005979)">
          <path d="M84.3473 74.9361C84.209 74.9361 84.0672 74.9031 83.9352 74.8335C83.6738 74.6961 77.5459 71.3512 79.007 61.1326C79.8338 55.3417 83.6079 50.4706 87.604 45.314C92.7998 38.608 98.1731 31.6737 97.4346 22.0794C97.1491 18.3625 95.2412 15.096 91.7642 12.3692C73.1412 -2.23711 15.6453 1.69567 1.03719 4.11029C0.54391 4.1861 0.0916816 3.86143 0.0123041 3.37529C-0.0688701 2.88914 0.260291 2.42978 0.74641 2.3495C15.5258 -0.0927705 73.7718 -4.00949 92.8649 10.9652C96.7513 14.0132 98.8876 17.7069 99.2132 21.943C100.004 32.2231 94.1655 39.7587 89.0133 46.4067C85.1662 51.3715 81.5322 56.0616 80.7731 61.385C79.4985 70.3004 84.5534 73.1405 84.7684 73.2574C85.2001 73.4911 85.3651 74.0298 85.134 74.4633C84.9744 74.7639 84.6657 74.9361 84.3473 74.9361L84.3473 74.9361Z" id="Shape" fill="#1AA9E8" stroke="none" />
        </g>
        <g id="Group" transform="translate(41.19653 8.233091)">
          <path d="M30.2474 6.59805C21.7173 5.19585 11.5415 4.47601 0 4.45995L0.007132 0C11.7876 0.0169589 22.2043 0.755502 30.9708 2.19698L30.2474 6.59805L30.2474 6.59805Z" id="Shape" fill="#C7A0F6" stroke="none" />
        </g>
        <path d="M0 3.5305C0 1.58066 1.58066 0 3.5305 0C5.48034 0 7.06099 1.58066 7.06099 3.5305C7.06099 5.48034 5.48034 7.06099 3.5305 7.06099C1.58066 7.06099 0 5.48034 0 3.5305Z" id="Circle" fill="#FDE1A7" stroke="none" />
      </g>
    </g>
    <g id="joints_x5F_2" transform="translate(60.2583 178.8808)">
      <g id="Group">
        <path d="M9.25618 1.77148L6.02718 10.6254L0 0L9.25618 1.77148Z" transform="translate(23.80664 120.391)" id="Polygon" fill="#F95FC3" stroke="none" />
        <g id="Group" transform="translate(0 2.636962)">
          <path d="M125.471 193.535C124.766 193.535 124.063 193.529 123.357 193.519C87.7125 192.98 55.9844 179.115 34.0182 154.476C8.18173 125.497 -4.08225 88.7662 1.21082 56.2228C5.18552 31.7885 18.6671 11.8641 39.173 0.118413C39.6003 -0.126879 40.1453 0.0211918 40.3906 0.449343C40.6359 0.877495 40.4869 1.42161 40.0597 1.66691C20.0292 13.1397 6.85802 32.6172 2.97162 56.51C-2.23671 88.528 9.8667 124.707 35.35 153.29C81.2491 204.773 164.74 204.873 225.426 153.513C235.924 144.629 244.874 135.466 253.53 126.605C274.12 105.528 291.902 87.3247 318.88 86.6477C344.081 86.0162 356.597 99.0285 362.663 110.056C362.901 110.488 362.743 111.03 362.312 111.268C361.879 111.507 361.337 111.348 361.1 110.916C355.273 100.322 343.237 87.826 318.925 88.4308C292.671 89.09 275.125 107.053 254.806 127.851C246.121 136.742 237.14 145.935 226.578 154.873C197.065 179.853 161.238 193.534 125.471 193.535L125.471 193.535Z" id="Shape" fill="#1AA9E8" stroke="none" />
        </g>
        <g id="Group" transform="translate(13.84131 76.51849)">
          <path d="M6.61143 35.7929C2.43156 23.9054 0.206951 11.8893 0 0.0785065L4.45905 0C4.65797 11.3327 6.79784 22.8769 10.8189 34.3131L6.61143 35.7929L6.61143 35.7929Z" id="Shape" fill="#C7A0F6" stroke="none" />
        </g>
        <g id="Group" transform="translate(156.4028 170.6921)">
          <path d="M0.974062 14.7856L0 10.4336C10.4265 8.09926 20.7432 4.58928 30.6639 0L32.5362 4.04784C22.3292 8.77094 11.7101 12.3835 0.974062 14.7856L0.974062 14.7856Z" id="Shape" fill="#00E2EC" stroke="none" />
        </g>
        <path d="M0 3.5305C0 1.58066 1.58066 0 3.5305 0C5.48034 0 7.061 1.58066 7.061 3.5305C7.061 5.48034 5.48034 7.06099 3.5305 7.06099C1.58066 7.06099 0 5.48034 0 3.5305Z" transform="translate(36.08667 0)" id="Circle" fill="#FDE1A7" stroke="none" />
      </g>
    </g>
    <g id="joints_x5F_1" transform="translate(322.239 328.2773)">
      <g id="Group">
        <path d="M9.26152 8.86372L0 10.612L6.05572 0L9.26152 8.86372Z" transform="translate(65.9314 96.6134)" id="Polygon" fill="#00E2EC" stroke="none" />
        <g id="Group" transform="translate(2.639893 0)">
          <path d="M4.39358 126.1C3.16263 126.1 1.9754 126.067 0.841685 126.003C0.350203 125.976 -0.0262142 125.554 0.00144273 125.062C0.029998 124.57 0.461702 124.198 0.942485 124.222C18.1436 125.198 47.7247 118.929 58.7104 97.7088C63.6271 88.2118 65.0061 74.5938 66.4645 60.1765C68.8836 36.2828 71.3847 11.5773 89.9577 0.133113C90.3769 -0.126443 90.9256 0.00555316 91.1851 0.42479C91.4429 0.844026 91.3135 1.39349 90.8934 1.65217C73.0714 12.6335 70.6149 36.8947 68.2404 60.3567C66.7633 74.9479 65.3673 88.7309 60.2946 98.5303C49.6487 119.092 22.3342 126.1 4.39358 126.1L4.39358 126.1Z" id="Shape" fill="#1AA9E8" stroke="none" />
        </g>
        <g id="Group" transform="translate(73.88965 53.5401)">
          <path d="M4.33952 34.6743L0 33.645C1.82054 25.9774 2.70896 17.1904 3.6518 7.88609C3.91672 5.26987 4.18343 2.63405 4.47421 0L8.90829 0.489713C8.61931 3.11037 8.3526 5.73282 8.08942 8.33565C7.13237 17.7907 6.22786 26.7196 4.33952 34.6743L4.33952 34.6743Z" id="Shape" fill="#F95FC3" stroke="none" />
        </g>
        <path d="M0 3.53049C0 1.58066 1.58066 0 3.5305 0C5.48034 0 7.06099 1.58066 7.06099 3.53049C7.06099 5.48033 5.48034 7.06099 3.5305 7.06099C1.58066 7.06099 0 5.48033 0 3.53049Z" transform="translate(0 121.582)" id="Circle" fill="#C7A0F6" stroke="none" />
      </g>
    </g>
  </g>
</svg>