<svg width="221px" height="183px" viewBox="0 0 221 183" version="1.1" xmlns:xlink="http://www.w3.org/1999/xlink" xmlns="http://www.w3.org/2000/svg">
  <g id="fulllogo" transform="translate(5 5)">
    <g id="white-logo">
      <path d="M42.3333 0L0 39.9359L41.7435 81.4422" transform="translate(0 44.36996)" id="New-shape" fill="none" stroke="#000000" stroke-width="10" />
      <path d="M0 81.4422L42.3333 41.5064L0.589782 0" transform="translate(168.4446 44.36996)" id="right" fill="none" stroke="#000000" stroke-width="10" />
      <path d="M33.5396 0C33.5396 0 0 82.9789 0 82.9789" transform="translate(130.5513 40.78445)" id="Line" fill="none" stroke="#000000" stroke-width="10" />
      <g id="c" fill="#FF9993" transform="translate(43.44287 1)">
        <path d="M32.52 114.96Q23.88 114.96 17.7 110.46Q11.52 105.96 9.24 98.28Q7.68 93 7.68 83.4Q7.68 74.76 9.24 68.76Q11.4 61.32 17.64 56.82Q23.88 52.32 32.52 52.32Q41.28 52.32 47.7 56.76Q54.12 61.2 56.04 67.8Q56.64 69.96 56.76 71.4L56.76 71.64Q56.76 72.48 55.68 72.72L49.68 73.56L49.44 73.56Q48.6 73.56 48.36 72.48L48 70.68Q46.92 66.12 42.72 62.94Q38.52 59.76 32.52 59.76Q26.52 59.76 22.5 62.94Q18.48 66.12 17.28 71.4Q16.2 75.96 16.2 83.52Q16.2 91.44 17.28 95.76Q18.48 101.16 22.5 104.34Q26.52 107.52 32.52 107.52Q38.4 107.52 42.66 104.46Q46.92 101.4 48 96.6L48 96.12L48.12 95.64Q48.24 94.44 49.56 94.68L55.44 95.64Q56.64 95.88 56.52 96.96L56.04 99.36Q54.24 106.32 47.76 110.64Q41.28 114.96 32.52 114.96Z" />
      </g>
      <g id="c" transform="translate(62.18323 0)">
        <path d="M32.52 114.96Q23.88 114.96 17.7 110.46Q11.52 105.96 9.24 98.28Q7.68 93 7.68 83.4Q7.68 74.76 9.24 68.76Q11.4 61.32 17.64 56.82Q23.88 52.32 32.52 52.32Q41.28 52.32 47.7 56.76Q54.12 61.2 56.04 67.8Q56.64 69.96 56.76 71.4L56.76 71.64Q56.76 72.48 55.68 72.72L49.68 73.56L49.44 73.56Q48.6 73.56 48.36 72.48L48 70.68Q46.92 66.12 42.72 62.94Q38.52 59.76 32.52 59.76Q26.52 59.76 22.5 62.94Q18.48 66.12 17.28 71.4Q16.2 75.96 16.2 83.52Q16.2 91.44 17.28 95.76Q18.48 101.16 22.5 104.34Q26.52 107.52 32.52 107.52Q38.4 107.52 42.66 104.46Q46.92 101.4 48 96.6L48 96.12L48.12 95.64Q48.24 94.44 49.56 94.68L55.44 95.64Q56.64 95.88 56.52 96.96L56.04 99.36Q54.24 106.32 47.76 110.64Q41.28 114.96 32.52 114.96Z" />
      </g>
    </g>
    <g id="CodeCos" transform="translate(46.43787 140.2319)">
      <path d="M39.2461 24.4023L42.9492 24.4023L42.9492 6.63672L39.2461 6.63672L39.2461 13.7734L39.1992 13.7734Q38.2852 12.1094 35.9648 12.1094Q33.5156 12.1094 32.0039 13.9023Q30.4922 15.6953 30.4922 18.6719Q30.4922 21.5195 31.8633 23.1074Q33.2344 24.6953 35.4844 24.6953Q37.9336 24.6953 39.1992 22.75L39.2461 22.75L39.2461 24.4023ZM13.9688 23.8047Q12.1289 24.6953 9.16406 24.6953Q5.29688 24.6953 3.08203 22.4219Q0.867188 20.1484 0.867188 16.3633Q0.867188 12.332 3.35742 9.82422Q5.84766 7.31641 9.82031 7.31641Q12.2813 7.31641 13.9688 7.9375L13.9688 11.582Q12.2813 10.5742 10.125 10.5742Q7.75781 10.5742 6.30469 12.0625Q4.85156 13.5508 4.85156 16.0938Q4.85156 18.5313 6.22266 19.9785Q7.59375 21.4258 9.91406 21.4258Q12.1289 21.4258 13.9688 20.3477L13.9688 23.8047ZM66.6563 24.6953Q69.6211 24.6953 71.4609 23.8047L71.4609 20.3477Q69.6211 21.4258 67.4063 21.4258Q65.0859 21.4258 63.7148 19.9785Q62.3438 18.5313 62.3438 16.0938Q62.3438 13.5508 63.7969 12.0625Q65.25 10.5742 67.6172 10.5742Q69.7734 10.5742 71.4609 11.582L71.4609 7.9375Q69.7734 7.31641 67.3125 7.31641Q63.3398 7.31641 60.8496 9.82422Q58.3594 12.332 58.3594 16.3633Q58.3594 20.1484 60.5742 22.4219Q62.7891 24.6953 66.6563 24.6953ZM22.2539 24.6953Q19.2539 24.6953 17.5371 23.0137Q15.8203 21.332 15.8203 18.4492Q15.8203 15.4727 17.6016 13.791Q19.3828 12.1094 22.418 12.1094Q25.4063 12.1094 27.1055 13.791Q28.8047 15.4727 28.8047 18.2383Q28.8047 21.2266 27.0527 22.9609Q25.3008 24.6953 22.2539 24.6953ZM56.8477 19.457L49.0195 19.457Q49.207 22.0703 52.3125 22.0703Q54.293 22.0703 55.793 21.1328L55.793 23.8047Q54.1289 24.6953 51.4688 24.6953Q48.5625 24.6953 46.957 23.084Q45.3516 21.4727 45.3516 18.5898Q45.3516 15.6016 47.0859 13.8555Q48.8203 12.1094 51.3516 12.1094Q53.9766 12.1094 55.4121 13.668Q56.8477 15.2266 56.8477 17.8984L56.8477 19.457ZM79.7461 24.6953Q76.7461 24.6953 75.0293 23.0137Q73.3125 21.332 73.3125 18.4492Q73.3125 15.4727 75.0938 13.791Q76.875 12.1094 79.9102 12.1094Q82.8984 12.1094 84.5977 13.791Q86.2969 15.4727 86.2969 18.2383Q86.2969 21.2266 84.5449 22.9609Q82.793 24.6953 79.7461 24.6953ZM87.9141 21.0859L87.9141 24.0859Q89.6016 24.6953 91.582 24.6953Q92.6602 24.6953 93.6621 24.4785Q94.6641 24.2617 95.4316 23.7871Q96.1992 23.3125 96.6621 22.5566Q97.125 21.8008 97.125 20.7344Q97.125 19.9727 96.8965 19.4219Q96.668 18.8711 96.2402 18.4609Q95.8125 18.0508 95.2148 17.7461Q94.6172 17.4414 93.8789 17.1836Q93.4688 17.043 93.0527 16.9082Q92.6367 16.7734 92.2969 16.6035Q91.957 16.4336 91.7461 16.1992Q91.5352 15.9648 91.5352 15.6367Q91.5352 15.3906 91.6758 15.1973Q91.8164 15.0039 92.0625 14.8809Q92.3086 14.7578 92.6309 14.6934Q92.9531 14.6289 93.3164 14.6289Q94.0898 14.6289 94.8926 14.834Q95.6953 15.0391 96.3984 15.4492L96.3984 12.5898Q95.6016 12.3555 94.7813 12.2324Q93.9609 12.1094 93.1641 12.1094Q92.1445 12.1094 91.2012 12.3262Q90.2578 12.543 89.5254 13.0059Q88.793 13.4688 88.3535 14.1953Q87.9141 14.9219 87.9141 15.9297Q87.9141 16.668 88.1074 17.207Q88.3008 17.7461 88.6699 18.1563Q89.0391 18.5664 89.584 18.877Q90.1289 19.1875 90.8438 19.457Q91.2891 19.6328 91.7695 19.7734Q92.25 19.9141 92.6543 20.0898Q93.0586 20.2656 93.3164 20.5Q93.5742 20.7344 93.5742 21.0859Q93.5742 21.6367 93.0059 21.9063Q92.4375 22.1758 91.4531 22.1758Q90.6445 22.1758 89.7363 21.9063Q88.8281 21.6367 87.9141 21.0859ZM53.4141 17.1836Q53.4141 14.6055 51.3281 14.6055Q50.4375 14.6055 49.7871 15.3438Q49.1367 16.082 48.9961 17.1836L53.4141 17.1836ZM22.3477 14.9453Q21.0352 14.9453 20.3086 15.8477Q19.582 16.75 19.582 18.4023Q19.582 21.8594 22.3711 21.8594Q25.0312 21.8594 25.0313 18.3086Q25.0312 14.9453 22.3477 14.9453ZM39.3164 17.6641L39.3164 18.5664Q39.3164 20.0547 38.6074 20.957Q37.8984 21.8594 36.7734 21.8594Q35.5898 21.8594 34.9219 21.0039Q34.2539 20.1484 34.2539 18.5664Q34.2539 16.8789 34.9453 15.9121Q35.6367 14.9453 36.8672 14.9453Q37.957 14.9453 38.6367 15.7188Q39.3164 16.4922 39.3164 17.6641ZM79.8398 14.9453Q78.5273 14.9453 77.8008 15.8477Q77.0742 16.75 77.0742 18.4023Q77.0742 21.8594 79.8633 21.8594Q82.5234 21.8594 82.5234 18.3086Q82.5234 14.9453 79.8398 14.9453Z" />
    </g>
  </g>
</svg>