<svg width="951px" height="701px" viewBox="0 0 951 701" version="1.1" xmlns:xlink="http://www.w3.org/1999/xlink" xmlns="http://www.w3.org/2000/svg">
  <g id="undraw_Logo_design_re_gfu6">
    <path d="M0 0L720.275 0L720.275 514.446L0 514.446L0 0Z" transform="translate(230.7253 185.9237)" id="Background" fill="none" stroke="none" />
    <path d="M23.0679 48.9533C24.338 46.3122 24.3729 43.2442 23.1634 40.5748C21.9539 37.9054 19.6241 35.9088 16.8009 35.1224L14.6098 0L0 10.9983L4.32052 42.665C3.29103 47.6037 6.1181 52.5319 10.9011 54.1362C15.6841 55.7406 20.9111 53.514 23.0679 48.9534L23.0679 48.9533Z" transform="translate(803.9658 462.4775)" id="Shape" fill="#FFB8B8" stroke="none" />
    <path d="M0 44.7638L11.6055 48.0913L29.9636 4.91106L12.8355 0L0 44.7638L0 44.7638Z" transform="translate(890.7219 604.7271)" id="Polygon" fill="#FFB8B8" stroke="none" />
    <path d="M0 0.00012207L37.9456 3.05176e-05L37.9456 14.661L14.6609 14.661C6.56384 14.6609 0 8.09708 0 0L0 0L0 0.00012207Z" transform="matrix(-0.9612644 -0.2756281 0.2756281 -0.9612644 921.6611 670.0431)" id="Shape" fill="#2F2E41" stroke="none" />
    <path d="M17.8175 46.5688L5.74418 46.5679L0 0L17.8195 0.000991743L17.8175 46.5688L17.8175 46.5688Z" transform="translate(854.3088 642.5906)" id="Polygon" fill="#FFB8B8" stroke="none" />
    <path d="M14.6602 0L37.944 0L37.944 14.6602L0 14.6602L0 14.6602C0 6.56357 6.56361 -3.00528e-05 14.6602 0L14.6602 0Z" transform="translate(836.7686 685.709)" id="Shape" fill="#2F2E41" stroke="none" />
    <path d="M1.99869 4.92389C1.99869 4.92389 -4.8947 32.4974 6.92255 88.6294L15.7855 185.137L38.4352 186.122L35.4809 81.736L43.3591 38.4061L63.0545 98.4771L56.1611 140.822L72.9022 148.7L91.6129 90.5989C91.6129 90.5989 89.6433 9.84771 81.7651 0L1.99869 4.92389Z" transform="translate(836.7373 494.3729)" id="Shape" fill="#2F2E41" stroke="none" />
    <path d="M0 24.187C0 10.8289 10.8289 0 24.187 0C37.5451 0 48.374 10.8289 48.374 24.187C48.374 37.5451 37.5451 48.374 24.187 48.374C10.8289 48.374 0 37.5451 0 24.187Z" transform="translate(843.1501 293.8538)" id="Circle" fill="#FFB8B8" stroke="none" />
    <path d="M17.7259 6.63665C17.7259 6.63665 16.2487 9.88494 33.9746 7.87817C51.7005 5.87139 55.6396 0 55.6396 0L86.6599 136.074L84.6903 148.115L0 153.132L0 136.074L14.7716 45.7689L17.7259 6.63665Z" transform="translate(836.7664 348.1344)" id="Shape" fill="#E6E6E6" stroke="none" />
    <path d="M38.951 148.1L12.104 147.594L12.0174 147.22C8.55136 128.561 8.88615 109.395 13.0017 90.8684C18.4237 66.8578 6.10325 34.295 0.554535 21.4093C-0.79634 18.2404 0.39261 14.5605 3.34224 12.781L22.3462 1.37921C24.9683 -0.194171 28.1798 -0.435616 31.0076 0.72809C33.8354 1.8918 35.9468 4.32367 36.7019 7.28685L40.0245 20.3216C55.3277 36.7771 54.2547 70.5286 50.6524 95.9701C48.0768 113.494 44.203 130.802 39.0628 147.751L38.951 148.1Z" transform="translate(822.792 349.7259)" id="Shape" fill="#2F2E41" stroke="none" />
    <path d="M31.0203 0L28.698 1.58889C23.4519 5.15517 19.5119 10.3351 17.4757 16.343C16.2939 19.8459 15.3896 23.4364 14.7716 27.0812C12.802 38.8985 3.93909 89.1218 3.93909 89.1218L0 138.36L21.665 133.436L31.5127 76.3197L41.3604 40.868L31.0203 0Z" transform="translate(800.3298 359.9517)" id="Shape" fill="#2F2E41" stroke="none" />
    <path d="M23.1107 154.916L22.9063 154.349C21.4979 150.446 -11.3674 58.4965 4.15505 26.0732L2.63437 10.867C2.30331 7.55807 3.65857 4.3045 6.24071 2.20906C8.82291 0.11363 12.2858 -0.542754 15.4556 0.462453L39.2063 7.99249C41.2198 8.62065 42.5803 10.4986 42.5496 12.6076C42.4513 21.3485 41.9683 43.626 39.614 61.6769C36.7032 83.9929 46.4057 139.75 46.504 140.31L46.5622 140.641L23.1107 154.916Z" transform="translate(885.2856 343.1454)" id="Shape" fill="#2F2E41" stroke="none" />
    <path d="M0.00336593 39.886C0.0601058 36.9559 1.41183 34.2015 3.69471 32.3638C5.97758 30.5261 8.95721 29.7941 11.8318 30.3645L29.6188 0L37.7029 16.403L19.5727 42.7229C18.2655 47.5954 13.5206 50.7202 8.52794 49.9964C3.5353 49.2727 -0.126944 44.9291 0.00336593 39.886L0.00336593 39.886Z" transform="translate(897.9253 433.7269)" id="Shape" fill="#FFB8B8" stroke="none" />
    <path d="M14.2792 0L15.5529 0.293917C18.7527 1.03234 21.3654 3.33283 22.5028 6.41348L44.3147 65.4873L18.7106 121.619L9.35532 98.4771L21.1726 72.873L0 45.7918L14.2792 0Z" transform="translate(906.6846 351.0888)" id="Shape" fill="#2F2E41" stroke="none" />
    <path d="M54.5524 37.1869C55.9418 33.6011 56.9817 29.8895 57.6578 26.1039C58.3291 22.2966 57.8811 18.3764 56.3681 14.8187C54.7427 11.7073 52.4686 8.98084 49.6993 6.8235C47.8011 5.20912 45.8083 3.70936 43.7316 2.33219C37.8798 -1.5488 36.6063 1.98259 29.5871 1.18826C22.568 0.393933 14.7026 -1.62484 9.07655 2.56471C1.63337 8.2181 -1.64136 17.8182 0.795318 26.8417C2.36377 32.1787 1.11544 33.9378 5.95809 36.8224C5.95479 32.0212 7.7814 27.3972 11.0663 23.893C14.4219 20.3769 18.9616 18.2295 23.8083 17.866C27.5409 17.5955 31.2586 18.3919 34.9131 19.1834C38.459 19.9514 42.1003 20.7586 45.1061 22.7558C50.0875 26.0655 52.4228 31.9763 54.476 37.5208" transform="translate(837.3003 284.1973)" id="Shape" fill="#2F2E41" stroke="none" />
    <path d="M0 0L429.36 0L429.36 1.96954L0 1.96954L0 0Z" transform="translate(230.7253 415.3753)" id="Rectangle" fill="#E6E6E6" stroke="none" />
    <path d="M0 0L429.36 0L429.36 1.96954L0 1.96954L0 0Z" transform="translate(230.7253 338.5632)" id="Rectangle" fill="#E6E6E6" stroke="none" />
    <path d="M0 0L429.36 0L429.36 1.96954L0 1.96954L0 0Z" transform="translate(230.7253 261.751)" id="Rectangle" fill="#E6E6E6" stroke="none" />
    <path d="M0 0L1.96954 0L1.96954 307.249L0 307.249L0 0Z" transform="translate(573.229 185.9237)" id="Rectangle" fill="#E6E6E6" stroke="none" />
    <path d="M0 0L1.96954 0L1.96954 307.249L0 307.249L0 0Z" transform="translate(487.3567 185.9237)" id="Rectangle" fill="#E6E6E6" stroke="none" />
    <path d="M0 0L1.96954 0L1.96954 307.249L0 307.249L0 0Z" transform="translate(401.4849 185.9237)" id="Rectangle" fill="#E6E6E6" stroke="none" />
    <path d="M0 0L1.96954 0L1.96954 307.249L0 307.249L0 0Z" transform="translate(315.6123 185.9237)" id="Rectangle" fill="#E6E6E6" stroke="none" />
    <path d="M0 0L172.335 0L172.335 76.8122L0 76.8122L0 0Z" transform="translate(316.4001 262.7358)" id="Rectangle" fill="#6C63FF" stroke="none" />
    <path d="M0 0L0 82.7208L89.6141 2.95431L0 0L0 0Z" transform="translate(316.4001 333.6393)" id="Polygon" fill="#6C63FF" stroke="none" />
    <path d="M86.6598 2.95428L86.6598 5.90859L85.537 6.90322L83.2723 8.91216C39.2234 10.2416 3.64382 41.7936 2.03827 80.9186L0.0196846 82.7109L0 82.7207L0 0L86.6598 2.95428Z" transform="translate(402.0757 333.6395)" id="Shape" fill="#6C63FF" stroke="none" />
    <path d="M85.5371 0.00985733C85.7438 0 85.9607 0 86.1674 0C133.683 0 172.335 34.4572 172.335 76.8122C172.335 119.167 133.683 153.624 86.1675 153.624C38.6523 153.624 0 119.167 0 76.8122C0 76.4773 0 76.1524 0.0196846 75.8175C0.600546 34.1026 38.6821 0.305277 85.5371 0.00985733ZM1.96944 76.8121C1.96944 118.084 39.7451 151.655 86.1674 151.655C132.59 151.655 170.365 118.084 170.365 76.8122C170.365 35.5404 132.59 1.96958 86.1674 1.96958C85.1922 1.96958 84.2277 1.97941 83.2722 2.01881C39.2234 3.34825 3.64374 34.9003 2.0382 74.0253C1.98913 74.9509 1.96944 75.8766 1.96944 76.8121Z" transform="translate(402.0757 340.5327)" id="Shape" fill="#E6E6E6" fill-rule="evenodd" stroke="none" />
    <path d="M4.92386 46.8382L0 46.8108C0.0021638 46.3727 0.79078 3.00769 51.16 0L51.4533 4.9152C5.77171 7.64304 4.93696 45.2394 4.92386 46.8382L4.92386 46.8382Z" transform="translate(436.05 369.5378)" id="Shape" fill="#E6E6E6" stroke="none" />
    <path d="M99.4422 43.3905C99.0586 32.0499 94.0908 21.3502 85.675 13.739C75.8826 4.80954 63.0815 -0.0963794 49.8295 0.00144254L49.7309 0.00144254C22.6795 0.00144254 0.600575 19.3719 0.0196846 43.3905C0 43.7154 0 44.0503 0 44.3752C0 56.9409 5.87929 68.2953 15.313 76.3704C24.9455 84.4635 37.1503 88.853 49.7309 88.749L49.8295 88.749C77.2059 88.6998 99.4618 68.8173 99.4618 44.3752C99.4619 44.0503 99.4619 43.7155 99.4422 43.3905L99.4422 43.3905Z" transform="translate(438.512 371.9849)" id="Shape" fill="#E6E6E6" stroke="none" />
    <path d="M85.675 13.739L84.1979 15.0487L16.7901 75.0607L15.313 76.3704C5.87929 68.2953 0 56.9409 0 44.3752C0 44.0502 0 43.7154 0.0196846 43.3904C0.600545 19.3719 22.6795 0.00144254 49.7309 0.00144254L49.8295 0.00144254C63.0816 -0.0963794 75.8826 4.80953 85.675 13.739L85.675 13.739Z" transform="translate(438.5122 371.9849)" id="Shape" fill="#6C63FF" stroke="none" />
  </g>
</svg>