<?xml version="1.0" encoding="utf-8"?>
<svg width="778px" height="613px" viewBox="0 0 778 613" version="1.1" xmlns:xlink="http://www.w3.org/1999/xlink" xmlns="http://www.w3.org/2000/svg">
  <g id="undraw_Mobile_pay_re_sjb8">
    <path d="M291.999 139.162L288.782 139.162L288.782 51.0164C288.782 22.8408 265.941 2.77328e-05 237.765 0L51.0166 0C22.841 -0.000103998 0.000110931 22.8406 0 51.0162L0 534.591C0 562.766 22.8408 585.607 51.0164 585.607L237.765 585.607C265.941 585.607 288.782 562.767 288.782 534.591L288.782 201.906L291.999 201.906L291.999 139.162Z" transform="translate(90.87891 0)" id="Shape" fill="#3F3D56" stroke="none" />
    <path d="M201.37 0L225.747 0C246.788 0 263.845 17.0573 263.845 38.0985L263.845 520.964C263.845 542.005 246.788 559.062 225.747 559.062L38.0985 559.062C17.0573 559.062 0 542.005 0 520.964L0 38.0984C5.54656e-05 17.0572 17.0573 -2.77328e-05 38.0985 0L60.8666 0C58.5901 5.58123 59.2413 11.9295 62.6034 16.9323C65.9656 21.9352 71.5975 24.9361 77.6251 24.9366L184.611 24.9366C190.639 24.9361 196.271 21.9352 199.633 16.9323C202.995 11.9295 203.646 5.58123 201.37 0ZM217.128 103.118C222.572 103.102 226.981 98.6929 226.997 93.2494L226.997 90.7823C226.981 85.3388 222.572 80.93 217.128 80.914L46.0779 80.914C40.6344 80.9301 36.2256 85.339 36.2097 90.7823L36.2097 93.2494C36.2257 98.6929 40.6345 103.102 46.078 103.118L217.128 103.118ZM226.997 136.834C226.981 142.278 222.572 146.687 217.128 146.703L46.078 146.703C40.6345 146.687 36.2257 142.278 36.2097 136.834L36.2097 134.367C36.2257 128.924 40.6346 124.515 46.078 124.499L217.128 124.499C222.572 124.515 226.981 128.924 226.997 134.367L226.997 136.834ZM217.128 190.288C222.572 190.272 226.981 185.863 226.997 180.419L226.997 177.952C226.981 172.509 222.572 168.1 217.128 168.084L46.078 168.084C40.6346 168.1 36.2257 172.509 36.2097 177.952L36.2097 180.419C36.2257 185.863 40.6345 190.272 46.078 190.288L217.128 190.288ZM221.651 224.004C221.635 229.448 217.226 233.857 211.783 233.872L164.086 233.872C158.643 233.857 154.234 229.448 154.218 224.004L154.218 221.537C154.234 216.094 158.643 211.685 164.086 211.669L211.783 211.669C217.226 211.685 221.635 216.094 221.651 221.537L221.651 224.004Z" transform="translate(104.5718 14.47925)" id="Shape" fill="#EEEEEE" fill-rule="evenodd" stroke="none" />
    <path d="M0 5.7565C0 2.57727 2.57727 0 5.7565 0C8.93573 0 11.513 2.57727 11.513 5.7565C11.513 8.93573 8.93573 11.513 5.7565 11.513C2.57727 11.513 0 8.93573 0 5.7565Z" transform="translate(148.594 188.3198)" id="Circle" fill="#EEEEEE" stroke="none" />
    <path d="M0 5.7565C0 2.57727 2.57727 0 5.7565 0C8.93573 0 11.513 2.57727 11.513 5.7565C11.513 8.93573 8.93573 11.513 5.7565 11.513C2.57727 11.513 0 8.93573 0 5.7565Z" transform="translate(167.5083 188.3198)" id="Circle" fill="#EEEEEE" stroke="none" />
    <path d="M0 5.7565C0 2.57727 2.57727 0 5.7565 0C8.93573 0 11.513 2.57727 11.513 5.7565C11.513 8.93573 8.93573 11.513 5.7565 11.513C2.57727 11.513 0 8.93573 0 5.7565Z" transform="translate(186.4221 188.3198)" id="Circle" fill="#EEEEEE" stroke="none" />
    <path d="M0 5.7565C0 2.57727 2.57727 0 5.7565 0C8.93573 0 11.513 2.57727 11.513 5.7565C11.513 8.93573 8.93573 11.513 5.7565 11.513C2.57727 11.513 0 8.93573 0 5.7565Z" transform="translate(205.3364 188.3198)" id="Circle" fill="#EEEEEE" stroke="none" />
    <path d="M0 5.7565C0 2.57727 2.57727 0 5.7565 0C8.93573 0 11.513 2.57727 11.513 5.7565C11.513 8.93573 8.93573 11.513 5.7565 11.513C2.57727 11.513 0 8.93573 0 5.7565Z" transform="translate(267.0134 231.9047)" id="Circle" fill="#EEEEEE" stroke="none" />
    <path d="M0 5.7565C0 2.57727 2.57727 0 5.7565 0C8.93573 0 11.513 2.57727 11.513 5.7565C11.513 8.93573 8.93573 11.513 5.7565 11.513C2.57727 11.513 0 8.93573 0 5.7565Z" transform="translate(285.9275 231.9047)" id="Circle" fill="#EEEEEE" stroke="none" />
    <path d="M0 5.7565C0 2.57727 2.57727 0 5.7565 0C8.93573 0 11.513 2.57727 11.513 5.7565C11.513 8.93573 8.93573 11.513 5.7565 11.513C2.57727 11.513 0 8.93573 0 5.7565Z" transform="translate(304.8418 231.9047)" id="Circle" fill="#EEEEEE" stroke="none" />
    <path d="M212.359 0L17.2805 0C7.73673 -2.77328e-05 2.77328e-05 7.73668 0 17.2804L0 112.326C0 121.87 7.73671 129.607 17.2804 129.607L212.359 129.607C221.902 129.607 229.639 121.87 229.639 112.327L229.639 17.2805C229.639 7.73673 221.902 0 212.359 0ZM29.5378 14.7152C21.9738 10.1638 12.8391 11.7183 12.4539 11.788L11.4723 11.9621L11.7781 12.911C11.8979 13.283 14.8035 22.0826 22.367 26.6323C26.2851 28.8389 30.7222 29.9572 35.2181 29.8712C36.6353 29.8829 38.0511 29.7789 39.4513 29.5603L40.4329 29.3862L40.1271 28.4373C40.0074 28.0653 37.1013 19.2658 29.5378 14.7152ZM202.674 108.731C208.432 108.714 213.095 104.05 213.112 98.2925L213.112 82.6353C213.095 76.8775 208.432 72.214 202.674 72.1972L176.579 72.1972C170.821 72.214 166.157 76.8774 166.14 82.6353L166.14 98.2926C166.157 104.05 170.821 108.714 176.579 108.731L202.674 108.731ZM54.8003 100.032L20.0065 100.032C14.7263 100.026 10.4489 95.7443 10.4488 90.4641C10.4488 85.1838 14.726 80.9017 20.0062 80.8956L54.8 80.8956C60.0802 80.9015 64.3576 85.1835 64.3577 90.4637C64.3577 95.7439 60.0805 100.026 54.8003 100.032Z" transform="translate(120.533 312.2472)" id="Shape" fill="#6C63FF" fill-rule="evenodd" stroke="none" />
    <path d="M13.317 0L2.82484 0C1.26473 0 0 1.26473 0 2.82486C0 4.38499 1.26473 5.64972 2.82484 5.64972L13.317 5.64972C14.8772 5.64972 16.1419 4.38499 16.1419 2.82486C16.1419 1.26473 14.8772 0 13.317 0L13.317 0Z" transform="translate(292.2083 407.3134)" id="Shape" fill="#3F3D56" stroke="none" />
    <path d="M13.3171 0L2.82481 0C1.26467 0 0 1.26473 0 2.82486C0 4.38499 1.26467 5.64972 2.82481 5.64972L13.3171 5.64972C14.8772 5.64972 16.1419 4.38499 16.1419 2.82486C16.1419 1.26473 14.8772 0 13.3171 0L13.3171 0Z" transform="translate(311.5784 407.3134)" id="Shape" fill="#3F3D56" stroke="none" />
    <path d="M13.317 0L2.82484 0C1.26473 -5.54658e-05 0 1.26468 0 2.82482C0 4.38496 1.26473 5.64969 2.82484 5.64969L13.317 5.64969C14.8772 5.64969 16.1419 4.38496 16.1419 2.82482C16.1419 1.26468 14.8772 -5.54658e-05 13.317 -5.54658e-05L13.317 0Z" transform="translate(292.2068 399.3392)" id="Shape" fill="#3F3D56" stroke="none" />
    <path d="M13.3171 0L2.82481 0C1.26467 -5.54658e-05 0 1.26468 0 2.82482C0 4.38496 1.26467 5.64969 2.82481 5.64969L13.317 5.64969C14.8772 5.64969 16.1418 4.38496 16.1418 2.82482C16.1418 1.26468 14.8772 -5.54658e-05 13.317 -5.54658e-05L13.3171 0Z" transform="translate(311.5771 399.3392)" id="Shape" fill="#3F3D56" stroke="none" />
    <path d="M13.317 0L2.82484 0C1.26473 -5.54658e-05 0 1.26468 0 2.82482C0 4.38496 1.26473 5.64969 2.82484 5.64969L13.317 5.64969C14.8772 5.64969 16.1419 4.38496 16.1419 2.82482C16.1419 1.26468 14.8772 -5.54658e-05 13.317 -5.54658e-05L13.317 0Z" transform="translate(292.2068 391.5266)" id="Shape" fill="#3F3D56" stroke="none" />
    <path d="M13.3171 0L2.82481 0C1.26467 -5.54658e-05 0 1.26468 0 2.82482C0 4.38496 1.26467 5.64969 2.82481 5.64969L13.317 5.64969C14.8772 5.64969 16.1418 4.38496 16.1418 2.82482C16.1418 1.26468 14.8772 -5.54658e-05 13.317 -5.54658e-05L13.3171 0Z" transform="translate(311.5771 391.5266)" id="Shape" fill="#3F3D56" stroke="none" />
    <path d="M0 0L25.445 0L25.445 25.4449L0 25.4449L0 0Z" transform="translate(442.5608 348.0509)" id="Rectangle" fill="#E6E6E6" stroke="none" />
    <path d="M41.8025 0L0 0L0 41.8025L41.8025 41.8025L41.8025 0ZM1.8175 1.8175L39.985 1.8175L39.985 39.985L1.8175 39.985L1.8175 1.8175Z" transform="translate(412.572 363.4996)" id="Shape" fill="#3F3D56" fill-rule="evenodd" stroke="none" />
    <path d="M0 0L25.445 0L25.445 25.445L0 25.445L0 0Z" transform="translate(0 138.1299)" id="Rectangle" fill="#E6E6E6" stroke="none" />
    <path d="M0 41.8024L41.8025 41.8024L41.8025 0L0 0L0 41.8024ZM39.985 39.9849L1.8175 39.9849L1.8175 1.8175L39.985 1.8175L39.985 39.9849Z" transform="translate(13.63135 106.3236)" id="Shape" fill="#3F3D56" fill-rule="evenodd" stroke="none" />
    <path d="M16.4411 42.9729L5.29984 42.9729L0 0L16.4429 0L16.4411 42.9729L16.4411 42.9729Z" transform="translate(577.0417 558.0891)" id="Polygon" fill="#FFB8B8" stroke="none" />
    <path d="M13.5284 0L35.0148 0L35.0148 13.5284L0 13.5284L0 13.5284C0 6.05689 6.05684 0 13.5283 0L13.5284 0Z" transform="translate(560.8555 597.8783)" id="Shape" fill="#2F2E41" stroke="none" />
    <path d="M16.4411 42.9729L5.29984 42.9729L0 0L16.4429 0L16.4411 42.9729L16.4411 42.9729Z" transform="translate(632.4756 558.0891)" id="Polygon" fill="#FFB8B8" stroke="none" />
    <path d="M13.5284 0L35.0148 0L35.0148 13.5284L0 13.5284L0 13.5284C0 6.05689 6.05684 0 13.5283 0L13.5284 0Z" transform="translate(616.2891 597.8783)" id="Shape" fill="#2F2E41" stroke="none" />
    <path d="M1.68494 118.782C0.0623989 116.392 -0.417934 113.405 0.373173 110.627C1.16428 107.848 3.14551 105.562 5.78385 104.385L43.6567 0L62.2925 10.1701L19.0499 109.924C20.7719 114.59 18.7321 119.806 14.3019 122.066C9.87161 124.326 4.45129 122.915 1.68494 118.782L1.68494 118.782Z" transform="translate(535.9092 328.5978)" id="Shape" fill="#FFB8B8" stroke="none" />
    <path d="M14.3617 125.158C11.8552 123.721 10.1141 121.248 9.60665 118.404C9.09925 115.559 9.87771 112.637 11.7326 110.422L0 0L21.2082 0.968929L26.0842 109.583C29.6778 113.021 30.1319 118.604 27.1411 122.577C24.1504 126.551 18.6601 127.66 14.3617 125.158L14.3617 125.158Z" transform="translate(628.8643 341.8363)" id="Shape" fill="#FFB8B8" stroke="none" />
    <path d="M0 22.3198C0 9.99292 9.99292 0 22.3198 0C34.6467 0 44.6396 9.99292 44.6396 22.3198C44.6396 34.6467 34.6467 44.6396 22.3198 44.6396C9.99292 44.6396 0 34.6467 0 22.3198Z" transform="translate(587.0728 264.6234)" id="Circle" fill="#FFB8B8" stroke="none" />
    <path d="M67.29 124.384L0 124.384L0.0809798 123.861C0.201895 123.078 12.0735 45.3094 3.31773 19.8672C1.49813 14.6892 3.87727 8.97262 8.83324 6.61447L8.83346 6.61447C21.3485 0.720915 45.372 -6.53621 65.6485 11.0757C71.6979 16.4166 74.8822 24.2923 74.2448 32.3368L67.29 124.384Z" transform="translate(575.7935 317.4971)" id="Shape" fill="#BBBBBB" stroke="none" />
    <path d="M30.2947 49.3116L0 43.1656L14.2003 9.5148C15.9692 2.72808 22.8978 -1.34626 29.6886 0.406868C36.4794 2.16 40.5698 9.07898 38.8325 15.8739L30.2947 49.3116Z" transform="translate(558.4226 324.9878)" id="Shape" fill="#BBBBBB" stroke="none" />
    <path d="M2.07075 58.397L0.249484 16.6478C-1.13161 8.79968 3.36111 1.38059 10.2706 0.167894C17.182 -1.04037 23.9306 4.40281 25.318 12.3087L32.1636 51.3192L2.07075 58.397Z" transform="translate(625.4465 327.3141)" id="Shape" fill="#BBBBBB" stroke="none" />
    <path d="M68.6762 0C79.5036 41.236 80.6848 93.6642 77.7637 150.852L63.2237 149.035L36.87 39.985L22.33 150.852L5.97254 149.944C1.0858 89.9391 -3.67227 38.4262 4.15504 4.54374L68.6762 0Z" transform="translate(572.1685 436.8833)" id="Shape" fill="#2F2E41" stroke="none" />
    <path d="M41.5037 49.8556C37.3399 54.291 29.607 51.9099 29.0644 45.8506C29.0219 45.3801 29.025 44.9066 29.0737 44.4368C29.3538 41.7528 30.9044 39.316 30.533 36.482C30.4489 35.7767 30.1861 35.1045 29.7696 34.5292C26.4515 30.086 18.6626 36.5165 15.5311 32.4942C13.6109 30.0279 15.8681 26.1447 14.3946 23.3881C12.4498 19.7499 6.68944 21.5446 3.07712 19.5521C-0.942029 17.3353 -0.701641 11.1687 1.94402 7.41789C5.17056 2.84361 10.8277 0.402791 16.4143 0.0510284C22.001 -0.300735 27.5492 1.20946 32.7648 3.24205C38.6909 5.5515 44.5674 8.74316 48.2142 13.9539C52.6491 20.2908 53.0759 28.8101 50.8579 36.2199C49.5087 40.7273 44.904 46.2336 41.5037 49.8556L41.5037 49.8556Z" transform="translate(582.5955 254.337)" id="Shape" fill="#2F2E41" stroke="none" />
    <path d="M347.142 1.8175L0.908749 1.8175C0.40684 1.8175 0 1.41066 0 0.908752C0 0.406842 0.40684 0 0.908749 0L347.142 0C347.644 0 348.051 0.406842 348.051 0.908752C348.051 1.41066 347.644 1.8175 347.142 1.8175L347.142 1.8175Z" transform="translate(429.9492 610.6793)" id="Shape" fill="#3F3D56" stroke="none" />
  </g>
</svg>