<svg width="752px" height="484px" viewBox="0 0 752 484" version="1.1" xmlns:xlink="http://www.w3.org/1999/xlink" xmlns="http://www.w3.org/2000/svg">
  <g id="undraw_Responsiveness_re_cuv5">
    <path d="M0 0L701 0L701 483.404L0 483.404L0 0Z" id="Background" fill="none" stroke="none" />
    <path d="M28.0899 6.52586L29.0681 131.004C29.0924 134.635 26.1731 137.6 22.5423 137.633L7.60732 137.75C3.97647 137.775 1.01101 134.856 0.978276 131.225L0.000123527 6.7466C-0.0242114 3.11573 2.89499 0.150271 6.52583 0.117536L21.4608 0.000154409C25.0917 -0.0241805 28.0572 2.89505 28.0899 6.52586L28.0899 6.52586Z" transform="translate(607.5579 237.6499)" id="Shape" fill="#6C63FF" stroke="none" />
    <path d="M0 0L327.9 0L327.9 2.26746L0 2.26746L0 0Z" transform="translate(424.0994 481.1361)" id="Rectangle" fill="#3F3D56" stroke="none" />
    <path d="M21.513 137.637L6.57759 137.637C2.94662 137.633 0.00419993 134.691 0 131.06L0 6.57759C0.00413817 2.94668 2.94656 0.00419993 6.57747 0L21.5129 0C25.1439 0.00419993 28.0863 2.94662 28.0905 6.57759L28.0905 131.06C28.0864 134.691 25.1441 137.633 21.5132 137.637L21.513 137.637Z" transform="translate(560.6169 344.767)" id="Shape" fill="#2F2E41" stroke="none" />
    <path d="M21.5135 137.637L6.57759 137.637C2.94662 137.633 0.00419993 134.691 0 131.06L0 6.57759C0.00413817 2.94668 2.94656 0.00419993 6.57747 0L21.5134 0C25.1444 0.00419993 28.0868 2.94662 28.091 6.57759L28.091 131.06C28.0869 134.691 25.1446 137.633 21.5137 137.637L21.5135 137.637Z" transform="translate(590.1575 344.767)" id="Shape" fill="#2F2E41" stroke="none" />
    <path d="M0 54.158C0 24.2474 24.2474 0 54.158 0C84.0686 0 108.316 24.2474 108.316 54.158C108.316 84.0686 84.0686 108.316 54.158 108.316C24.2474 108.316 0 84.0686 0 54.158Z" transform="translate(535.2749 92.98035)" id="Circle" fill="#6C63FF" stroke="none" />
    <path d="M13.9674 34.4533L14.0237 32.4294C10.2586 32.3247 6.93915 32.0885 4.44488 30.2662C3.01407 29.1614 2.13449 27.4889 2.03511 25.6838C1.9463 24.579 2.37765 23.496 3.2017 22.7547C4.85746 21.3564 7.52164 21.809 9.46355 22.6994L11.1381 23.4672L7.92687 0L5.92177 0.274725L8.65321 20.2368C6.01467 19.461 3.56981 19.795 1.89528 21.2092C0.591943 22.347 -0.104504 24.0288 0.0127233 25.755C0.132298 28.181 1.3176 30.4304 3.25111 31.9007C6.45591 34.2428 10.6208 34.3594 13.9674 34.4533L13.9674 34.4533Z" transform="translate(567.4961 132.7578)" id="Shape" fill="#2F2E41" stroke="none" />
    <path d="M0 0L10.9 0L10.9 2.02388L0 2.02388L0 0Z" transform="translate(552.6013 134.7541)" id="Rectangle" fill="#2F2E41" stroke="none" />
    <path d="M0 0L10.9 0L10.9 2.02388L0 2.02388L0 0Z" transform="translate(587.0071 134.7541)" id="Rectangle" fill="#2F2E41" stroke="none" />
    <path d="M44.5252 71.8475L0 71.8475L0 22.2626C0 9.9673 9.9673 0 22.2626 0C34.5579 0 44.5252 9.9673 44.5252 22.2626L44.5252 71.8475Z" transform="translate(599.4729 210.3736)" id="Shape" fill="#BBBBBB" stroke="none" />
    <path d="M114.014 22.6769L20.8408 105.227C18.1203 107.631 13.9666 107.38 11.5556 104.665L1.65125 93.4863C-0.753456 90.7658 -0.502386 86.6121 2.21262 84.2011L95.3862 1.65128C98.1067 -0.753455 102.26 -0.502324 104.671 2.21265L114.576 13.3917C116.981 16.1123 116.729 20.2659 114.014 22.6769L114.014 22.6769Z" transform="translate(447.3242 228.4417)" id="Shape" fill="#6C63FF" stroke="none" />
    <path d="M29.2639 71.6312L0 38.0736L37.371 5.48415C46.6376 -2.59689 60.7007 -1.63575 68.7818 7.63094C76.8628 16.8976 75.9016 30.9607 66.635 39.0418L29.2639 71.6312Z" transform="translate(508.8887 210.7859)" id="Shape" fill="#BBBBBB" stroke="none" />
    <path d="M0 0L236.381 0L236.381 158.874L0 158.874L0 0Z" id="Rectangle" fill="#6C63FF" stroke="none" />
    <path d="M0 7.08356L2.02387 7.08356L2.02387 2.02387L7.08356 2.02387L7.08356 0L0 0L0 7.08356L0 7.08356Z" transform="translate(2.023926 1.365112)" id="Polygon" fill="#BBBBBB" stroke="none" />
    <path d="M0 0L12.5598 0L12.5598 2.02387L0 2.02387L0 0Z" transform="translate(222.6194 1.364746)" id="Rectangle" fill="#BBBBBB" stroke="none" />
    <path d="M0 0L12.5598 0L12.5598 2.02387L0 2.02387L0 0Z" transform="translate(172.3813 1.364746)" id="Rectangle" fill="#BBBBBB" stroke="none" />
    <path d="M0 0L12.5598 0L12.5598 2.02387L0 2.02387L0 0Z" transform="translate(197.5002 1.364746)" id="Rectangle" fill="#BBBBBB" stroke="none" />
    <path d="M0 0L12.5598 0L12.5598 2.02387L0 2.02387L0 0Z" transform="translate(272.8574 1.364746)" id="Rectangle" fill="#BBBBBB" stroke="none" />
    <path d="M0 0L12.5598 0L12.5598 2.02387L0 2.02387L0 0Z" transform="translate(297.9766 1.364746)" id="Rectangle" fill="#BBBBBB" stroke="none" />
    <path d="M0 0L12.5598 0L12.5598 2.02387L0 2.02387L0 0Z" transform="translate(247.7385 1.364746)" id="Rectangle" fill="#BBBBBB" stroke="none" />
    <path d="M0 0L12.5598 0L12.5598 2.02387L0 2.02387L0 0Z" transform="translate(46.78589 1.364746)" id="Rectangle" fill="#BBBBBB" stroke="none" />
    <path d="M0 0L12.5598 0L12.5598 2.02387L0 2.02387L0 0Z" transform="translate(21.66699 1.364746)" id="Rectangle" fill="#BBBBBB" stroke="none" />
    <path d="M0 0L12.5598 0L12.5598 2.02387L0 2.02387L0 0Z" transform="translate(71.90503 1.364746)" id="Rectangle" fill="#BBBBBB" stroke="none" />
    <path d="M0 0L12.5598 0L12.5598 2.02387L0 2.02387L0 0Z" transform="translate(122.1431 1.364746)" id="Rectangle" fill="#BBBBBB" stroke="none" />
    <path d="M0 0L12.5598 0L12.5598 2.02387L0 2.02387L0 0Z" transform="translate(97.02417 1.364746)" id="Rectangle" fill="#BBBBBB" stroke="none" />
    <path d="M0 0L12.5598 0L12.5598 2.02387L0 2.02387L0 0Z" transform="translate(147.2622 1.364746)" id="Rectangle" fill="#BBBBBB" stroke="none" />
    <path d="M0 0L12.5598 0L12.5598 2.02387L0 2.02387L0 0Z" transform="translate(323.0955 1.364746)" id="Rectangle" fill="#BBBBBB" stroke="none" />
    <path d="M0 0L0 2.02387L5.05968 2.02387L5.05968 7.08356L7.08356 7.08356L7.08356 0L0 0L0 0Z" transform="translate(348.2144 1.365112)" id="Polygon" fill="#BBBBBB" stroke="none" />
    <path d="M0 0L2.02386 0L2.02386 12.5988L0 12.5988L0 0Z" transform="translate(353.2744 172.2318)" id="Rectangle" fill="#BBBBBB" stroke="none" />
    <path d="M0 0L2.02386 0L2.02386 12.5988L0 12.5988L0 0Z" transform="translate(353.2744 147.0342)" id="Rectangle" fill="#BBBBBB" stroke="none" />
    <path d="M0 0L2.02386 0L2.02386 12.5988L0 12.5988L0 0Z" transform="translate(353.2744 96.63898)" id="Rectangle" fill="#BBBBBB" stroke="none" />
    <path d="M0 0L2.02386 0L2.02386 12.5988L0 12.5988L0 0Z" transform="translate(353.2744 46.24469)" id="Rectangle" fill="#BBBBBB" stroke="none" />
    <path d="M0 0L2.02386 0L2.02386 12.5978L0 12.5978L0 0Z" transform="translate(353.2744 71.44232)" id="Rectangle" fill="#BBBBBB" stroke="none" />
    <path d="M0 0L2.02386 0L2.02386 12.5988L0 12.5988L0 0Z" transform="translate(353.2744 121.8365)" id="Rectangle" fill="#BBBBBB" stroke="none" />
    <path d="M0 0L2.02386 0L2.02386 12.5988L0 12.5988L0 0Z" transform="translate(353.2744 197.4284)" id="Rectangle" fill="#BBBBBB" stroke="none" />
    <path d="M0 0L2.02386 0L2.02386 12.5988L0 12.5988L0 0Z" transform="translate(353.2744 21.04712)" id="Rectangle" fill="#BBBBBB" stroke="none" />
    <path d="M5.05968 5.05968L0 5.05968L0 7.08356L7.08356 7.08356L7.08356 0L5.05968 0L5.05968 5.05968L5.05968 5.05968Z" transform="translate(348.2144 222.626)" id="Polygon" fill="#BBBBBB" stroke="none" />
    <path d="M0 0L12.5598 0L12.5598 2.02388L0 2.02388L0 0Z" transform="translate(297.9766 227.6857)" id="Rectangle" fill="#BBBBBB" stroke="none" />
    <path d="M0 0L12.5598 0L12.5598 2.02388L0 2.02388L0 0Z" transform="translate(97.02417 227.6857)" id="Rectangle" fill="#BBBBBB" stroke="none" />
    <path d="M0 0L12.5598 0L12.5598 2.02388L0 2.02388L0 0Z" transform="translate(46.78589 227.6857)" id="Rectangle" fill="#BBBBBB" stroke="none" />
    <path d="M0 0L12.5598 0L12.5598 2.02388L0 2.02388L0 0Z" transform="translate(71.90503 227.6857)" id="Rectangle" fill="#BBBBBB" stroke="none" />
    <path d="M0 0L12.5598 0L12.5598 2.02388L0 2.02388L0 0Z" transform="translate(21.66699 227.6857)" id="Rectangle" fill="#BBBBBB" stroke="none" />
    <path d="M0 0L12.5598 0L12.5598 2.02388L0 2.02388L0 0Z" transform="translate(222.6194 227.6857)" id="Rectangle" fill="#BBBBBB" stroke="none" />
    <path d="M0 0L12.5598 0L12.5598 2.02388L0 2.02388L0 0Z" transform="translate(272.8574 227.6857)" id="Rectangle" fill="#BBBBBB" stroke="none" />
    <path d="M0 0L12.5598 0L12.5598 2.02388L0 2.02388L0 0Z" transform="translate(247.7385 227.6857)" id="Rectangle" fill="#BBBBBB" stroke="none" />
    <path d="M0 0L12.5598 0L12.5598 2.02388L0 2.02388L0 0Z" transform="translate(323.0955 227.6857)" id="Rectangle" fill="#BBBBBB" stroke="none" />
    <path d="M0 0L12.5598 0L12.5598 2.02388L0 2.02388L0 0Z" transform="translate(172.3813 227.6857)" id="Rectangle" fill="#BBBBBB" stroke="none" />
    <path d="M0 0L12.5598 0L12.5598 2.02388L0 2.02388L0 0Z" transform="translate(147.2622 227.6857)" id="Rectangle" fill="#BBBBBB" stroke="none" />
    <path d="M0 0L12.5598 0L12.5598 2.02388L0 2.02388L0 0Z" transform="translate(122.1431 227.6857)" id="Rectangle" fill="#BBBBBB" stroke="none" />
    <path d="M0 0L12.5598 0L12.5598 2.02388L0 2.02388L0 0Z" transform="translate(197.5002 227.6857)" id="Rectangle" fill="#BBBBBB" stroke="none" />
    <path d="M2.02387 0L0 0L0 7.08356L7.08356 7.08356L7.08356 5.05968L2.02387 5.05968L2.02387 0L2.02387 0Z" transform="translate(2.023926 222.626)" id="Polygon" fill="#BBBBBB" stroke="none" />
    <path d="M0 0L2.02387 0L2.02387 12.5988L0 12.5988L0 0Z" transform="translate(2.023682 71.44135)" id="Rectangle" fill="#BBBBBB" stroke="none" />
    <path d="M0 0L2.02387 0L2.02387 12.5988L0 12.5988L0 0Z" transform="translate(2.023682 96.63898)" id="Rectangle" fill="#BBBBBB" stroke="none" />
    <path d="M0 0L2.02387 0L2.02387 12.5988L0 12.5988L0 0Z" transform="translate(2.023682 21.04712)" id="Rectangle" fill="#BBBBBB" stroke="none" />
    <path d="M0 0L2.02387 0L2.02387 12.5988L0 12.5988L0 0Z" transform="translate(2.023682 46.24371)" id="Rectangle" fill="#BBBBBB" stroke="none" />
    <path d="M0 0L2.02387 0L2.02387 12.5988L0 12.5988L0 0Z" transform="translate(2.023682 197.4284)" id="Rectangle" fill="#BBBBBB" stroke="none" />
    <path d="M0 0L2.02387 0L2.02387 12.5988L0 12.5988L0 0Z" transform="translate(2.023682 172.2308)" id="Rectangle" fill="#BBBBBB" stroke="none" />
    <path d="M0 0L2.02387 0L2.02387 12.5978L0 12.5978L0 0Z" transform="translate(2.023682 147.0342)" id="Rectangle" fill="#BBBBBB" stroke="none" />
    <path d="M0 0L2.02387 0L2.02387 12.5988L0 12.5988L0 0Z" transform="translate(2.023682 121.8365)" id="Rectangle" fill="#BBBBBB" stroke="none" />
    <path d="M101.277 78.5637L99.2609 78.7631L100.103 87.2117L3.71784 2.24954L12.206 2.02489L12.1503 0L0 0.322808L1.2052 12.4165L3.22098 12.2171L2.37704 3.76441L98.767 88.7327L90.2759 88.9553L90.3305 90.9802L102.48 90.6584L101.277 78.5637L101.277 78.5637Z" transform="translate(302.6279 183.2081)" id="Polygon" fill="#3F3D56" stroke="none" />
    <path d="M0 11.1313C0 4.98365 4.98365 0 11.1313 0C17.2789 0 22.2626 4.98365 22.2626 11.1313C22.2626 17.2789 17.2789 22.2626 11.1313 22.2626C4.98365 22.2626 0 17.2789 0 11.1313Z" transform="translate(342.7375 217.5661)" id="Circle" fill="#3F3D56" stroke="none" />
    <path d="M0 6.07162C0 2.71836 2.71836 0 6.07162 0C9.42489 0 12.1432 2.71836 12.1432 6.07162C12.1432 9.42488 9.42489 12.1432 6.07162 12.1432C2.71836 12.1432 0 9.42488 0 6.07162Z" transform="translate(369.4321 241.6967)" id="Circle" fill="#BBBBBB" stroke="none" />
    <path d="M0 6.07162C0 2.71836 2.71836 0 6.07162 0C9.42489 0 12.1432 2.71836 12.1432 6.07162C12.1432 9.42488 9.42489 12.1432 6.07162 12.1432C2.71836 12.1432 0 9.42488 0 6.07162Z" transform="translate(325.4036 202.8857)" id="Circle" fill="#BBBBBB" stroke="none" />
    <path d="M74.4406 157.331L6.57759 157.331C2.94662 157.327 0.00419993 154.385 0 150.754L0 6.57759C0.00413817 2.94672 2.94656 0.0042617 6.57747 0L74.4405 0C78.0714 0.00419993 81.0139 2.94665 81.0181 6.57759L81.0181 150.754C81.0139 154.385 78.0716 157.327 74.4407 157.331L74.4406 157.331Z" transform="translate(548.7029 210.5888)" id="Shape" fill="#BBBBBB" stroke="none" />
    <path d="M101.137 106.983C96.182 105.049 93.3973 100.199 92.0011 95.3107C90.3453 89.5142 90.6043 83.588 90.6726 77.6276C90.7482 71.0321 90.5337 64.1269 87.3911 58.1593C84.5262 52.7189 79.411 49.0193 73.7713 46.8382C60.0256 41.5223 44.9926 46.009 30.7513 44.5875C24.1412 43.9277 17.2792 42.0624 11.98 37.8928C7.38465 34.2771 3.67846 28.8376 3.10918 22.9062C1.85909 9.88006 15.8252 1.56163 27.5372 3.17296C28.3416 3.36547 29.1575 2.90215 29.4044 2.11278C29.622 1.30507 29.1493 0.472585 28.3442 0.245573C17.3447 -1.26773 4.52079 4.26509 0.885506 15.4085C-1.05505 21.357 0.344024 27.885 3.61979 33.0871C7.23994 38.6412 12.596 42.8417 18.853 45.0336C25.5834 47.5402 32.9315 48.0878 40.0576 47.9399C48.3484 47.7679 56.7266 46.5564 64.9954 47.7147C71.1884 48.5822 77.5164 50.9551 81.8708 55.5971C86.6956 60.7407 87.5736 67.8826 87.6434 74.6394C87.7104 81.1076 87.1572 87.5648 88.532 93.9445C89.6907 99.3212 92.1345 104.696 96.7 107.996C97.8236 108.786 99.0435 109.43 100.33 109.91C102.151 110.621 102.94 107.686 101.137 106.983L101.137 106.983Z" transform="translate(521.6812 58.68994)" id="Shape" fill="#2F2E41" stroke="none" />
  </g>
</svg>