<svg width="1041px" height="706px" viewBox="0 0 1041 706" version="1.1" xmlns:xlink="http://www.w3.org/1999/xlink" xmlns="http://www.w3.org/2000/svg">
  <g id="undraw_experience_design_eq3j">
    <path d="M0 0L1041 0L1041 704.874L0 704.874L0 351.146L0 350.737L0 0Z" transform="translate(0 0.3721924)" id="Background" fill="none" stroke="none" />
    <path d="M0 77.7241C0 34.7983 34.7983 0 77.7241 0C120.65 0 155.448 34.7983 155.448 77.7241C155.448 120.65 120.65 155.448 77.7241 155.448C34.7983 155.448 0 120.65 0 77.7241Z" transform="translate(627.3413 282.4828)" id="Circle" fill="#6C63FF" fill-opacity="0.4" stroke="none" />
    <path d="M0 0L433.42 0L433.42 117.469L0 117.469L0 0Z" transform="translate(273.4192 467.7522)" id="Rectangle" fill="#3F3D56" stroke="none" />
    <path d="M160.595 28.9778L143.289 37.1686L158.605 25.7154C156.116 21.8298 153.32 18.1497 150.243 14.7105L75.1872 33.3659L142.983 7.50402C139.885 4.77055 136.595 2.26278 133.138 0L18.7716 18.4215C6.62874 33.6061 0.00933303 52.468 0 71.9107L172.153 71.9107C172.146 56.8298 168.158 42.0201 160.594 28.9759L160.595 28.9778Z" transform="translate(518.4841 147.7386)" id="Shape" fill="#F2F2F2" stroke="none" />
    <path d="M608.443 50.8316C539.649 17.2785 464.097 -0.107902 387.557 0.000502191C231.779 0.000502191 92.5058 70.6366 0 181.621C158.408 146.912 434.208 86.8296 608.443 50.8316L608.443 50.8316Z" transform="translate(84.34424 0)" id="Shape" fill="#F2F2F2" stroke="none" />
    <path d="M0 0L1032.92 0L1032.92 2.02533L0 2.02533L0 0Z" transform="translate(0 702.6902)" id="Rectangle" fill="#2F2E41" stroke="none" />
    <path d="M58.5972 87.0391L0 0C0 0 88.7409 30.98 78.6697 87.0391L58.5972 87.0391Z" transform="translate(544.8135 132.6103)" id="Shape" fill="#3F3D56" stroke="none" />
    <path d="M20.8692 87.0391L79.4664 0C79.4664 0 -9.27449 30.98 0.796645 87.0391L20.8692 87.0391Z" transform="translate(584.8416 132.6103)" id="Shape" fill="#6C63FF" stroke="none" />
    <path d="M0 648.105L434.433 648.105L434.433 0L0 0L0 648.105ZM432.408 646.08L2.02534 646.08L2.02534 2.02534L432.408 2.02534L432.408 646.08Z" transform="translate(272.9131 56.61041)" id="Shape" fill="#2F2E41" fill-rule="evenodd" stroke="none" />
    <path d="M0 0L432.408 0L432.408 2.02533L0 2.02533L0 0Z" transform="translate(274.4321 71.98389)" id="Rectangle" fill="#2F2E41" stroke="none" />
    <path d="M0 4.05066C0 1.81354 1.81354 0 4.05066 0C6.28778 0 8.10132 1.81354 8.10132 4.05066C8.10132 6.28778 6.28778 8.10132 4.05066 8.10132C1.81354 8.10132 0 6.28778 0 4.05066Z" transform="translate(281.5205 60.66113)" id="Circle" fill="#6C63FF" stroke="none" />
    <path d="M0 4.05066C0 1.81354 1.81354 0 4.05066 0C6.28778 0 8.10132 1.81354 8.10132 4.05066C8.10132 6.28778 6.28778 8.10132 4.05066 8.10132C1.81354 8.10132 0 6.28778 0 4.05066Z" transform="translate(292.6599 60.66113)" id="Circle" fill="#6C63FF" stroke="none" />
    <path d="M0 4.05066C0 1.81354 1.81354 0 4.05066 0C6.28778 0 8.10132 1.81354 8.10132 4.05066C8.10132 6.28778 6.28778 8.10132 4.05066 8.10132C1.81354 8.10132 0 6.28778 0 4.05066Z" transform="translate(303.7993 60.66113)" id="Circle" fill="#6C63FF" stroke="none" />
    <path d="M0 0L18.228 0L18.228 10.1266L0 10.1266L0 0Z" transform="translate(289.6221 85.97766)" id="Rectangle" fill="#6C63FF" stroke="none" />
    <path d="M0 0L89.1144 0L89.1144 10.1266L0 10.1266L0 0Z" transform="translate(289.6221 165.9782)" id="Rectangle" fill="#6C63FF" stroke="none" />
    <path d="M0 0L89.113 1.52588e-05L89.113 10.1265L0 10.1265L0 0Z" transform="matrix(-1 8.742278E-08 -8.742278E-08 -1 695.689 96.10284)" id="Rectangle" fill="#F2F2F2" stroke="none" />
    <path d="M0 0L149.874 0L149.874 6.07599L0 6.07599L0 0Z" transform="translate(289.6221 183.1935)" id="Rectangle" fill="#F2F2F2" stroke="none" />
    <path d="M0 0L141.773 0L141.773 6.07599L0 6.07599L0 0Z" transform="translate(289.6221 196.3581)" id="Rectangle" fill="#F2F2F2" stroke="none" />
    <path d="M0 0L103.292 0L103.292 6.07599L0 6.07599L0 0Z" transform="translate(289.6221 209.5227)" id="Rectangle" fill="#F2F2F2" stroke="none" />
    <path d="M0 0L58.7345 0L58.7345 6.07599L0 6.07599L0 0Z" transform="translate(324.0525 389.777)" id="Rectangle" fill="#F2F2F2" stroke="none" />
    <path d="M0 0L55.5597 0L55.5597 6.07599L0 6.07599L0 0Z" transform="translate(324.0525 402.9417)" id="Rectangle" fill="#F2F2F2" stroke="none" />
    <path d="M0 0L40.4792 0L40.4792 6.07599L0 6.07599L0 0Z" transform="translate(324.0525 416.1063)" id="Rectangle" fill="#F2F2F2" stroke="none" />
    <path d="M0 0L58.7345 0L58.7345 6.07599L0 6.07599L0 0Z" transform="translate(460.7622 389.777)" id="Rectangle" fill="#F2F2F2" stroke="none" />
    <path d="M0 0L55.5597 0L55.5597 6.07599L0 6.07599L0 0Z" transform="translate(460.7622 402.9417)" id="Rectangle" fill="#F2F2F2" stroke="none" />
    <path d="M0 0L40.4792 0L40.4792 6.07599L0 6.07599L0 0Z" transform="translate(460.7622 416.1063)" id="Rectangle" fill="#F2F2F2" stroke="none" />
    <path d="M0 0L58.7345 0L58.7345 6.07599L0 6.07599L0 0Z" transform="translate(602.5352 389.777)" id="Rectangle" fill="#F2F2F2" stroke="none" />
    <path d="M0 0L55.5597 0L55.5597 6.07599L0 6.07599L0 0Z" transform="translate(602.5352 402.9417)" id="Rectangle" fill="#F2F2F2" stroke="none" />
    <path d="M0 0L40.4792 0L40.4792 6.07599L0 6.07599L0 0Z" transform="translate(602.5352 416.1063)" id="Rectangle" fill="#F2F2F2" stroke="none" />
    <path d="M0 0L89.1145 0L89.1145 10.1266L0 10.1266L0 0Z" transform="translate(415.1924 619.6518)" id="Rectangle" fill="#6C63FF" stroke="none" />
    <path d="M0 0L149.874 0L149.874 6.07599L0 6.07599L0 0Z" transform="translate(415.1924 636.8671)" id="Rectangle" fill="#F2F2F2" stroke="none" />
    <path d="M0 0L141.773 0L141.773 6.07593L0 6.07593L0 0Z" transform="translate(415.1924 650.0317)" id="Rectangle" fill="#F2F2F2" stroke="none" />
    <path d="M0 0L103.292 0L103.292 6.07599L0 6.07599L0 0Z" transform="translate(415.1924 663.1964)" id="Rectangle" fill="#F2F2F2" stroke="none" />
    <path d="M0 0L352.407 0L352.407 2.02533L0 2.02533L0 0Z" transform="translate(316.4575 275.3459)" id="Rectangle" fill="#6C63FF" fill-opacity="0.3" stroke="none" />
    <path d="M0 0L74.9372 0L74.9372 66.8358L0 66.8358L0 0Z" transform="translate(315.9512 310.7892)" id="Rectangle" fill="#6C63FF" fill-opacity="0.3" stroke="none" />
    <path d="M0 0L74.9372 0L74.9372 66.8358L0 66.8358L0 0Z" transform="translate(452.6609 310.7892)" id="Rectangle" fill="#3F3D56" stroke="none" />
    <path d="M0 0L74.9372 0L74.9372 66.8358L0 66.8358L0 0Z" transform="translate(594.4338 310.7892)" id="Rectangle" fill="#3F3D56" stroke="none" />
    <path d="M0.98862 34.0489L0 34.0296C0.021262 32.9347 0.639157 7.13185 10.7972 0L11.3649 0.809037C1.61665 7.65321 0.993441 33.7858 0.98862 34.0489L0.98862 34.0489Z" transform="translate(479.3774 343.2952)" id="Shape" fill="#6C63FF" stroke="none" />
    <path d="M0 4.94316C0 2.21313 2.21312 0 4.94315 0C7.67317 0 9.88629 2.21313 9.88629 4.94316C9.88629 7.67319 7.67317 9.88632 4.94315 9.88632C2.21312 9.88632 0 7.67319 0 4.94316Z" transform="translate(490.4583 333.0825)" id="Circle" fill="#6C63FF" stroke="none" />
    <path d="M7.94078 5.01984C5.3695 5.82746 2.63129 5.9457 0 5.36272C3.41285 1.01755 9.05876 -0.919056 14.4202 0.416463C12.7007 2.4918 10.4664 4.07918 7.94078 5.01984L7.94078 5.01984Z" transform="translate(486.4612 350.4599)" id="Shape" fill="#6C63FF" stroke="none" />
    <path d="M0.988618 34.0489L0 34.0296C0.0212619 32.9347 0.639156 7.13185 10.7972 0L11.3649 0.809037C1.61665 7.65321 0.993439 33.7858 0.988618 34.0489L0.988618 34.0489Z" transform="translate(621.1504 343.2952)" id="Shape" fill="#6C63FF" stroke="none" />
    <path d="M0 4.94316C0 2.21313 2.21312 0 4.94315 0C7.67317 0 9.88629 2.21313 9.88629 4.94316C9.88629 7.67319 7.67317 9.88632 4.94315 9.88632C2.21312 9.88632 0 7.67319 0 4.94316Z" transform="translate(632.2314 333.0825)" id="Circle" fill="#6C63FF" stroke="none" />
    <path d="M7.94081 5.01984C5.36953 5.82746 2.6313 5.9457 0 5.36272C3.41286 1.01755 9.0588 -0.919056 14.4202 0.416463C12.7008 2.4918 10.4664 4.07918 7.94081 5.01984L7.94081 5.01984Z" transform="translate(628.2349 350.4599)" id="Shape" fill="#6C63FF" stroke="none" />
    <path d="M0 0L89.1144 0L89.1144 10.1266L0 10.1266L0 0Z" transform="translate(289.6221 505.2207)" id="Rectangle" fill="#6C63FF" stroke="none" />
    <path d="M0 0L149.874 0L149.874 6.07593L0 6.07593L0 0Z" transform="translate(289.6221 522.436)" id="Rectangle" fill="#F2F2F2" stroke="none" />
    <path d="M0 0L141.773 0L141.773 6.07599L0 6.07599L0 0Z" transform="translate(289.6221 535.6006)" id="Rectangle" fill="#F2F2F2" stroke="none" />
    <path d="M0 0L103.292 0L103.292 6.07593L0 6.07593L0 0Z" transform="translate(289.6221 548.7653)" id="Rectangle" fill="#F2F2F2" stroke="none" />
    <path d="M0 31.6436C0 14.1673 14.1673 0 31.6436 0C49.1199 0 63.2872 14.1673 63.2872 31.6436C63.2872 49.1199 49.1199 63.2872 31.6436 63.2872C14.1673 63.2872 0 49.1199 0 31.6436Z" transform="translate(587.8557 487.5516)" id="Circle" fill="#6C63FF" fill-opacity="0.4" stroke="none" />
    <path d="M0 22.1978C0 9.93829 9.93829 0 22.1978 0C34.4573 0 44.3956 9.93829 44.3956 22.1978C44.3956 34.4573 34.4573 44.3956 22.1978 44.3956C9.93829 44.3956 0 34.4573 0 22.1978Z" transform="translate(538.7375 512.1109)" id="Circle" fill="#6C63FF" fill-opacity="0.4" stroke="none" />
    <path d="M0 80.0005C0 35.8174 35.8174 0 80.0005 0C124.184 0 160.001 35.8174 160.001 80.0005C160.001 124.184 124.184 160.001 80.0005 160.001C35.8174 160.001 0 124.184 0 80.0005Z" transform="translate(89.62085 509.7777)" id="Circle" fill="#2F2E41" stroke="none" />
    <path d="M0 0L24.3039 0L24.3039 43.5446L0 43.5446L0 0Z" transform="translate(133.1655 652.5634)" id="Rectangle" fill="#2F2E41" stroke="none" />
    <path d="M0 0L24.3039 0L24.3039 43.5446L0 43.5446L0 0Z" transform="translate(181.7732 652.5634)" id="Rectangle" fill="#2F2E41" stroke="none" />
    <path d="M0 7.595C0 3.4004 9.0677 0 20.2533 0C31.4389 0 40.5066 3.4004 40.5066 7.595C40.5066 11.7896 31.4389 15.19 20.2533 15.19C9.0677 15.19 0 11.7896 0 7.595Z" transform="translate(133.1655 689.0193)" id="Ellipse" fill="#2F2E41" stroke="none" />
    <path d="M0 7.595C0 3.4004 9.0677 0 20.2533 0C31.4389 0 40.5066 3.4004 40.5066 7.595C40.5066 11.7896 31.4389 15.19 20.2533 15.19C9.0677 15.19 0 11.7896 0 7.595Z" transform="translate(181.7732 688.0066)" id="Ellipse" fill="#2F2E41" stroke="none" />
    <path d="M0 27.3419C0 12.2414 12.2414 0 27.3419 0C42.4425 0 54.6839 12.2414 54.6839 27.3419C54.6839 42.4424 42.4425 54.6838 27.3419 54.6838C12.2414 54.6838 0 42.4424 0 27.3419Z" transform="translate(144.3047 542.183)" id="Circle" fill="#EEEEEE" stroke="none" />
    <path d="M0 9.11395C0 4.08046 4.08047 0 9.11398 0C14.1475 0 18.228 4.08046 18.228 9.11395C18.228 14.1474 14.1475 18.2279 9.11398 18.2279C4.08047 18.2279 0 14.1474 0 9.11395Z" transform="translate(162.5325 548.259)" id="Circle" fill="#3F3D56" stroke="none" />
    <path d="M1.18271 66.8715C-5.27696 37.9421 15.372 8.71019 47.3035 1.58013C79.235 -5.54994 110.357 12.1219 116.817 41.0514C123.277 69.9808 102.114 80.6504 70.1829 87.7804C38.2514 94.9104 7.64239 95.8008 1.18271 66.8715L1.18271 66.8715Z" transform="translate(90.83545 448.5085)" id="Shape" fill="#6C63FF" stroke="none" />
    <path d="M0 12.5571C-3.05176e-05 5.62204 17.9084 3.05176e-05 39.9996 0C62.0907 6.10352e-05 79.9991 5.62207 79.9991 12.5572C79.9991 19.4923 62.0907 25.1143 39.9996 25.1143C17.9084 25.1143 0 19.4922 0 12.5571Z" transform="matrix(0.4214026 -0.9068737 0.9068737 0.4214026 201.9072 532.2303)" id="Ellipse" fill="#2F2E41" stroke="none" />
    <path d="M0 39.9996C3.05176e-05 17.9084 5.62202 3.05176e-05 12.5571 0C19.4922 3.05176e-05 25.1142 17.9084 25.1142 39.9996C25.1142 62.0908 19.4922 79.9991 12.5571 79.9992C5.62204 79.9991 3.05176e-05 62.0907 0 39.9996Z" transform="matrix(0.8838204 -0.4678263 0.4678263 0.8838204 53.50586 496.0729)" id="Ellipse" fill="#2F2E41" stroke="none" />
    <path d="M0 39.9996C0 17.9084 5.62195 0 12.557 0C19.4921 -6.10352e-05 25.1141 17.9084 25.1141 39.9995C25.1141 62.0907 19.4921 79.9993 12.5571 79.9993C5.62195 79.9991 -6.10352e-05 62.0907 0 39.9996Z" transform="matrix(0.9330897 -0.3596438 0.3596438 0.9330897 804.2717 497.4685)" id="Ellipse" fill="#2F2E41" stroke="none" />
    <path d="M0 80.0005C0 35.8174 35.8174 0 80.0005 0C124.184 0 160.001 35.8174 160.001 80.0005C160.001 124.184 124.184 160.001 80.0005 160.001C35.8174 160.001 0 124.184 0 80.0005Z" transform="translate(824.5007 510.4885)" id="Circle" fill="#2F2E41" stroke="none" />
    <path d="M0 0L24.3037 0L24.3038 43.5442L6.10352e-05 43.5442L0 0Z" transform="matrix(-1 0.0028 -0.0028 -1 941.2361 696.7006)" id="Rectangle" fill="#2F2E41" stroke="none" />
    <path d="M0 0L24.3035 0L24.3035 43.5438L0 43.5438L0 0Z" transform="matrix(-0.9999961 0.002801022 -0.002801022 -0.9999961 892.6326 696.8409)" id="Rectangle" fill="#2F2E41" stroke="none" />
    <path d="M0 7.59479C-6.10352e-05 3.40027 9.06757 -0.00012207 20.253 0C31.4384 -6.10352e-05 40.5059 3.40027 40.5059 7.59479C40.5059 11.7894 31.4384 15.1896 20.253 15.1897C9.0675 15.1896 0 11.7894 0 7.59479Z" transform="matrix(0.9999961 -0.002801075 0.002801075 0.9999961 900.7141 689.7296)" id="Ellipse" fill="#2F2E41" stroke="none" />
    <path d="M0 7.59479C6.10352e-05 3.40027 9.0675 0 20.2529 0C31.4384 -6.10352e-05 40.5059 3.40033 40.5059 7.59479C40.5059 11.7894 31.4384 15.1896 20.2529 15.1897C9.0675 15.1897 6.10352e-05 11.7894 0 7.59479Z" transform="matrix(0.9999961 -0.002801075 0.002801075 0.9999961 852.104 688.8531)" id="Ellipse" fill="#2F2E41" stroke="none" />
    <path d="M0 27.3419C0 12.2414 12.2414 0 27.3419 0C42.4424 0 54.6838 12.2414 54.6838 27.3419C54.6838 42.4424 42.4424 54.6838 27.3419 54.6838C12.2414 54.6838 0 42.4424 0 27.3419Z" transform="translate(875.0771 542.8994)" id="Circle" fill="#EEEEEE" stroke="none" />
    <path d="M0 9.11398C0 4.08047 4.08046 0 9.11395 0C14.1474 0 18.2279 4.08047 18.2279 9.11398C18.2279 14.1475 14.1474 18.228 9.11395 18.228C4.08046 18.228 0 14.1475 0 9.11398Z" transform="translate(893.3052 561.1274)" id="Circle" fill="#3F3D56" stroke="none" />
    <path d="M116.84 66.7023C123.219 37.755 102.488 8.58107 70.5368 1.54051C38.5855 -5.50006 7.5129 12.2589 1.1343 41.2062C-5.24429 70.1536 15.9476 80.7639 47.8989 87.8045C79.8503 94.8451 110.462 95.6497 116.84 66.7023L116.84 66.7023Z" transform="translate(865.0552 449.1714)" id="Shape" fill="#6C63FF" stroke="none" />
    <path d="M0 12.5571C-6.10352e-05 5.62195 17.9084 0 39.9997 0C62.0908 0 79.9992 5.62207 79.9991 12.5571C79.9994 19.4923 62.0908 25.1142 39.9997 25.1142C17.9085 25.1141 6.10352e-05 19.4922 0 12.5571Z" transform="matrix(0.902324 -0.4310584 0.4310584 0.902324 952.9824 559.0186)" id="Ellipse" fill="#2F2E41" stroke="none" />
    <path d="M85.8967 9.4813C85.9186 17.3112 65.8012 32.8289 43.4302 32.8916C21.0591 32.9543 0.0219419 10.9694 0 3.13954C-0.0219419 -4.69037 20.9797 4.59982 43.3507 4.53715C65.7218 4.47447 85.8748 1.65139 85.8967 9.4813L85.8967 9.4813Z" transform="translate(857.9812 609.7584)" id="Shape" fill="#EEEEEE" stroke="none" />
    <path d="M0 111.644C0 49.9848 49.9848 0 111.644 0C173.304 0 223.288 49.9848 223.288 111.644C223.288 173.303 173.304 223.288 111.644 223.288C49.9848 223.288 0 173.303 0 111.644Z" transform="translate(817.22 362.9939)" id="Circle" fill="#6C63FF" fill-opacity="0.4" stroke="none" />
    <path d="M0 80.0005C0 35.8174 35.8174 0 80.0005 0C124.184 0 160.001 35.8174 160.001 80.0005C160.001 124.184 124.184 160.001 80.0005 160.001C35.8174 160.001 0 124.184 0 80.0005Z" transform="translate(112.8157 273.0049)" id="Circle" fill="#2F2E41" stroke="none" />
    <path d="M0 0L24.3035 0L24.3035 43.5439L0 43.5439L0 0Z" transform="matrix(0.9840063 0.1781335 -0.1781335 0.9840063 145.7566 408.2856)" id="Rectangle" fill="#2F2E41" stroke="none" />
    <path d="M0 0L24.3036 0L24.3036 43.5439L0 43.5438L0 0Z" transform="matrix(0.9840063 0.1781335 -0.1781335 0.9840063 193.5864 416.9442)" id="Rectangle" fill="#2F2E41" stroke="none" />
    <path d="M0 20.253C-1.52588e-05 9.06763 3.40033 3.05176e-05 7.59483 0C11.7894 0 15.1897 9.0676 15.1897 20.253C15.1897 31.4384 11.7894 40.506 7.59486 40.506C3.40027 40.506 -1.52588e-05 31.4384 0 20.253Z" transform="matrix(0.6462713 -0.7631078 0.7631078 0.6462713 181.594 460.049)" id="Ellipse" fill="#2F2E41" stroke="none" />
    <path d="M0 20.2529C3.05176e-05 9.06747 3.40033 -3.05176e-05 7.59489 0C11.7894 -6.10352e-05 15.1897 9.0675 15.1897 20.2529C15.1897 31.4383 11.7894 40.5059 7.59482 40.5059C3.40036 40.5059 0 31.4383 0 20.2529Z" transform="matrix(0.6462713 -0.7631078 0.7631078 0.6462713 134.761 451.5709)" id="Ellipse" fill="#2F2E41" stroke="none" />
    <path d="M0 27.3419C0 12.2414 12.2414 0 27.3419 0C42.4425 0 54.6839 12.2414 54.6839 27.3419C54.6839 42.4425 42.4425 54.6839 27.3419 54.6839C12.2414 54.6839 0 42.4425 0 27.3419Z" transform="translate(171.075 306.0948)" id="Circle" fill="#EEEEEE" stroke="none" />
    <path d="M0 9.11398C0 4.08047 4.08047 0 9.11398 0C14.1475 0 18.228 4.08047 18.228 9.11398C18.228 14.1475 14.1475 18.228 9.11398 18.228C4.08047 18.228 0 14.1475 0 9.11398Z" transform="translate(200.5405 314.5222)" id="Circle" fill="#3F3D56" stroke="none" />
    <path d="M0.0408397 56.0863C-1.16221 26.4689 24.3637 1.3828 57.0545 0.0548856C89.7454 -1.27303 117.222 21.6601 118.425 51.2775C119.628 80.8949 96.9037 87.6242 64.2128 88.9521C31.5219 90.28 1.24387 85.7036 0.0408397 56.0863L0.0408397 56.0863Z" transform="translate(129.6663 209.8872)" id="Shape" fill="#6C63FF" stroke="none" />
    <path d="M0 12.5571C3.05176e-05 5.62204 17.9084 6.10352e-05 39.9996 0C62.0908 3.05176e-05 79.9992 5.62207 79.9992 12.5572C79.9992 19.4922 62.0907 25.1143 39.9996 25.1142C17.9084 25.1142 3.05176e-05 19.4922 0 12.5571Z" transform="matrix(0.9747218 -0.2234219 0.2234219 0.9747218 224.8872 335.1222)" id="Ellipse" fill="#2F2E41" stroke="none" />
    <path d="M0 12.5571C0 5.62201 17.9084 0 39.9996 0C62.0907 0 79.9992 5.62204 79.9992 12.5571C79.9992 19.4922 62.0907 25.1142 39.9996 25.1142C17.9084 25.1143 0 19.4922 0 12.5571Z" transform="matrix(0.9747218 -0.2234219 0.2234219 0.9747218 67.85181 361.2371)" id="Ellipse" fill="#2F2E41" stroke="none" />
    <path d="M0.293681 9.50399C-1.49622 19.4084 5.08016 28.8891 14.9841 30.682C24.8879 32.4749 34.3706 25.9014 36.1665 15.9981C37.9598 6.09206 30.3008 2.58673 20.3947 0.793462C10.4887 -0.999808 2.08695 -0.402031 0.293681 9.50399L0.293681 9.50399Z" transform="translate(170.5503 375.0286)" id="Shape" fill="#EEEEEE" stroke="none" />
    <path d="M3.05176e-05 0L74.936 1.52588e-05L74.936 66.8347L0 66.8347L3.05176e-05 0Z" transform="matrix(0.9578788 0.2871726 -0.2871726 0.9578788 309.3994 266.4955)" id="Rectangle" fill="#3F3D56" stroke="none" />
    <path d="M0.941431 29.7979L0 29.4955C0.334753 28.4529 8.3365 3.91431 20.1148 0L20.4262 0.938C9.12313 4.69445 1.02163 29.5473 0.941431 29.7979L0.941431 29.7979Z" transform="translate(315.8887 308.4097)" id="Shape" fill="#6C63FF" stroke="none" />
    <path d="M0 4.94316C0 2.21313 2.21313 0 4.94316 0C7.67319 0 9.88632 2.21313 9.88632 4.94316C9.88632 7.67319 7.67319 9.88632 4.94316 9.88632C2.21313 9.88632 0 7.67319 0 4.94316Z" transform="translate(337.5801 299.92)" id="Circle" fill="#6C63FF" stroke="none" />
    <path d="M7.70478 4.51149C5.00988 4.54669 2.35303 3.8736 0 2.55956C4.5169 -0.622499 10.4812 -0.856195 15.2332 1.96271C12.9902 3.45686 10.3941 4.33574 7.70478 4.51149L7.70478 4.51149Z" transform="translate(328.8489 316.7834)" id="Shape" fill="#6C63FF" stroke="none" />
  </g>
</svg>