<svg width="778px" height="546px" viewBox="0 0 778 546" version="1.1" xmlns:xlink="http://www.w3.org/1999/xlink" xmlns="http://www.w3.org/2000/svg">
  <g id="undraw_web_developer_p3e5">
    <path d="M28.6468 38.3452C23.603 57.5525 5.9291 69.5557 5.9291 69.5557C5.9291 69.5557 -3.56722 50.4177 1.47653 31.2104C6.52029 12.0032 24.1942 0 24.1942 0C24.1942 0 33.6905 19.1379 28.6468 38.3452L28.6468 38.3452Z" transform="translate(595.3838 468.8997)" id="Shape" fill="#3F3D56" stroke="none" />
    <path d="M15.7073 15.2793C1.58051 29.2361 0 50.5421 0 50.5421C0 50.5421 21.3235 49.2196 35.4504 35.2628C49.5772 21.306 51.1577 0 51.1577 0C51.1577 0 29.834 1.32249 15.7073 15.2793L15.7073 15.2793Z" transform="translate(600.6729 487.9021)" id="Shape" fill="#6C63FF" stroke="none" />
    <path d="M23.754 30.6519L50.3585 30.6519L115.92 4.99756C115.92 4.99756 162.477 -14.0057 158.677 22.1004C154.876 58.2066 148.225 106.665 148.225 106.665C148.225 106.665 127.321 97.1631 115.92 100.014C104.518 102.864 112.119 42.0538 112.119 42.0538C112.119 42.0538 19.0032 86.7114 10.4518 81.0104C1.90032 75.3094 0 35.4027 0 35.4027L23.754 30.6519Z" transform="translate(80.76367 403.9353)" id="Shape" fill="#2F2E41" stroke="none" />
    <path d="M23.754 30.6519L50.3585 30.6519L115.92 4.99756C115.92 4.99756 162.477 -14.0057 158.677 22.1004C154.876 58.2066 148.225 106.665 148.225 106.665C148.225 106.665 127.321 97.1631 115.92 100.014C104.518 102.864 112.119 42.0538 112.119 42.0538C112.119 42.0538 19.0032 86.7114 10.4518 81.0104C1.90032 75.3094 0 35.4027 0 35.4027L23.754 30.6519Z" transform="translate(80.76367 403.9353)" id="Shape" fill="#000000" fill-opacity="0.1" stroke="none" />
    <path d="M23.8625 0L56.0594 46.2594L131.122 108.97C131.122 108.97 200.484 125.123 190.982 136.525C181.481 147.926 123.521 125.123 123.521 125.123C123.521 125.123 37.0562 62.4121 34.2058 57.6613C31.3553 52.9106 0 8.25303 0 8.25303L23.8625 0Z" transform="translate(122.5708 351.2715)" id="Shape" fill="#A0616A" stroke="none" />
    <path d="M23.8625 0L56.0594 46.2594L131.122 108.97C131.122 108.97 200.484 125.123 190.982 136.525C181.481 147.926 123.521 125.123 123.521 125.123C123.521 125.123 37.0562 62.4121 34.2058 57.6613C31.3553 52.9106 0 8.25303 0 8.25303L23.8625 0Z" transform="translate(122.5708 351.2715)" id="Shape" fill="#000000" fill-opacity="0.1" stroke="none" />
    <path d="M31.3553 0L52.2588 40.8569C52.2588 40.8569 47.508 60.8102 39.9067 62.7105C32.3054 64.6109 0 38.0064 0 38.0064L31.3553 0Z" transform="translate(95.96606 313.9167)" id="Shape" fill="#D0CDE1" stroke="none" />
    <path d="M31.3553 0L52.2588 40.8569C52.2588 40.8569 47.508 60.8102 39.9067 62.7105C32.3054 64.6109 0 38.0064 0 38.0064L31.3553 0Z" transform="translate(95.96606 313.9167)" id="Shape" fill="#000000" fill-opacity="0.1" stroke="none" />
    <path d="M28.847 1.21609L35.0217 26.6869C35.0906 26.9709 35.0799 27.2683 34.9909 27.5466L6.98096 115.078C6.75239 115.792 6.05599 116.249 5.30966 116.176C4.56328 116.102 3.96967 115.517 3.885 114.772L0.0101815 80.6737C-0.0155587 80.4472 0.00766916 80.2178 0.0782783 80.0012L25.7883 1.09806C26.0086 0.421628 26.6513 -0.026225 27.3622 0.00119004C28.0731 0.0286051 28.6794 0.524676 28.847 1.21609L28.847 1.21609Z" transform="translate(353.4885 412.2168)" id="Shape" fill="#2F2E41" stroke="none" />
    <path d="M24.7043 0L30.4048 21.854L5.70052 101.667L0 76.9631L24.7043 0L24.7043 0Z" transform="translate(355.3599 415.5837)" id="Polygon" fill="#F2F2F2" stroke="none" />
    <path d="M0.152149 43.7074C1.10231 46.5578 98.9688 42.7572 99.919 41.807C100.747 40.6171 101.448 39.3432 102.009 38.0064C102.902 36.1061 103.72 34.2057 103.72 34.2057L99.919 3.43958L3.00263 0C3.00263 0 0.579683 26.0724 0.0855729 38.0064C-0.037839 41.0184 -0.037839 43.1372 0.152149 43.7074L0.152149 43.7074Z" transform="translate(255.4409 490.6467)" id="Shape" fill="#2F2E41" stroke="none" />
    <path d="M40.857 0L42.7569 26.6041L0 26.6041L0 0L40.857 0L40.857 0Z" transform="translate(302.1509 498.248)" id="Polygon" fill="#000000" fill-opacity="0.1" stroke="none" />
    <path d="M24.7043 0.0505545L24.9592 0L23.7539 11.453L0 11.453L0 0.0505545L24.7043 0.0505545L24.7043 0.0505545Z" transform="translate(263.1946 506.7483)" id="Polygon" fill="#000000" fill-opacity="0.1" stroke="none" />
    <path d="M0.152149 5.70095C1.10231 8.5514 98.9688 4.75077 99.919 3.80063C100.747 2.61073 101.448 1.33681 102.009 0L0.0855729 0C-0.037839 3.01199 -0.037839 5.13083 0.152149 5.70095L0.152149 5.70095Z" transform="translate(255.4409 528.6531)" id="Shape" fill="#000000" fill-opacity="0.1" stroke="none" />
    <path d="M0 42.7572C0 19.1431 19.143 0 42.7572 0C66.3713 0 85.5144 19.1431 85.5144 42.7572C85.5144 66.3714 66.3713 85.5144 42.7572 85.5144C19.143 85.5144 0 66.3714 0 42.7572Z" transform="translate(98.81665 215.1001)" id="Circle" fill="#A0616A" stroke="none" />
    <path d="M65.086 36.8295C65.086 36.8295 50.8336 61.5336 47.9831 74.8359C45.1326 88.1381 5.22587 48.2314 5.22587 48.2314L0 34.4541C0 34.4541 37.5313 16.8761 34.6808 2.62371C31.8304 -11.6287 65.086 36.8295 65.086 36.8295L65.086 36.8295Z" transform="translate(73.63745 259.0344)" id="Shape" fill="#A0616A" stroke="none" />
    <path d="M45.6077 0L84.5642 51.3086L177.68 120.67C177.68 120.67 245.141 134.923 229.939 145.374C214.736 155.826 171.029 135.873 171.029 135.873C171.029 135.873 76.963 85.5144 57.0096 64.6109C37.0562 43.7074 0 8.55147 0 8.55147L45.6077 0Z" transform="translate(100.717 369.9763)" id="Shape" fill="#A0616A" stroke="none" />
    <path d="M84.5642 5.92143L95.9661 23.9745L164.014 2.56622C178.945 -2.1311 195.317 -0.402675 208.56 7.94054C220.437 15.423 228.038 27.3001 210.935 44.878C176.73 80.0339 153.926 61.0307 153.926 61.0307C153.926 61.0307 38.9565 115.19 19.9533 88.5854C0.950139 61.9808 0 48.6786 0 48.6786C0 48.6786 73.1623 3.07097 84.5642 5.92143L84.5642 5.92143Z" transform="translate(9.501709 443.8682)" id="Shape" fill="#2F2E41" stroke="none" />
    <path d="M99.7668 8.55143C99.7668 8.55143 130.172 28.5048 94.0659 38.0064C57.9598 47.508 31.3553 34.2058 31.3553 34.2058C31.3553 34.2058 0 34.2058 0 18.053C0 1.90032 10.4518 0 10.4518 0L42.7572 4.75078C42.7572 4.75078 81.7138 -5.70097 99.7668 8.55143L99.7668 8.55143Z" transform="translate(136.823 503.9487)" id="Shape" fill="#D0CDE1" stroke="none" />
    <path d="M91.6386 51.802C94.5488 53.0994 97.4346 54.6349 100.599 55.0115C103.762 55.3881 107.365 54.2835 108.862 51.4709C109.671 49.9517 109.764 48.1648 109.801 46.4442C109.916 41.2267 109.538 35.5862 106.232 31.5484C104.128 28.9787 101.056 27.3587 98.878 24.8513C97.3174 23.055 96.2788 20.8775 95.1605 18.7772C90.9245 10.8212 84.6525 3.17501 75.9359 0.881402C72.296 -0.076361 68.4776 -0.0296188 64.7143 0.0235144L42.7633 0.33319C39.2111 0.383304 35.6041 0.44155 32.2035 1.4697C25.1382 3.60594 19.9938 9.54744 15.2824 15.2295C11.7575 19.4804 8.22327 23.7754 5.57786 28.6228C1.78504 35.6966 -0.1328 43.624 0.00714025 51.6493C-0.0222692 53.7075 0.243463 55.7593 0.796227 57.7421C1.44289 59.5607 2.24408 61.3205 3.19102 63.0023C7.30754 71.0879 9.75179 81.1873 5.11583 88.9866C13.169 85.697 21.1371 81.3837 26.4494 74.495C28.8259 71.4133 30.6896 67.8058 33.8567 65.5444C37.0239 63.283 42.1844 63.0868 44.2164 66.4057C44.9149 67.7483 45.2746 69.2413 45.2641 70.7547C45.4125 73.246 45.4085 75.8332 46.4647 78.0943C47.521 80.3554 50.037 82.1799 52.4392 81.5033C56.5761 80.338 56.1799 73.9887 59.3663 71.1045C61.7861 68.9141 65.5194 69.3329 68.6282 68.3385C72.2503 67.18 74.9681 64.0421 76.5167 60.5688C77.6938 57.9287 77.6768 51.02 79.9041 49.5903C82.6973 47.7974 89.0494 50.6478 91.6386 51.802L91.6386 51.802Z" transform="translate(85.01099 195.2993)" id="Shape" fill="#2F2E41" stroke="none" />
    <path d="M70.2432 0.381144C72.1668 -0.132073 74.1919 -0.126916 76.1128 0.396086C82.2121 2.03354 95.885 6.3684 98.8166 12.9646C102.617 21.516 115.92 34.8183 115.92 34.8183C115.92 34.8183 133.973 52.8713 130.172 65.2234C126.371 77.5755 112.119 91.8279 112.119 91.8279C112.119 91.8279 115.92 150.738 96.9163 165.94C77.9131 181.143 70.3118 170.691 70.3118 184.944C70.3118 199.196 11.4019 243.853 0 216.299C0 216.299 5.70096 164.99 3.80064 146.937C1.92773 129.144 4.66957 18.1336 70.2432 0.381144L70.2432 0.381144Z" transform="translate(0 288.6001)" id="Shape" fill="#D0CDE1" stroke="none" />
    <path d="M44.3554 2.49603C44.3554 2.49603 102.315 45.2532 91.8634 63.3063C91.8634 63.3063 56.7074 80.4091 49.1062 79.459C41.5049 78.5088 12.0499 45.2532 4.44865 42.4027C-3.15261 39.5522 -6.95326 -11.7564 44.3554 2.49603L44.3554 2.49603Z" transform="translate(56.36157 310.4705)" id="Shape" fill="#D0CDE1" stroke="none" />
    <path d="M0 46.9388C0 21.0152 21.0152 0 46.9388 0C72.8624 0 93.8776 21.0152 93.8776 46.9388C93.8776 72.8624 72.8624 93.8776 46.9388 93.8776C21.0152 93.8776 0 72.8624 0 46.9388Z" transform="translate(312.7307 124.5381)" id="Circle" fill="#F2F2F2" stroke="none" />
    <path d="M0 0L488 0L488 317L0 317L0 0Z" transform="translate(289 0)" id="background" fill="#FFF2F2" stroke="none" />
    <path d="M0 55.0408L263.037 55.0408L263.037 0L0 0L0 55.0408ZM261.878 53.8819L1.15869 53.8819L1.15869 1.15869L261.878 1.15869L261.878 53.8819Z" transform="translate(484.3225 55.47534)" id="Shape" fill="#3F3D56" fill-rule="evenodd" stroke="none" />
    <path d="M0 0L261.878 0L261.878 53.882L0 53.882L0 0Z" transform="translate(466.3618 66.4834)" id="Rectangle" fill="#6C63FF" stroke="none" />
    <path d="M0 4.05569C0 1.81579 1.8158 0 4.05569 0C6.29559 0 8.11139 1.81579 8.11139 4.05569C8.11139 6.29558 6.29559 8.11137 4.05569 8.11137C1.8158 8.11137 0 6.29558 0 4.05569Z" transform="translate(296.7607 6.952637)" id="Circle" fill="#6C63FF" stroke="none" />
    <path d="M0 4.05569C0 1.81579 1.8158 0 4.05569 0C6.29559 0 8.11139 1.81579 8.11139 4.05569C8.11139 6.29558 6.29559 8.11137 4.05569 8.11137C1.8158 8.11137 0 6.29558 0 4.05569Z" transform="translate(310.6658 6.952637)" id="Circle" fill="#6C63FF" stroke="none" />
    <path d="M0 4.05569C0 1.81579 1.8158 0 4.05569 0C6.29559 0 8.11139 1.81579 8.11139 4.05569C8.11139 6.29558 6.29559 8.11137 4.05569 8.11137C1.8158 8.11137 0 6.29558 0 4.05569Z" transform="translate(324.5708 6.952637)" id="Circle" fill="#6C63FF" stroke="none" />
    <path d="M0 317.498L487.835 317.498L487.835 0L0 0L0 317.498ZM486.676 316.339L1.15869 316.339L1.15869 1.15869L486.676 1.15869L486.676 316.339Z" transform="translate(289.2288 0)" id="Shape" fill="#3F3D56" fill-rule="evenodd" stroke="none" />
    <path d="M0 0L486.676 0L486.676 1.15875L0 1.15875L0 0Z" transform="translate(289.8081 17.57544)" id="Rectangle" fill="#3F3D56" stroke="none" />
    <path d="M0 4.63501C0 7.1948 2.07508 9.26992 4.63485 9.27002C7.19349 9.26716 9.26701 7.19381 9.27005 4.63501C9.27005 2.07517 7.19488 0 4.63503 0C2.07517 0 0 2.07516 0 4.63501ZM1.15869 4.63495C1.15869 2.71507 2.71507 1.1587 4.63497 1.15869L4.63501 1.1587C6.55398 1.16094 8.10904 2.71604 8.11124 4.63495C8.11124 6.55483 6.55486 8.11121 4.63497 8.11121C2.71509 8.11121 1.15871 6.55484 1.15869 4.63495Z" transform="translate(297.3401 4.63501)" id="Shape" fill="#3F3D56" fill-rule="evenodd" stroke="none" />
    <path d="M0 4.63501C0 7.1948 2.07508 9.26992 4.63485 9.27002C7.19349 9.26716 9.26701 7.19381 9.27005 4.63501C9.27005 2.07517 7.19488 0 4.63503 0C2.07517 0 0 2.07516 0 4.63501ZM1.15869 4.63495C1.15869 2.71507 2.71507 1.1587 4.63497 1.15869L4.63501 1.1587C6.55398 1.16094 8.10904 2.71604 8.11124 4.63495C8.11124 6.55483 6.55486 8.11121 4.63497 8.11121C2.71509 8.11121 1.15871 6.55484 1.15869 4.63495Z" transform="translate(311.2451 4.63501)" id="Shape" fill="#3F3D56" fill-rule="evenodd" stroke="none" />
    <path d="M4.63495 9.27016L4.63512 9.27016C7.19367 9.26719 9.26707 7.19387 9.27011 4.63514C9.27011 2.76046 8.14085 1.07036 6.40886 0.352952C4.67686 -0.364456 2.68328 0.0321036 1.35766 1.35771C0.032087 2.68331 -0.364483 4.67692 0.352957 6.4089C1.07035 8.14083 2.76035 9.2701 4.63495 9.27016ZM1.42341 3.30464C1.96148 2.00564 3.22905 1.15869 4.63507 1.15869L4.63511 1.15869C6.55407 1.16096 8.1091 2.71605 8.11131 4.63495C8.11131 6.04097 7.26435 7.30853 5.96536 7.84659C4.66636 8.38465 3.17118 8.08723 2.17697 7.09303C1.18276 6.09883 0.885379 4.60362 1.42341 3.30464Z" transform="translate(325.1501 4.63501)" id="Shape" fill="#3F3D56" fill-rule="evenodd" stroke="none" />
    <path d="M0 0L1.15875 0L1.15875 299.214L0 299.214L0 0Z" transform="translate(442.0256 18.15479)" id="Rectangle" fill="#3F3D56" stroke="none" />
    <path d="M0 0L85.1683 0L85.1683 11.5875L0 11.5875L0 0Z" transform="translate(497.3584 165.2671)" id="Rectangle" fill="#F2F2F2" stroke="none" />
    <path d="M0 0L85.1683 0L85.1683 11.5875L0 11.5875L0 0Z" transform="translate(631.1943 165.2671)" id="Rectangle" fill="#F2F2F2" stroke="none" />
    <path d="M0 12.7463L86.3271 12.7463L86.3271 0L0 0L0 12.7463ZM85.1683 11.5875L1.15869 11.5875L1.15869 1.15869L85.1683 1.15869L85.1683 11.5875Z" transform="translate(501.4141 158.8938)" id="Shape" fill="#3F3D56" fill-rule="evenodd" stroke="none" />
    <path d="M0 0L85.1683 0L85.1683 11.5875L0 11.5875L0 0Z" transform="translate(497.3584 255.0706)" id="Rectangle" fill="#F2F2F2" stroke="none" />
    <path d="M0 12.7463L86.3271 12.7463L86.3271 0L0 0L0 12.7463ZM85.1683 11.5875L1.15869 11.5875L1.15869 1.15869L85.1683 1.15869L85.1683 11.5875Z" transform="translate(501.4141 248.6973)" id="Shape" fill="#3F3D56" fill-rule="evenodd" stroke="none" />
    <path d="M220.163 12.7463L0 12.7463L0 0L220.163 0L220.163 12.7463Z" transform="translate(501.7039 203.7954)" id="Shape-path" fill="#3F3D56" stroke="none" />
    <path d="M0 0L219.004 0L219.004 11.5875L0 11.5875L0 0Z" transform="translate(497.6479 209.01)" id="Rectangle" fill="#F2F2F2" stroke="none" />
    <path d="M0 10.4288L217.845 10.4288L217.845 0L0 0L0 10.4288Z" transform="translate(502.8625 204.9541)" id="Shape" fill="#3F3D56" stroke="none" />
    <path d="M0 12.7463L86.327 12.7463L86.327 0L0 0L0 12.7463ZM85.1683 11.5875L1.15869 11.5875L1.15874 1.15869L85.1683 1.15869L85.1683 11.5875Z" transform="translate(635.2498 158.8938)" id="Shape" fill="#3F3D56" fill-rule="evenodd" stroke="none" />
    <path d="M47.6602 95.3219L47.6609 95.3219C73.9707 95.2922 95.2917 73.9715 95.3219 47.6609C95.3219 21.3385 73.9834 0 47.6609 0C21.3385 -1.10189e-05 0 21.3385 0 47.6609C0 73.9831 21.3381 95.3215 47.6602 95.3219ZM47.6605 1.44434L47.661 1.44434C73.1735 1.47325 93.8485 22.1479 93.8777 47.661C93.8777 73.1858 73.1858 93.8777 47.661 93.8777C22.1363 93.8777 1.44434 73.1858 1.44434 47.661C1.44434 22.1364 22.136 1.4446 47.6605 1.44434Z" transform="translate(319.9519 110.8176)" id="Shape" fill="#3F3D56" fill-rule="evenodd" stroke="none" />
    <path d="M0 0L204.364 0L204.364 1.44427L0 1.44427L0 0Z" transform="translate(540.2031 537.5994)" id="Rectangle" fill="#3F3D56" stroke="none" />
  </g>
</svg>