<svg width="882px" height="553px" viewBox="0 0 882 553" version="1.1" xmlns:xlink="http://www.w3.org/1999/xlink" xmlns="http://www.w3.org/2000/svg">
  <g id="undraw_content_team_3epn">
    <path d="M0 0L878.64 0L878.64 552.215L0 552.215L0 0Z" transform="translate(2.679688 0)" id="Background" fill="none" stroke="none" />
    <path d="M767.534 48.3659L24.9009 48.3659C11.1485 48.3659 0 37.2174 0 23.465L0 23.465C269.205 -7.82165 533.35 -7.82165 792.435 23.465C792.435 23.465 792.435 23.465 792.435 23.465C792.435 37.2173 781.287 48.3658 767.534 48.3658L767.534 48.3659Z" transform="translate(73.0083 503.8488)" id="Shape" fill="#BBBBBB" stroke="none" />
    <path d="M792.435 528.779L0 527.314L91.8405 372.782L92.2799 372.049L92.2799 31.4777C92.2799 23.1264 95.5967 15.1198 101.501 9.21698C107.404 3.3141 115.412 -0.00138855 123.76 0L664.284 0C672.632 -0.000701904 680.639 3.31548 686.542 9.21884C692.446 15.1222 695.762 23.1291 695.761 31.4777L695.761 374.393L792.435 528.779Z" transform="translate(73.0083 0)" id="Shape" fill="#E6E6E6" stroke="none" />
    <path d="M10.2533 1.52588e-05C4.5932 0.00636292 0.00634766 4.59322 0 10.2533L0 320.783C0.00646973 326.442 4.59308 331.029 10.2531 331.036L556.609 331.036C562.269 331.029 566.855 326.442 566.862 320.783L566.862 10.2533C566.856 4.59352 562.269 0.00672913 556.609 0L10.2533 1.52588e-05Z" transform="translate(185.7947 21.97144)" id="Shape" fill="#EEEEEE" stroke="none" />
    <path d="M32.6936 0C30.9785 0.00292969 29.4209 1.00079 28.7013 2.55762L0.402374 64.0776C-0.223694 65.438 -0.113739 67.0237 0.694092 68.2847C1.50192 69.5458 2.89639 70.3085 4.39398 70.3086L599.505 70.3086C601.028 70.3085 602.443 69.5199 603.243 68.2242C604.043 66.9286 604.116 65.3109 603.435 63.9489L572.675 2.42896C571.934 0.937012 570.411 -0.00482178 568.745 6.10352e-05L32.6936 0Z" transform="translate(166.9451 394.0206)" id="Shape" fill="#BBBBBB" stroke="none" />
    <path d="M0 6.59142C0 2.95108 2.95108 0 6.59142 0C10.2318 0 13.1828 2.95108 13.1828 6.59142C13.1828 10.2318 10.2318 13.1828 6.59142 13.1828C2.95108 13.1828 0 10.2318 0 6.59142Z" transform="translate(460.4373 3.661987)" id="Circle" fill="#EEEEEE" stroke="none" />
    <path d="M11.4926 6.10352e-05C9.50677 0.00256348 7.76868 1.33459 7.24994 3.2514L0.151428 29.6171C-0.204346 30.9371 0.074646 32.3475 0.906189 33.4327C1.73767 34.5179 3.02692 35.1543 4.3941 35.1542L139.392 35.1542C140.813 35.1542 142.147 34.4666 142.971 33.3086C143.795 32.1506 144.008 30.6654 143.543 29.3224L134.417 2.95673C133.803 1.18744 132.137 0.000732422 130.264 0L11.4926 6.10352e-05Z" transform="translate(397.0415 476.0471)" id="Shape" fill="#BBBBBB" stroke="none" />
    <path d="M603.921 0L603.921 5.86002L0 5.86002L0.453995 5.12701L0.453995 0L603.921 0L603.921 0Z" transform="translate(164.8489 366.922)" id="Polygon" fill="#BBBBBB" stroke="none" />
    <path d="M2.79858 0C2.315 0.000610352 1.89172 0.324951 1.76544 0.791748L0.0368652 7.21222C-0.0497437 7.53369 0.0181885 7.87714 0.220642 8.14136C0.423157 8.40564 0.737061 8.56061 1.07001 8.56061L33.9439 8.56061C34.29 8.56061 34.6147 8.39319 34.8155 8.11115C35.0162 7.82916 35.0681 7.46747 34.9548 7.14044L32.7324 0.720032C32.5831 0.289185 32.1772 0.000183105 31.7212 6.10352e-05L2.79858 0Z" transform="translate(691.4285 380.344)" id="Shape" fill="#BBBBBB" stroke="none" />
    <path d="M2.79858 0C2.315 0.000610352 1.89172 0.324951 1.76544 0.791748L0.0368652 7.21222C-0.0497437 7.53369 0.0181885 7.87714 0.220642 8.14136C0.423157 8.40564 0.737061 8.56061 1.07001 8.56061L33.9439 8.56061C34.29 8.56061 34.6147 8.39319 34.8155 8.11115C35.0162 7.82916 35.0681 7.46747 34.9548 7.14044L32.7324 0.720032C32.5831 0.289185 32.1772 0.000183105 31.7212 6.10352e-05L2.79858 0Z" transform="translate(643.4285 380.344)" id="Shape" fill="#BBBBBB" stroke="none" />
    <path d="M70.4236 344.388L73.0001 344.388L67.847 0L65.2706 0L65.3734 6.87061L7.62671 6.87061L7.72949 0L5.15302 0L0 344.388L2.57648 344.388L2.91058 322.059L70.0894 322.059L70.4236 344.388ZM65.412 9.44711L66.0416 51.5294L6.9585 51.5294L7.58813 9.44711L65.412 9.44711ZM6.29028 96.1882L66.7098 96.1882L66.0802 54.1059L6.91992 54.1059L6.29028 96.1882ZM66.7484 98.7647L67.3781 140.847L5.62207 140.847L6.25171 98.7647L66.7484 98.7647ZM68.0463 185.506L67.4166 143.424L5.5835 143.424L4.95386 185.506L68.0463 185.506ZM68.0848 188.082L68.7145 230.165L4.28564 230.165L4.91528 188.082L68.0848 188.082ZM69.3827 274.824L68.7531 232.741L4.24701 232.741L3.61737 274.824L69.3827 274.824ZM3.57886 277.4L2.94922 319.482L70.0509 319.482L69.4213 277.4L3.57886 277.4Z" transform="translate(436.7375 76.75134)" id="Shape" fill="#3F3D56" fill-rule="evenodd" stroke="none" />
    <path d="M0 42.0123C0 18.8096 18.8096 0 42.0123 0C65.2151 0 84.0247 18.8096 84.0247 42.0123C84.0247 65.2151 65.2151 84.0247 42.0123 84.0247C18.8096 84.0247 0 65.2151 0 42.0123Z" transform="translate(418.4619 111.3453)" id="Circle" fill="#2F2E41" stroke="none" />
    <path d="M0 0L12.7632 0L12.7632 22.8675L0 22.8675L0 0Z" transform="matrix(0.9840063 -0.1781335 0.1781335 0.9840063 472.627 184.6653)" id="Rectangle" fill="#2F2E41" stroke="none" />
    <path d="M0 0L12.7632 0L12.7632 22.8675L0 22.8675L0 0Z" transform="matrix(0.9840063 -0.1781335 0.1781335 0.9840063 447.5088 189.2123)" id="Rectangle" fill="#2F2E41" stroke="none" />
    <path d="M0 3.98853C0 1.78573 4.76191 0 10.636 0C16.5101 0 21.272 1.78573 21.272 3.98853C21.272 6.19133 16.5101 7.97706 10.636 7.97706C4.76191 7.97706 0 6.19133 0 3.98853Z" transform="matrix(0.7631077 -0.6462713 0.6462713 0.7631077 444.9775 217.236)" id="Ellipse" fill="#2F2E41" stroke="none" />
    <path d="M0 3.98853C0 1.78573 4.76192 0 10.6361 0C16.5102 0 21.2721 1.78573 21.2721 3.98853C21.2721 6.19133 16.5102 7.97706 10.6361 7.97706C4.76192 7.97706 0 6.19133 0 3.98853Z" transform="matrix(0.7631077 -0.6462713 0.6462713 0.7631077 469.5725 212.7836)" id="Ellipse" fill="#2F2E41" stroke="none" />
    <path d="M0 14.3586C0 6.42858 6.42858 0 14.3586 0C22.2887 0 28.7173 6.42858 28.7173 14.3586C28.7173 22.2887 22.2887 28.7173 14.3586 28.7173C6.42858 28.7173 0 22.2887 0 14.3586Z" transform="translate(443.1743 128.7225)" id="Circle" fill="#EEEEEE" stroke="none" />
    <path d="M0 4.78622C0 2.14286 2.14286 0 4.78622 0C7.42958 0 9.57244 2.14286 9.57244 4.78622C9.57244 7.42958 7.42958 9.57244 4.78622 9.57244C2.14286 9.57244 0 7.42958 0 4.78622Z" transform="translate(446.8455 133.1481)" id="Circle" fill="#3F3D56" stroke="none" />
    <path d="M62.1935 29.4538C62.8253 13.9002 49.4203 0.726151 32.2527 0.0288239C15.085 -0.668503 0.655762 11.3748 0.0239258 26.9284C-0.60791 42.482 11.3258 46.0159 28.4935 46.7133C45.6611 47.4107 61.5617 45.0073 62.1935 29.4538L62.1935 29.4538Z" transform="translate(431.4226 78.19897)" id="Shape" fill="#6C63FF" stroke="none" />
    <path d="M0 21.0062C0 9.40478 2.95245 0 6.59448 0C10.2365 0 13.189 9.40478 13.189 21.0062C13.189 32.6075 10.2365 42.0123 6.59448 42.0123C2.95245 42.0123 0 32.6075 0 21.0062Z" transform="matrix(0.223422 -0.9747218 0.9747218 0.223422 399.7332 147.4381)" id="Ellipse" fill="#2F2E41" stroke="none" />
    <path d="M0 21.0062C0 9.40478 2.95245 0 6.59448 0C10.2365 0 13.189 9.40478 13.189 21.0062C13.189 32.6075 10.2365 42.0123 6.59448 42.0123C2.95245 42.0123 0 32.6075 0 21.0062Z" transform="matrix(0.223422 -0.9747218 0.9747218 0.223422 482.2017 161.1527)" id="Ellipse" fill="#2F2E41" stroke="none" />
    <path d="M18.9761 4.99109C19.923 10.1923 16.4741 15.1763 11.2729 16.1232C6.07166 17.07 1.08765 13.6212 0.140808 8.41992L0.137451 8.40143C-0.804321 3.19928 3.21783 1.35843 8.41998 0.416687C13.6221 -0.525055 18.0344 -0.21106 18.9761 4.99109L18.9761 4.99109Z" transform="translate(453.0369 164.9231)" id="Shape" fill="#EEEEEE" stroke="none" />
    <path d="M0 6.76007C0 3.02659 9.64096 0 21.5337 0C33.4264 0 43.0674 3.02659 43.0674 6.76007C43.0674 10.4936 33.4264 13.5201 21.5337 13.5201C9.64096 13.5201 0 10.4936 0 6.76007Z" transform="matrix(0.3570287 -0.9340934 0.9340934 0.3570287 297.863 311.3346)" id="Ellipse" fill="#2F2E41" stroke="none" />
    <path d="M0 43.0673C0 19.2819 19.2819 0 43.0673 0C66.8528 0 86.1347 19.2819 86.1347 43.0673C86.1347 66.8528 66.8528 86.1347 43.0673 86.1347C19.2819 86.1347 0 66.8528 0 43.0673Z" transform="matrix(0.1601824 -0.9870874 0.9870874 0.1601824 222.6487 361.7684)" id="Circle" fill="#2F2E41" stroke="none" />
    <path d="M0 0L13.0837 0L13.0837 23.4417L0 23.4417L0 0Z" transform="translate(252.4329 359.9554)" id="Rectangle" fill="#2F2E41" stroke="none" />
    <path d="M0 0L13.0837 0L13.0837 23.4417L0 23.4417L0 0Z" transform="translate(278.6003 359.9554)" id="Rectangle" fill="#2F2E41" stroke="none" />
    <path d="M0 4.08868C0 1.83056 4.8815 0 10.9031 0C16.9248 0 21.8063 1.83056 21.8063 4.08868C21.8063 6.3468 16.9248 8.17736 10.9031 8.17736C4.8815 8.17736 0 6.3468 0 4.08868Z" transform="translate(252.4329 379.5809)" id="Ellipse" fill="#2F2E41" stroke="none" />
    <path d="M0 4.08868C0 1.83056 4.8815 0 10.9031 0C16.9248 0 21.8063 1.83056 21.8063 4.08868C21.8063 6.3468 16.9248 8.17736 10.9031 8.17736C4.8815 8.17736 0 6.3468 0 4.08868Z" transform="translate(278.6003 379.0359)" id="Ellipse" fill="#2F2E41" stroke="none" />
    <path d="M0.636688 35.9995C-2.84079 20.4257 8.27536 4.68899 25.4653 0.850616C42.6552 -2.98776 59.4095 6.5257 62.887 22.0995C66.3645 37.6733 54.9721 43.4171 37.7821 47.2555C20.5922 51.0938 4.11417 51.5732 0.636688 35.9995L0.636688 35.9995Z" transform="translate(229.645 250.1049)" id="Shape" fill="#6C63FF" stroke="none" />
    <path d="M0 21.5337C0 9.64096 3.02659 0 6.76007 0C10.4936 0 13.5201 9.64096 13.5201 21.5337C13.5201 33.4264 10.4936 43.0674 6.76007 43.0674C3.02659 43.0674 0 33.4264 0 21.5337Z" transform="matrix(0.4285292 -0.9035279 0.9035279 0.4285292 201.1973 303.0524)" id="Ellipse" fill="#2F2E41" stroke="none" />
    <path d="M0 43.0673C0 19.2819 19.2819 0 43.0673 0C66.8528 0 86.1347 19.2819 86.1347 43.0673C86.1347 66.8528 66.8528 86.1347 43.0673 86.1347C19.2819 86.1347 0 66.8528 0 43.0673Z" transform="translate(42.51318 326.6959)" id="Circle" fill="#2F2E41" stroke="none" />
    <path d="M0 0L13.0837 0L13.0837 23.4417L0 23.4417L0 0Z" transform="translate(65.95508 403.5629)" id="Rectangle" fill="#2F2E41" stroke="none" />
    <path d="M0 0L13.0837 0L13.0837 23.4417L0 23.4417L0 0Z" transform="translate(92.12256 403.5629)" id="Rectangle" fill="#2F2E41" stroke="none" />
    <path d="M0 4.08868C0 1.83056 4.8815 0 10.9031 0C16.9248 0 21.8063 1.83056 21.8063 4.08868C21.8063 6.3468 16.9248 8.17736 10.9031 8.17736C4.8815 8.17736 0 6.3468 0 4.08868Z" transform="translate(65.95483 423.1885)" id="Ellipse" fill="#2F2E41" stroke="none" />
    <path d="M0 4.08868C0 1.83056 4.8815 0 10.9031 0C16.9248 0 21.8063 1.83056 21.8063 4.08868C21.8063 6.3468 16.9248 8.17736 10.9031 8.17736C4.8815 8.17736 0 6.3468 0 4.08868Z" transform="translate(92.12256 422.6433)" id="Ellipse" fill="#2F2E41" stroke="none" />
    <path d="M0 14.7192C0 6.59002 6.59002 0 14.7192 0C22.8484 0 29.4384 6.59002 29.4384 14.7192C29.4384 22.8484 22.8484 29.4384 14.7192 29.4384C6.59002 29.4384 0 22.8484 0 14.7192Z" transform="translate(71.95166 344.1409)" id="Circle" fill="#EEEEEE" stroke="none" />
    <path d="M0 4.90642C0 2.19668 2.19668 0 4.90642 0C7.61616 0 9.81284 2.19668 9.81284 4.90642C9.81284 7.61616 7.61616 9.81284 4.90642 9.81284C2.19668 9.81284 0 7.61616 0 4.90642Z" transform="translate(81.7644 353.9537)" id="Circle" fill="#3F3D56" stroke="none" />
    <path d="M0.636703 35.9994C-2.84077 20.4256 8.27538 4.689 25.4653 0.850616C42.6553 -2.98776 59.4095 6.52573 62.887 22.0995C66.3645 37.6733 54.9721 43.4172 37.7822 47.2555C20.5922 51.0938 4.11424 51.5733 0.636703 35.9994L0.636703 35.9994Z" transform="translate(43.16699 293.7124)" id="Shape" fill="#E6E6E6" stroke="none" />
    <path d="M0 6.76007C0 3.02659 9.64096 0 21.5337 0C33.4264 0 43.0674 3.02659 43.0674 6.76007C43.0674 10.4936 33.4264 13.5201 21.5337 13.5201C9.64096 13.5201 0 10.4936 0 6.76007Z" transform="matrix(0.3570287 -0.9340934 0.9340934 0.3570287 96.66577 231.1918)" id="Ellipse" fill="#2F2E41" stroke="none" />
    <path d="M0 43.0673C0 19.2819 19.2819 0 43.0673 0C66.8528 0 86.1347 19.2819 86.1347 43.0673C86.1347 66.8528 66.8528 86.1347 43.0673 86.1347C19.2819 86.1347 0 66.8528 0 43.0673Z" transform="matrix(0.1601824 -0.9870874 0.9870874 0.1601824 21.45142 281.6254)" id="Circle" fill="#2F2E41" stroke="none" />
    <path d="M0 0L13.0837 0L13.0837 23.4417L0 23.4417L0 0Z" transform="translate(51.23584 279.8124)" id="Rectangle" fill="#2F2E41" stroke="none" />
    <path d="M0 0L13.0837 0L13.0837 23.4417L0 23.4417L0 0Z" transform="translate(77.40332 279.8124)" id="Rectangle" fill="#2F2E41" stroke="none" />
    <path d="M0 4.08868C0 1.83056 4.8815 0 10.9031 0C16.9248 0 21.8063 1.83056 21.8063 4.08868C21.8063 6.3468 16.9248 8.17736 10.9031 8.17736C4.8815 8.17736 0 6.3468 0 4.08868Z" transform="translate(51.23584 299.4381)" id="Ellipse" fill="#2F2E41" stroke="none" />
    <path d="M0 4.08868C0 1.83056 4.8815 0 10.9031 0C16.9248 0 21.8063 1.83056 21.8063 4.08868C21.8063 6.3468 16.9248 8.17736 10.9031 8.17736C4.8815 8.17736 0 6.3468 0 4.08868Z" transform="translate(77.40332 298.8929)" id="Ellipse" fill="#2F2E41" stroke="none" />
    <path d="M0 14.7192C0 6.59002 6.59002 0 14.7192 0C22.8484 0 29.4384 6.59002 29.4384 14.7192C29.4384 22.8484 22.8484 29.4384 14.7192 29.4384C6.59002 29.4384 0 22.8484 0 14.7192Z" transform="translate(57.23242 220.3905)" id="Circle" fill="#EEEEEE" stroke="none" />
    <path d="M0 4.90642C0 2.19668 2.19668 0 4.90642 0C7.61616 0 9.81284 2.19668 9.81284 4.90642C9.81284 7.61616 7.61616 9.81284 4.90642 9.81284C2.19668 9.81284 0 7.61616 0 4.90642Z" transform="translate(67.04517 230.2032)" id="Circle" fill="#3F3D56" stroke="none" />
    <path d="M0.636703 35.9995C-2.84077 20.4257 8.27538 4.689 25.4653 0.850616C42.6553 -2.98776 59.4095 6.5257 62.887 22.0995C66.3645 37.6733 54.9721 43.4171 37.7822 47.2555C20.5922 51.0938 4.11418 51.5733 0.636703 35.9995L0.636703 35.9995Z" transform="translate(28.448 169.9619)" id="Shape" fill="#6C63FF" stroke="none" />
    <path d="M0 21.5337C0 9.64096 3.02659 0 6.76007 0C10.4936 0 13.5201 9.64096 13.5201 21.5337C13.5201 33.4264 10.4936 43.0674 6.76007 43.0674C3.02659 43.0674 0 33.4264 0 21.5337Z" transform="matrix(0.4285292 -0.9035279 0.9035279 0.4285292 0 222.9095)" id="Ellipse" fill="#2F2E41" stroke="none" />
    <path d="M0 5.2261C0 9.44125 10.8533 17.7647 22.8965 17.7647C34.9398 17.7647 46.2317 5.89767 46.2317 1.68259C46.2317 -2.5325 34.9398 2.50034 22.8965 2.50034C10.8533 2.50034 0 1.01096 0 5.2261L0 5.2261Z" transform="translate(49.70679 256.3236)" id="Shape" fill="#EEEEEE" stroke="none" />
    <path d="M3 0C1.34387 0.0018158 0.00180054 1.34392 0 3.00002L0 127C0.00180054 128.656 1.34387 129.998 3 130L290 130C291.656 129.998 292.998 128.656 293 127L293 3.00002C292.998 1.34389 291.656 0.0018158 290 0L3 0Z" transform="translate(110.2036 81.56873)" id="Shape" fill="#6C63FF" stroke="none" />
    <path d="M0 29.1211C0 13.038 13.038 0 29.1211 0C45.2042 0 58.2422 13.038 58.2422 29.1211C58.2422 45.2042 45.2042 58.2422 29.1211 58.2422C13.038 58.2422 0 45.2042 0 29.1211Z" transform="translate(161.5769 117.4476)" id="Circle" fill="#EEEEEE" stroke="none" />
    <path d="M3.3494 0.000305176C1.49075 0.0307922 0 1.54623 0 3.40512C0 5.26401 1.49075 6.77945 3.3494 6.80997L95.295 6.80997C97.1755 6.84082 98.7249 5.34146 98.7558 3.46103C95.3696 -0.000366211 97.2873 0.0311584 95.4069 0.000274658C95.4069 0.000274658 95.3323 -0.000366211 95.295 0.000274658C95.295 0.000274658 3.3494 0.000305176 3.3494 0.000305176Z" transform="translate(253.074 142.6938)" id="b71acdfd-6a55-428e-917a-53f192cb0203" fill="#EEEEEE" stroke="none" />
    <path d="M3.3494 0.000244141C1.49075 0.0307617 0 1.5462 0 3.40509C0 5.26398 1.49075 6.77942 3.3494 6.80994L49.265 6.80994C50.4817 6.83029 51.6168 6.19983 52.2425 5.15616C52.8683 4.11246 52.8895 2.81421 52.2982 1.75061C49.3391 -0.000366211 50.5931 0.0197449 49.3764 0.000274658C49.3764 0.000274658 49.3019 -0.000366211 49.2646 0.000274658C49.2646 0.000274658 3.3494 0.000244141 3.3494 0.000244141Z" transform="translate(253.074 122.9667)" id="ad4fbcfa-41b0-45f9-a593-23b6dc3fe165" fill="#EEEEEE" stroke="none" />
    <path d="M3.3494 0.000305176C1.49075 0.0308228 0 1.54626 0 3.40515C0 5.26404 1.49075 6.77948 3.3494 6.81L95.295 6.81C97.1755 6.84085 98.7249 5.34149 98.7558 3.46106C95.3696 -0.000366211 97.2873 0.031189 95.4069 0.000305176C95.4069 0.000305176 95.3323 -0.000366211 95.295 0.000305176C95.295 0.000305176 3.3494 0.000305176 3.3494 0.000305176Z" transform="translate(253.074 163.3605)" id="bce2a7cd-a325-424d-9b3a-f63d1dad5aba" fill="#EEEEEE" stroke="none" />
    <path d="M0 21.5337C0 9.64096 3.02659 0 6.76007 0C10.4936 0 13.5201 9.64096 13.5201 21.5337C13.5201 33.4264 10.4936 43.0674 6.76007 43.0674C3.02659 43.0674 0 33.4264 0 21.5337Z" transform="matrix(0.9340934 -0.3570287 0.3570287 0.9340934 681.2798 354.9092)" id="Ellipse" fill="#2F2E41" stroke="none" />
    <path d="M0 43.0673C0 19.2819 19.2819 0 43.0673 0C66.8528 0 86.1347 19.2819 86.1347 43.0673C86.1347 66.8528 66.8528 86.1347 43.0673 86.1347C19.2819 86.1347 0 66.8528 0 43.0673Z" transform="matrix(0.9870875 -0.1601822 0.1601822 0.9870875 676.6799 378.5195)" id="Circle" fill="#2F2E41" stroke="none" />
    <path d="M13.0829 0L0 0L2.56 28.073L13.106 25.208L13.0829 0L13.0829 0Z" transform="translate(732.6318 447.932)" id="Polygon" fill="#2F2E41" stroke="none" />
    <path d="M13.084 0L0 0L2.56 28.073L12.63 25.135L13.084 0L13.084 0Z" transform="translate(704.1077 448.005)" id="Polygon" fill="#2F2E41" stroke="none" />
    <path d="M0 4.08868C0 1.83056 4.8815 0 10.9031 0C16.9248 0 21.8063 1.83056 21.8063 4.08868C21.8063 6.3468 16.9248 8.17736 10.9031 8.17736C4.8815 8.17736 0 6.3468 0 4.08868Z" transform="matrix(0.9973379 -0.07291862 0.07291862 0.9973379 694.8254 470.0364)" id="Ellipse" fill="#2F2E41" stroke="none" />
    <path d="M0 14.7192C0 6.59002 6.59002 0 14.7192 0C22.8484 0 29.4384 6.59002 29.4384 14.7192C29.4384 22.8484 22.8484 29.4384 14.7192 29.4384C6.59002 29.4384 0 22.8484 0 14.7192Z" transform="translate(710.28 388.5098)" id="Circle" fill="#EEEEEE" stroke="none" />
    <path d="M0 4.90642C0 2.19668 2.19668 0 4.90642 0C7.61616 0 9.81284 2.19668 9.81284 4.90642C9.81284 7.61616 7.61616 9.81284 4.90642 9.81284C2.19668 9.81284 0 7.61616 0 4.90642Z" transform="translate(720.093 398.3226)" id="Circle" fill="#3F3D56" stroke="none" />
    <path d="M0 6.76007C0 3.02659 9.64096 0 21.5337 0C33.4264 0 43.0674 3.02659 43.0674 6.76007C43.0674 10.4936 33.4264 13.5201 21.5337 13.5201C9.64096 13.5201 0 10.4936 0 6.76007Z" transform="matrix(0.5941225 -0.8043746 0.8043746 0.5941225 753.3665 397.4535)" id="Ellipse" fill="#2F2E41" stroke="none" />
    <path d="M0 10.334C0 6.85999 8.94501 0 18.8708 0C28.7966 0 38.1031 9.78052 38.1031 13.2545C38.1031 16.7284 28.7965 12.5804 18.8708 12.5804C8.94507 12.5804 0 13.808 0 10.334L0 10.334Z" transform="translate(705.0769 426.0048)" id="Shape" fill="#EEEEEE" stroke="none" />
    <path d="M241.784 237.786L6.03851 205.105C2.21173 204.57 -0.4599 201.038 0.06604 197.21L26.5679 6.0386C27.103 2.2117 30.6347 -0.460022 34.4628 0.0661011L270.208 32.7472C274.035 33.2822 276.707 36.8139 276.181 40.6421L249.679 231.814C249.144 235.641 245.612 238.312 241.784 237.786L241.784 237.786Z" transform="translate(605.0725 140.7554)" id="Shape" fill="#6C63FF" stroke="none" />
    <path d="M120.799 109.069L0.444824 92.3846C0.293823 92.3657 0.144897 92.3329 0 92.2866L70.5905 1.58032C71.4711 0.428223 72.9035 -0.160919 74.3399 0.038208C75.7762 0.237305 76.9943 1.19391 77.5283 2.54208L106.558 74.0044L107.949 77.4242L120.799 109.069Z" transform="translate(641.6028 209.8104)" id="Shape" fill="#EEEEEE" stroke="none" />
    <path d="M41.092 35.064L0 29.368L24.234 2.86398L25.979 0.954987L26.851 0L28.242 3.41998L41.092 35.064L41.092 35.064Z" transform="translate(721.3098 283.8151)" id="Polygon" fill="#000000" fill-opacity="0.2" stroke="none" />
    <path d="M104.097 78.863L0 64.4322L24.2338 37.9282L25.978 36.0187L57.5573 1.47858C58.6608 0.429138 60.158 -0.102356 61.6762 0.0163574C63.1944 0.135071 64.5908 0.892853 65.5178 2.10104C65.6332 2.26904 65.7378 2.44424 65.8309 2.62552L104.097 78.863Z" transform="translate(725.3179 249.3065)" id="Shape" fill="#EEEEEE" stroke="none" />
    <path d="M0 18C0 8.05887 8.05887 0 18 0C27.9411 0 36 8.05887 36 18C36 27.9411 27.9411 36 18 36C8.05887 36 0 27.9411 0 18Z" transform="translate(745.866 206.1835)" id="Circle" fill="#EEEEEE" stroke="none" />
    <path d="M0 0L22 0L22 22L0 22L0 0Z" transform="matrix(0.99053 0.13732 -0.13732 0.99053 643.5566 155.5172)" id="Rectangle" fill="#3F3D56" stroke="none" />
    <path d="M62.8756 35.9995C66.3531 20.4257 55.2369 4.689 38.047 0.850616C20.8571 -2.98776 4.10278 6.52573 0.625305 22.0995C-2.85217 37.6733 8.54022 43.4172 25.7302 47.2555C42.9201 51.0938 59.3981 51.5733 62.8756 35.9995L62.8756 35.9995Z" transform="translate(704.9907 338.0812)" id="Shape" fill="#F2F2F2" stroke="none" />
    <path d="M0 4.08868C0 1.83056 4.8815 0 10.9031 0C16.9248 0 21.8063 1.83056 21.8063 4.08868C21.8063 6.3468 16.9248 8.17736 10.9031 8.17736C4.8815 8.17736 0 6.3468 0 4.08868Z" transform="matrix(0.9973379 -0.07291862 0.07291862 0.9973379 723.5181 469.9672)" id="Ellipse" fill="#2F2E41" stroke="none" />
  </g>
</svg>