<svg width="865px" height="426px" viewBox="0 0 865 426" version="1.1" xmlns:xlink="http://www.w3.org/1999/xlink" xmlns="http://www.w3.org/2000/svg">
  <g id="undraw_design_feedback_dexe">
    <path d="M0 0L588.31 0L588.31 382.223L0 382.223L0 0Z" transform="translate(276.6089 2.139404)" id="Rectangle" fill="#3F3D56" stroke="none" />
    <path d="M0 0L44.9255 0L44.9255 385.789L0 385.789L0 0Z" transform="translate(258.7813 0)" id="Rectangle" fill="#D0CDE1" stroke="none" />
    <path d="M0 0L117.662 0L117.662 1.42621L0 1.42621L0 0Z" transform="translate(389.9922 106.2522)" id="Rectangle" fill="#D0CDE1" stroke="none" />
    <path d="M0 151.178L161.874 151.178L161.874 0L0 0L0 151.178ZM160.449 149.752L1.42651 149.752L1.42656 1.42651L160.449 1.42651L160.449 149.752Z" transform="translate(613.9067 161.8745)" id="Shape" fill="#D0CDE1" fill-rule="evenodd" stroke="none" />
    <path d="M0 0L1.42667 6.10351e-05L1.42688 219.479L0.000152588 219.478L0 0Z" transform="matrix(0.6823812 -0.7309965 0.7309965 0.6823812 614.1501 163.1074)" id="Rectangle" fill="#D0CDE1" stroke="none" />
    <path d="M0.000152588 0.000183105L219.479 0L219.479 1.42682L0 1.42682L0.000152588 0.000183105Z" transform="matrix(0.7311156 -0.6822536 0.6822536 0.7311156 614.1367 311.8181)" id="Rectangle" fill="#D0CDE1" stroke="none" />
    <path d="M0 0L166.153 0L166.153 1.42619L0 1.42619L0 0Z" transform="translate(389.9922 211.0786)" id="Rectangle" fill="#D0CDE1" stroke="none" />
    <path d="M0 0L166.153 0L166.153 1.42622L0 1.42622L0 0Z" transform="translate(389.9922 236.75)" id="Rectangle" fill="#D0CDE1" stroke="none" />
    <path d="M0 0L166.153 0L166.153 1.42624L0 1.42624L0 0Z" transform="translate(389.9922 262.4216)" id="Rectangle" fill="#D0CDE1" stroke="none" />
    <path d="M0 0L506.799 0L506.799 1.79715L0 1.79715L0 0Z" transform="translate(0 423.6587)" id="Rectangle" fill="#3F3D56" stroke="none" />
    <path d="M0 9.9142C0 4.43874 4.43874 0 9.91419 0C15.3896 0 19.8284 4.43874 19.8284 9.9142C19.8284 15.3897 15.3896 19.8284 9.91419 19.8284C4.43874 19.8284 0 15.3897 0 9.9142Z" transform="translate(139.6614 108.6885)" id="Circle" fill="#2F2E41" stroke="none" />
    <path d="M0 31.2113C0 13.9738 12.7374 0 28.4498 0C44.1621 0 56.8995 13.9738 56.8995 31.2113C56.8995 48.4489 44.1621 62.4227 28.4498 62.4227C12.7374 62.4227 0 48.4489 0 31.2113Z" transform="translate(142.0613 54.71094)" id="Ellipse" fill="#2F2E41" stroke="none" />
    <path d="M59.8524 31.2114L59.118 34.8834C59.118 34.8834 56.9148 37.0865 58.0164 38.1881C59.118 39.2897 58.7508 44.4304 58.7508 44.4304L56.5476 58.7509L43.6959 116.767C43.6959 116.767 26.805 127.783 13.5861 149.447C0.367212 171.112 0 176.62 0 176.62L14.6877 182.862L51.4069 138.432C51.4069 138.432 61.6883 132.189 65.3602 126.681C69.0322 121.174 91.7981 64.2587 91.7981 64.2587L104.65 123.744C104.65 123.744 103.915 145.408 107.22 159.362C109.252 168.167 110.481 177.139 110.892 186.167L128.15 184.331C128.15 184.331 127.049 132.189 125.213 126.681C125.213 126.681 132.924 63.1571 117.502 37.8208L108.322 0.734377L92.8997 0L59.8524 31.2114Z" transform="translate(90.6416 188.9197)" id="Shape" fill="#2F2E41" stroke="none" />
    <path d="M42.0634 11.383L23.7038 0L15.2583 16.1565C15.2583 16.1565 -3.46847 27.5394 0.57064 35.9849C4.60975 44.4303 8.28167 46.6335 8.28167 46.6335L10.852 45.5319L15.6255 54.3445C15.6255 54.3445 28.1101 72.337 48.3056 63.1571C50.2518 60.5419 50.2518 56.9597 48.3056 54.3445C45.0009 49.571 36.5555 39.2896 36.5555 39.2896L42.0634 11.383Z" transform="translate(66.20313 358.9299)" id="Shape" fill="#2F2E41" stroke="none" />
    <path d="M23.2608 0L3.06522 1.46875L5.26837 17.9924C5.26837 17.9924 -4.27863 41.4927 2.33084 43.3287C7.03312 44.5434 11.8201 45.4027 16.6513 45.899L17.3857 43.3287C17.3857 43.3287 45.6595 58.7508 55.9409 47.3678C55.9409 47.3678 58.1441 39.2896 51.9018 36.7192C45.6595 34.1489 33.5422 28.641 32.0734 25.7035C30.6047 22.7659 23.2608 0 23.2608 0L23.2608 0Z" transform="translate(197.3669 370.6804)" id="Shape" fill="#2F2E41" stroke="none" />
    <path d="M0 17.6252C0 7.89108 7.89109 0 17.6252 0C27.3594 0 35.2505 7.89108 35.2505 17.6252C35.2505 27.3594 27.3594 35.2505 17.6252 35.2505C7.89109 35.2505 0 27.3594 0 17.6252Z" transform="translate(153.7981 73.25439)" id="Circle" fill="#FFB8B8" stroke="none" />
    <path d="M10.7308 0C10.7308 0 12.934 14.3205 1.91823 19.8284C-9.09753 25.3363 30.9264 31.9458 30.9264 31.9458C30.9264 31.9458 24.6842 22.3988 25.7857 19.094C26.8873 15.7893 32.3952 2.57036 32.3952 2.57036L10.7308 0Z" transform="translate(147.4736 101.5281)" id="Shape" fill="#FFB8B8" stroke="none" />
    <path d="M16.7483 4.09073C16.7483 4.09073 6.09972 -2.15154 2.42781 0.785995C-1.2441 3.72353 -2.3457 93.6856 10.8733 97.3575L11.2404 102.131C11.2404 102.131 6.46691 104.334 10.8733 104.334C15.2796 104.334 35.8424 89.2793 36.5768 83.7714C37.3112 78.2635 58.6083 77.1619 58.6083 77.1619C58.6083 77.1619 64.1162 100.662 65.9521 99.9279C67.7881 99.1935 67.7881 83.4042 67.0537 81.201C66.3193 78.9979 75.4992 72.0213 72.9288 67.6149C70.3584 63.2086 63.3818 48.1538 63.3818 48.1538C63.3818 48.1538 64.1161 38.6068 54.202 29.7942C54.202 29.7942 51.3047 13.3921 38.2492 13.1477C25.1938 12.9033 16.7483 4.09073 16.7483 4.09073L16.7483 4.09073Z" transform="translate(138.519 117.6328)" id="Shape" fill="#575A89" stroke="none" />
    <path d="M0 0L0 20.1464L4.66517 20.1464L10.6026 13.7844L9.80774 20.1464L30.4308 20.1464L29.1585 13.7844L31.703 20.1464L34.9896 20.1464L34.9896 0L0 0L0 0Z" transform="translate(153.8755 69.43042)" id="Polygon" fill="#2F2E41" stroke="none" />
    <path d="M0 0L152.142 0L152.142 138.946L0 138.946L0 0Z" transform="translate(44.87744 249.948)" id="Rectangle" fill="#6C63FF" stroke="none" />
    <path d="M9.14633 28.8423C-3.67954 49.7816 0.733181 75.8279 0.733181 75.8279C0.733181 75.8279 25.9407 67.9248 38.7666 46.9855C51.5925 26.0463 47.1798 0 47.1798 0C47.1798 0 21.9722 7.90298 9.14633 28.8423L9.14633 28.8423Z" transform="translate(125.8198 293.4558)" id="Shape" fill="#3F3D56" stroke="none" />
    <path d="M58.3 69.7325L57.5707 69.617C57.307 69.5752 31.0584 65.2261 15.3383 46.4176C-0.381947 27.6086 -0.00363623 1.0046 0.00151608 0.738002L0.0171626 0L0.746411 0.115507C1.01012 0.157341 27.2587 4.50642 42.9789 23.3155L42.9789 23.3155C58.6991 42.1239 58.3208 68.7279 58.3156 68.9944L58.3 69.7325Z" transform="translate(67.72925 299.7239)" id="Shape" fill="#D0CDE1" stroke="none" />
    <path d="M0 14.1715C0 6.3448 6.34479 0 14.1715 0C21.9982 0 28.343 6.3448 28.343 14.1715C28.343 21.9982 21.9982 28.343 14.1715 28.343C6.34479 28.343 0 21.9982 0 14.1715Z" transform="translate(113.1816 273.0908)" id="Circle" fill="#3F3D56" stroke="none" />
    <path d="M0 4.14732L4.40636 36.8275C4.40636 36.8275 1.83601 65.4684 11.7502 65.8357C21.6644 66.2029 15.4221 36.4603 15.4221 36.4603L14.3206 6.7177C14.3206 6.7177 6.24228 -6.50126 0 4.14732L0 4.14732Z" transform="translate(127.7278 207.1714)" id="Shape" fill="#FFB8B8" stroke="none" />
    <path d="M20.5117 3.58644C20.5117 3.58644 17.9414 -3.39023 12.4335 2.11766C6.92561 7.62555 2.15212 21.9461 2.15212 30.7587C2.15212 39.5713 3.2537 90.611 3.2537 90.611C3.2537 90.611 -2.62138 92.8142 1.41774 96.1189C5.45687 99.4237 10.9647 94.283 10.9647 94.283C10.9647 94.283 18.3086 99.4237 19.043 99.4237C19.7774 99.4237 19.4101 93.1814 19.4101 93.1814C19.4101 93.1814 23.0821 83.6344 22.3477 76.2905C21.6133 68.9466 20.5117 3.58644 20.5117 3.58644L20.5117 3.58644Z" transform="translate(123.7397 117.0354)" id="Shape" fill="#575A89" stroke="none" />
    <path d="M0 26.3849L386.502 26.3849L386.502 0L0 0L0 26.3849ZM385.076 24.959L1.42651 24.959L1.42651 1.42651L385.076 1.42651L385.076 24.959Z" transform="translate(389.2793 59.90088)" id="Shape" fill="#D0CDE1" fill-rule="evenodd" stroke="none" />
    <path d="M38.0355 38.0355L0 38.0355C2.93614 26.2194 2.5819 13.4369 0 0L38.0355 0C32.7112 12.6785 32.7112 25.357 38.0355 38.0355C38.0355 38.0355 38.0355 38.0355 38.0355 38.0355Z" transform="translate(47.2063 249.948)" id="Shape" fill="#D0CDE1" stroke="none" />
    <path d="M0 0L23.0518 0L23.0518 4.61035L0 4.61035L0 0Z" transform="translate(52.96924 258.0161)" id="Rectangle" fill="#3F3D56" stroke="none" />
    <path d="M0 0L23.0518 0L23.0518 4.61035L0 4.61035L0 0Z" transform="translate(52.96924 267.2368)" id="Rectangle" fill="#3F3D56" stroke="none" />
    <path d="M0 0L23.0518 0L23.0518 4.61035L0 4.61035L0 0Z" transform="translate(52.96924 276.4573)" id="Rectangle" fill="#3F3D56" stroke="none" />
    <path d="M38.0356 38.0355L0 38.0355C2.93614 26.2194 2.58189 13.4368 0 0L38.0356 0C32.7112 12.6785 32.7112 25.357 38.0356 38.0355C38.0356 38.0355 38.0356 38.0355 38.0356 38.0355Z" transform="translate(389.5259 100.9109)" id="Shape" fill="#D0CDE1" stroke="none" />
    <path d="M0 0L23.0518 0L23.0518 4.61036L0 4.61036L0 0Z" transform="translate(395.2888 108.979)" id="Rectangle" fill="#3F3D56" stroke="none" />
    <path d="M0 0L23.0518 0L23.0518 4.61036L0 4.61036L0 0Z" transform="translate(395.2888 118.1997)" id="Rectangle" fill="#3F3D56" stroke="none" />
    <path d="M0 0L23.0518 0L23.0518 4.61037L0 4.61037L0 0Z" transform="translate(395.2888 127.4202)" id="Rectangle" fill="#3F3D56" stroke="none" />
    <path d="M38.0356 38.0355L0 38.0355C2.93614 26.2194 2.5819 13.4368 0 0L38.0356 0C32.7112 12.6785 32.7112 25.357 38.0356 38.0355C38.0356 38.0355 38.0356 38.0355 38.0356 38.0355Z" transform="translate(675.957 158.3521)" id="Shape" fill="#D0CDE1" stroke="none" />
    <path d="M0 0L23.0518 0L23.0518 4.61038L0 4.61038L0 0Z" transform="translate(681.7202 166.4202)" id="Rectangle" fill="#3F3D56" stroke="none" />
    <path d="M0 0L23.0518 0L23.0518 4.61038L0 4.61038L0 0Z" transform="translate(681.7202 175.6409)" id="Rectangle" fill="#3F3D56" stroke="none" />
    <path d="M0 0L23.0518 0L23.0518 4.61038L0 4.61038L0 0Z" transform="translate(681.7202 184.8613)" id="Rectangle" fill="#3F3D56" stroke="none" />
    <path d="M38.0356 38.0355L0 38.0355C2.93614 26.2194 2.5819 13.4368 0 0L38.0356 0C32.7113 12.6785 32.7113 25.357 38.0356 38.0355C38.0356 38.0355 38.0356 38.0355 38.0356 38.0355Z" transform="translate(724.8594 76.84766)" id="Shape" fill="#D0CDE1" stroke="none" />
    <path d="M0 0L23.0518 0L23.0518 4.61036L0 4.61036L0 0Z" transform="translate(730.6223 84.91553)" id="Rectangle" fill="#3F3D56" stroke="none" />
    <path d="M0 0L23.0518 0L23.0518 4.61037L0 4.61037L0 0Z" transform="translate(730.6223 94.13623)" id="Rectangle" fill="#3F3D56" stroke="none" />
    <path d="M0 0L23.0518 0L23.0518 4.61036L0 4.61036L0 0Z" transform="translate(730.6223 103.3572)" id="Rectangle" fill="#3F3D56" stroke="none" />
    <path d="M0 20.1821L20.1821 20.1821L20.1821 0L0 0L0 20.1821ZM18.6297 18.6297L1.55249 18.6297L1.55249 1.55249L18.6297 1.55249L18.6297 18.6297Z" transform="translate(271.1531 137.7817)" id="Shape" fill="#3F3D56" fill-rule="evenodd" stroke="none" />
    <path d="M0 20.1821L20.1821 20.1821L20.1821 0L0 0L0 20.1821ZM18.6297 18.6297L1.55249 18.6297L1.55249 1.55249L18.6297 1.55249L18.6297 18.6297Z" transform="translate(271.5381 182.8035)" id="Shape" fill="#3F3D56" fill-rule="evenodd" stroke="none" />
    <path d="M0 20.1821L20.1821 20.1821L20.1821 0L0 0L0 20.1821ZM18.6297 18.6297L1.55249 18.6297L1.55249 1.55249L18.6297 1.55249L18.6297 18.6297Z" transform="translate(271.9233 227.8254)" id="Shape" fill="#3F3D56" fill-rule="evenodd" stroke="none" />
    <path d="M0 6.20989C0 2.78026 2.78025 0 6.20987 0C9.63949 0 12.4197 2.78026 12.4197 6.20989C12.4197 9.63952 9.63949 12.4198 6.20987 12.4198C2.78025 12.4198 0 9.63952 0 6.20989Z" transform="translate(266.1045 222.0034)" id="Circle" fill="#6C63FF" stroke="none" />
  </g>
</svg>